<ttFont>
    <TTGlyph name="A" xMin="0" yMin="0" xMax="905" yMax="1463">
      <contour>
        <pt x="355" y="1463" on="1"/>
        <pt x="544" y="1463" on="1"/>
        <pt x="605" y="1216" on="0"/>
        <pt x="905" y="0" on="1"/>
        <pt x="748" y="0" on="1"/>
        <pt x="634" y="476" on="1"/>
        <pt x="270" y="476" on="1"/>
        <pt x="158" y="0" on="1"/>
        <pt x="0" y="0" on="1"/>
        <pt x="294" y="1212" on="0"/>
      </contour>
      <contour>
        <pt x="511" y="1008" on="1"/>
        <pt x="479" y="1151" on="1"/>
        <pt x="460" y="1236" on="0"/>
        <pt x="449" y="1322" on="1"/>
        <pt x="433" y="1197" on="0"/>
        <pt x="388" y="995" on="0"/>
        <pt x="366" y="898" on="0"/>
        <pt x="312" y="670" on="0"/>
        <pt x="301" y="622" on="1"/>
        <pt x="602" y="622" on="1"/>
      </contour>
    </TTGlyph>
    <TTGlyph name="AE" xMin="0" yMin="0" xMax="1148" yMax="1462">
      <contour>
        <pt x="298" y="476" on="1"/>
        <pt x="159" y="0" on="1"/>
        <pt x="0" y="0" on="1"/>
        <pt x="446" y="1462" on="1"/>
        <pt x="1148" y="1462" on="1"/>
        <pt x="1148" y="1320" on="1"/>
        <pt x="732" y="1320" on="1"/>
        <pt x="732" y="834" on="1"/>
        <pt x="1122" y="834" on="1"/>
        <pt x="1122" y="693" on="1"/>
        <pt x="732" y="693" on="1"/>
        <pt x="732" y="141" on="1"/>
        <pt x="1148" y="141" on="1"/>
        <pt x="1148" y="0" on="1"/>
        <pt x="576" y="0" on="1"/>
        <pt x="576" y="476" on="1"/>
      </contour>
      <contour>
        <pt x="576" y="622" on="1"/>
        <pt x="576" y="1318" on="1"/>
        <pt x="545" y="1318" on="1"/>
        <pt x="492" y="1138" on="0"/>
        <pt x="367" y="708" on="0"/>
        <pt x="341" y="622" on="1"/>
      </contour>
    </TTGlyph>
    <TTGlyph name="Aacute" xMin="0" yMin="0" xMax="905" yMax="1907">
      <contour>
        <pt x="734" y="1907" on="1"/>
        <pt x="734" y="1888" on="1"/>
        <pt x="705" y="1833" on="0"/>
        <pt x="528" y="1640" on="0"/>
        <pt x="454" y="1579" on="1"/>
        <pt x="361" y="1579" on="1"/>
        <pt x="361" y="1601" on="1"/>
        <pt x="413" y="1670" on="0"/>
        <pt x="516" y="1841" on="0"/>
        <pt x="546" y="1907" on="1"/>
      </contour>
      <contour>
        <pt x="355" y="1463" on="1"/>
        <pt x="544" y="1463" on="1"/>
        <pt x="605" y="1216" on="0"/>
        <pt x="905" y="0" on="1"/>
        <pt x="748" y="0" on="1"/>
        <pt x="634" y="476" on="1"/>
        <pt x="270" y="476" on="1"/>
        <pt x="158" y="0" on="1"/>
        <pt x="0" y="0" on="1"/>
        <pt x="294" y="1212" on="0"/>
      </contour>
      <contour>
        <pt x="511" y="1008" on="1"/>
        <pt x="479" y="1151" on="1"/>
        <pt x="460" y="1236" on="0"/>
        <pt x="449" y="1322" on="1"/>
        <pt x="433" y="1197" on="0"/>
        <pt x="388" y="995" on="0"/>
        <pt x="366" y="898" on="0"/>
        <pt x="312" y="670" on="0"/>
        <pt x="301" y="622" on="1"/>
        <pt x="602" y="622" on="1"/>
      </contour>
    </TTGlyph>
    <TTGlyph name="Acircumflex" xMin="0" yMin="0" xMax="905" yMax="1907">
      <contour>
        <pt x="725" y="1579" on="1"/>
        <pt x="639" y="1579" on="1"/>
        <pt x="597" y="1615" on="0"/>
        <pt x="540" y="1679" on="1"/>
        <pt x="450" y="1780" on="1"/>
        <pt x="316" y="1629" on="0"/>
        <pt x="260" y="1579" on="1"/>
        <pt x="175" y="1579" on="1"/>
        <pt x="175" y="1600" on="1"/>
        <pt x="316" y="1789" on="0"/>
        <pt x="372" y="1907" on="1"/>
        <pt x="527" y="1907" on="1"/>
        <pt x="548" y="1858" on="0"/>
        <pt x="660" y="1683" on="0"/>
        <pt x="725" y="1600" on="1"/>
      </contour>
      <contour>
        <pt x="355" y="1463" on="1"/>
        <pt x="544" y="1463" on="1"/>
        <pt x="605" y="1216" on="0"/>
        <pt x="905" y="0" on="1"/>
        <pt x="748" y="0" on="1"/>
        <pt x="634" y="476" on="1"/>
        <pt x="270" y="476" on="1"/>
        <pt x="158" y="0" on="1"/>
        <pt x="0" y="0" on="1"/>
        <pt x="294" y="1212" on="0"/>
      </contour>
      <contour>
        <pt x="511" y="1008" on="1"/>
        <pt x="479" y="1151" on="1"/>
        <pt x="460" y="1236" on="0"/>
        <pt x="449" y="1322" on="1"/>
        <pt x="433" y="1197" on="0"/>
        <pt x="388" y="995" on="0"/>
        <pt x="366" y="898" on="0"/>
        <pt x="312" y="670" on="0"/>
        <pt x="301" y="622" on="1"/>
        <pt x="602" y="622" on="1"/>
      </contour>
    </TTGlyph>
    <TTGlyph name="Adieresis" xMin="0" yMin="0" xMax="905" yMax="1828">
      <contour>
        <pt x="248" y="1828" on="0"/>
        <pt x="324" y="1828" on="0"/>
        <pt x="371" y="1778" on="0"/>
        <pt x="371" y="1685" on="0"/>
        <pt x="324" y="1633" on="0"/>
        <pt x="248" y="1633" on="0"/>
        <pt x="200" y="1684" on="0"/>
        <pt x="200" y="1779" on="0"/>
      </contour>
      <contour>
        <pt x="583" y="1828" on="0"/>
        <pt x="659" y="1828" on="0"/>
        <pt x="707" y="1779" on="0"/>
        <pt x="707" y="1684" on="0"/>
        <pt x="660" y="1633" on="0"/>
        <pt x="584" y="1633" on="0"/>
        <pt x="536" y="1685" on="0"/>
        <pt x="536" y="1778" on="0"/>
      </contour>
      <contour>
        <pt x="355" y="1463" on="1"/>
        <pt x="544" y="1463" on="1"/>
        <pt x="605" y="1216" on="0"/>
        <pt x="905" y="0" on="1"/>
        <pt x="748" y="0" on="1"/>
        <pt x="634" y="476" on="1"/>
        <pt x="270" y="476" on="1"/>
        <pt x="158" y="0" on="1"/>
        <pt x="0" y="0" on="1"/>
        <pt x="294" y="1212" on="0"/>
      </contour>
      <contour>
        <pt x="511" y="1008" on="1"/>
        <pt x="479" y="1151" on="1"/>
        <pt x="460" y="1236" on="0"/>
        <pt x="449" y="1322" on="1"/>
        <pt x="433" y="1197" on="0"/>
        <pt x="388" y="995" on="0"/>
        <pt x="366" y="898" on="0"/>
        <pt x="312" y="670" on="0"/>
        <pt x="301" y="622" on="1"/>
        <pt x="602" y="622" on="1"/>
      </contour>
    </TTGlyph>
    <TTGlyph name="Agrave" xMin="0" yMin="0" xMax="905" yMax="1907">
      <contour>
        <pt x="162" y="1907" on="1"/>
        <pt x="351" y="1907" on="1"/>
        <pt x="380" y="1840" on="0"/>
        <pt x="487" y="1663" on="0"/>
        <pt x="536" y="1602" on="1"/>
        <pt x="536" y="1579" on="1"/>
        <pt x="442" y="1579" on="1"/>
        <pt x="374" y="1635" on="0"/>
        <pt x="284" y="1731" on="1"/>
        <pt x="195" y="1828" on="0"/>
        <pt x="162" y="1889" on="1"/>
      </contour>
      <contour>
        <pt x="355" y="1463" on="1"/>
        <pt x="544" y="1463" on="1"/>
        <pt x="605" y="1216" on="0"/>
        <pt x="905" y="0" on="1"/>
        <pt x="748" y="0" on="1"/>
        <pt x="634" y="476" on="1"/>
        <pt x="270" y="476" on="1"/>
        <pt x="158" y="0" on="1"/>
        <pt x="0" y="0" on="1"/>
        <pt x="294" y="1212" on="0"/>
      </contour>
      <contour>
        <pt x="511" y="1008" on="1"/>
        <pt x="479" y="1151" on="1"/>
        <pt x="460" y="1236" on="0"/>
        <pt x="449" y="1322" on="1"/>
        <pt x="433" y="1197" on="0"/>
        <pt x="388" y="995" on="0"/>
        <pt x="366" y="898" on="0"/>
        <pt x="312" y="670" on="0"/>
        <pt x="301" y="622" on="1"/>
        <pt x="602" y="622" on="1"/>
      </contour>
    </TTGlyph>
    <TTGlyph name="Aring" xMin="0" yMin="0" xMax="905" yMax="1781">
      <contour>
        <pt x="237" y="1579" on="1"/>
        <pt x="237" y="1671" on="0"/>
        <pt x="355" y="1781" on="0"/>
        <pt x="545" y="1781" on="0"/>
        <pt x="667" y="1670" on="0"/>
        <pt x="667" y="1582" on="1"/>
        <pt x="667" y="1518" on="0"/>
        <pt x="611" y="1424" on="0"/>
        <pt x="560" y="1400" on="1"/>
        <pt x="759" y="585" on="0"/>
        <pt x="905" y="0" on="1"/>
        <pt x="748" y="0" on="1"/>
        <pt x="634" y="476" on="1"/>
        <pt x="270" y="476" on="1"/>
        <pt x="158" y="0" on="1"/>
        <pt x="0" y="0" on="1"/>
        <pt x="299" y="1233" on="0"/>
        <pt x="340" y="1401" on="1"/>
        <pt x="237" y="1451" on="0"/>
      </contour>
      <contour>
        <pt x="565" y="1629" on="0"/>
        <pt x="504" y="1690" on="0"/>
        <pt x="401" y="1690" on="0"/>
        <pt x="337" y="1628" on="0"/>
        <pt x="337" y="1527" on="0"/>
        <pt x="396" y="1467" on="0"/>
        <pt x="502" y="1467" on="0"/>
        <pt x="565" y="1528" on="0"/>
      </contour>
      <contour>
        <pt x="602" y="622" on="1"/>
        <pt x="511" y="1008" on="1"/>
        <pt x="479" y="1151" on="1"/>
        <pt x="460" y="1236" on="0"/>
        <pt x="449" y="1322" on="1"/>
        <pt x="433" y="1197" on="0"/>
        <pt x="388" y="995" on="0"/>
        <pt x="366" y="898" on="0"/>
        <pt x="312" y="670" on="0"/>
        <pt x="301" y="622" on="1"/>
      </contour>
    </TTGlyph>
    <TTGlyph name="Atilde" xMin="0" yMin="0" xMax="905" yMax="1821">
      <contour>
        <pt x="579" y="1580" on="1"/>
        <pt x="545" y="1580" on="0"/>
        <pt x="469" y="1618" on="0"/>
        <pt x="442" y="1640" on="1"/>
        <pt x="369" y="1701" on="0"/>
        <pt x="332" y="1701" on="1"/>
        <pt x="269" y="1701" on="0"/>
        <pt x="250" y="1578" on="1"/>
        <pt x="154" y="1578" on="1"/>
        <pt x="166" y="1695" on="0"/>
        <pt x="259" y="1819" on="0"/>
        <pt x="337" y="1819" on="1"/>
        <pt x="380" y="1819" on="0"/>
        <pt x="474" y="1759" on="0"/>
        <pt x="556" y="1699" on="0"/>
        <pt x="618" y="1699" on="0"/>
        <pt x="652" y="1759" on="0"/>
        <pt x="663" y="1821" on="1"/>
        <pt x="759" y="1821" on="1"/>
        <pt x="749" y="1704" on="0"/>
        <pt x="655" y="1580" on="0"/>
      </contour>
      <contour>
        <pt x="355" y="1463" on="1"/>
        <pt x="544" y="1463" on="1"/>
        <pt x="605" y="1216" on="0"/>
        <pt x="905" y="0" on="1"/>
        <pt x="748" y="0" on="1"/>
        <pt x="634" y="476" on="1"/>
        <pt x="270" y="476" on="1"/>
        <pt x="158" y="0" on="1"/>
        <pt x="0" y="0" on="1"/>
        <pt x="294" y="1212" on="0"/>
      </contour>
      <contour>
        <pt x="511" y="1008" on="1"/>
        <pt x="479" y="1151" on="1"/>
        <pt x="460" y="1236" on="0"/>
        <pt x="449" y="1322" on="1"/>
        <pt x="433" y="1197" on="0"/>
        <pt x="388" y="995" on="0"/>
        <pt x="366" y="898" on="0"/>
        <pt x="312" y="670" on="0"/>
        <pt x="301" y="622" on="1"/>
        <pt x="602" y="622" on="1"/>
      </contour>
    </TTGlyph>
    <TTGlyph name="B" xMin="149" yMin="0" xMax="873" yMax="1462">
      <contour>
        <pt x="149" y="1462" on="1"/>
        <pt x="460" y="1462" on="1"/>
        <pt x="843" y="1462" on="0"/>
        <pt x="843" y="1106" on="1"/>
        <pt x="843" y="966" on="0"/>
        <pt x="733" y="794" on="0"/>
        <pt x="630" y="774" on="1"/>
        <pt x="630" y="766" on="1"/>
        <pt x="754" y="738" on="0"/>
        <pt x="873" y="568" on="0"/>
        <pt x="873" y="418" on="1"/>
        <pt x="873" y="222" on="0"/>
        <pt x="686" y="0" on="0"/>
        <pt x="520" y="0" on="1"/>
        <pt x="149" y="0" on="1"/>
      </contour>
      <contour>
        <pt x="299" y="1324" on="1"/>
        <pt x="299" y="831" on="1"/>
        <pt x="464" y="831" on="1"/>
        <pt x="582" y="831" on="0"/>
        <pt x="686" y="960" on="0"/>
        <pt x="686" y="1096" on="1"/>
        <pt x="686" y="1324" on="0"/>
        <pt x="459" y="1324" on="1"/>
      </contour>
      <contour>
        <pt x="299" y="696" on="1"/>
        <pt x="299" y="138" on="1"/>
        <pt x="495" y="138" on="1"/>
        <pt x="713" y="138" on="0"/>
        <pt x="713" y="428" on="1"/>
        <pt x="713" y="558" on="0"/>
        <pt x="590" y="696" on="0"/>
        <pt x="475" y="696" on="1"/>
      </contour>
    </TTGlyph>
    <TTGlyph name="C" xMin="102" yMin="-20" xMax="842" yMax="1484">
      <contour>
        <pt x="580" y="-20" on="1"/>
        <pt x="359" y="-20" on="0"/>
        <pt x="102" y="373" on="0"/>
        <pt x="102" y="1076" on="0"/>
        <pt x="355" y="1484" on="0"/>
        <pt x="583" y="1484" on="1"/>
        <pt x="723" y="1484" on="0"/>
        <pt x="842" y="1410" on="1"/>
        <pt x="782" y="1279" on="1"/>
        <pt x="687" y="1342" on="0"/>
        <pt x="586" y="1342" on="1"/>
        <pt x="435" y="1342" on="0"/>
        <pt x="262" y="1015" on="0"/>
        <pt x="262" y="446" on="0"/>
        <pt x="438" y="121" on="0"/>
        <pt x="593" y="121" on="1"/>
        <pt x="710" y="121" on="0"/>
        <pt x="808" y="173" on="1"/>
        <pt x="808" y="33" on="1"/>
        <pt x="720" y="-20" on="0"/>
      </contour>
    </TTGlyph>
    <TTGlyph name="Ccedilla" xMin="102" yMin="-492" xMax="842" yMax="1484">
      <contour>
        <pt x="586" y="1342" on="1"/>
        <pt x="435" y="1342" on="0"/>
        <pt x="262" y="1015" on="0"/>
        <pt x="262" y="446" on="0"/>
        <pt x="438" y="121" on="0"/>
        <pt x="593" y="121" on="1"/>
        <pt x="710" y="121" on="0"/>
        <pt x="808" y="173" on="1"/>
        <pt x="808" y="33" on="1"/>
        <pt x="723" y="-19" on="0"/>
        <pt x="589" y="-20" on="1"/>
        <pt x="552" y="-102" on="1"/>
        <pt x="710" y="-141" on="0"/>
        <pt x="710" y="-281" on="1"/>
        <pt x="710" y="-383" on="0"/>
        <pt x="579" y="-492" on="0"/>
        <pt x="457" y="-492" on="1"/>
        <pt x="393" y="-492" on="0"/>
        <pt x="356" y="-478" on="1"/>
        <pt x="356" y="-375" on="1"/>
        <pt x="402" y="-388" on="0"/>
        <pt x="514" y="-388" on="0"/>
        <pt x="579" y="-334" on="0"/>
        <pt x="579" y="-285" on="1"/>
        <pt x="579" y="-185" on="0"/>
        <pt x="416" y="-159" on="1"/>
        <pt x="486" y="-10" on="1"/>
        <pt x="306" y="31" on="0"/>
        <pt x="102" y="413" on="0"/>
        <pt x="102" y="719" on="1"/>
        <pt x="102" y="1076" on="0"/>
        <pt x="355" y="1484" on="0"/>
        <pt x="583" y="1484" on="1"/>
        <pt x="723" y="1484" on="0"/>
        <pt x="842" y="1410" on="1"/>
        <pt x="782" y="1279" on="1"/>
        <pt x="687" y="1342" on="0"/>
      </contour>
    </TTGlyph>
    <TTGlyph name="D" xMin="149" yMin="0" xMax="942" yMax="1462">
      <contour>
        <pt x="149" y="1462" on="1"/>
        <pt x="457" y="1462" on="1"/>
        <pt x="691" y="1462" on="0"/>
        <pt x="942" y="1094" on="0"/>
        <pt x="942" y="374" on="0"/>
        <pt x="690" y="0" on="0"/>
        <pt x="442" y="0" on="1"/>
        <pt x="149" y="0" on="1"/>
      </contour>
      <contour>
        <pt x="305" y="1324" on="1"/>
        <pt x="305" y="138" on="1"/>
        <pt x="438" y="138" on="1"/>
        <pt x="781" y="138" on="0"/>
        <pt x="781" y="738" on="1"/>
        <pt x="781" y="1027" on="0"/>
        <pt x="614" y="1324" on="0"/>
        <pt x="451" y="1324" on="1"/>
      </contour>
    </TTGlyph>
    <TTGlyph name="E" xMin="150" yMin="0" xMax="722" yMax="1462">
      <contour>
        <pt x="722" y="1321" on="1"/>
        <pt x="305" y="1321" on="1"/>
        <pt x="305" y="835" on="1"/>
        <pt x="697" y="835" on="1"/>
        <pt x="697" y="694" on="1"/>
        <pt x="305" y="694" on="1"/>
        <pt x="305" y="142" on="1"/>
        <pt x="722" y="142" on="1"/>
        <pt x="722" y="0" on="1"/>
        <pt x="150" y="0" on="1"/>
        <pt x="150" y="1462" on="1"/>
        <pt x="722" y="1462" on="1"/>
      </contour>
    </TTGlyph>
    <TTGlyph name="Eacute" xMin="150" yMin="0" xMax="722" yMax="1907">
      <contour>
        <pt x="701" y="1907" on="1"/>
        <pt x="701" y="1888" on="1"/>
        <pt x="672" y="1833" on="0"/>
        <pt x="495" y="1640" on="0"/>
        <pt x="421" y="1579" on="1"/>
        <pt x="328" y="1579" on="1"/>
        <pt x="328" y="1601" on="1"/>
        <pt x="380" y="1670" on="0"/>
        <pt x="483" y="1841" on="0"/>
        <pt x="513" y="1907" on="1"/>
      </contour>
      <contour>
        <pt x="722" y="1321" on="1"/>
        <pt x="305" y="1321" on="1"/>
        <pt x="305" y="835" on="1"/>
        <pt x="697" y="835" on="1"/>
        <pt x="697" y="694" on="1"/>
        <pt x="305" y="694" on="1"/>
        <pt x="305" y="142" on="1"/>
        <pt x="722" y="142" on="1"/>
        <pt x="722" y="0" on="1"/>
        <pt x="150" y="0" on="1"/>
        <pt x="150" y="1462" on="1"/>
        <pt x="722" y="1462" on="1"/>
      </contour>
    </TTGlyph>
    <TTGlyph name="Ecircumflex" xMin="150" yMin="0" xMax="722" yMax="1907">
      <contour>
        <pt x="705" y="1579" on="1"/>
        <pt x="619" y="1579" on="1"/>
        <pt x="577" y="1615" on="0"/>
        <pt x="520" y="1679" on="1"/>
        <pt x="430" y="1780" on="1"/>
        <pt x="296" y="1629" on="0"/>
        <pt x="240" y="1579" on="1"/>
        <pt x="155" y="1579" on="1"/>
        <pt x="155" y="1600" on="1"/>
        <pt x="296" y="1789" on="0"/>
        <pt x="352" y="1907" on="1"/>
        <pt x="507" y="1907" on="1"/>
        <pt x="528" y="1858" on="0"/>
        <pt x="640" y="1683" on="0"/>
        <pt x="705" y="1600" on="1"/>
      </contour>
      <contour>
        <pt x="722" y="1321" on="1"/>
        <pt x="305" y="1321" on="1"/>
        <pt x="305" y="835" on="1"/>
        <pt x="697" y="835" on="1"/>
        <pt x="697" y="694" on="1"/>
        <pt x="305" y="694" on="1"/>
        <pt x="305" y="142" on="1"/>
        <pt x="722" y="142" on="1"/>
        <pt x="722" y="0" on="1"/>
        <pt x="150" y="0" on="1"/>
        <pt x="150" y="1462" on="1"/>
        <pt x="722" y="1462" on="1"/>
      </contour>
    </TTGlyph>
    <TTGlyph name="Edieresis" xMin="150" yMin="0" xMax="722" yMax="1828">
      <contour>
        <pt x="227" y="1828" on="0"/>
        <pt x="303" y="1828" on="0"/>
        <pt x="350" y="1778" on="0"/>
        <pt x="350" y="1685" on="0"/>
        <pt x="303" y="1633" on="0"/>
        <pt x="227" y="1633" on="0"/>
        <pt x="179" y="1684" on="0"/>
        <pt x="179" y="1779" on="0"/>
      </contour>
      <contour>
        <pt x="562" y="1828" on="0"/>
        <pt x="638" y="1828" on="0"/>
        <pt x="686" y="1779" on="0"/>
        <pt x="686" y="1684" on="0"/>
        <pt x="639" y="1633" on="0"/>
        <pt x="563" y="1633" on="0"/>
        <pt x="515" y="1685" on="0"/>
        <pt x="515" y="1778" on="0"/>
      </contour>
      <contour>
        <pt x="722" y="1321" on="1"/>
        <pt x="305" y="1321" on="1"/>
        <pt x="305" y="835" on="1"/>
        <pt x="697" y="835" on="1"/>
        <pt x="697" y="694" on="1"/>
        <pt x="305" y="694" on="1"/>
        <pt x="305" y="142" on="1"/>
        <pt x="722" y="142" on="1"/>
        <pt x="722" y="0" on="1"/>
        <pt x="150" y="0" on="1"/>
        <pt x="150" y="1462" on="1"/>
        <pt x="722" y="1462" on="1"/>
      </contour>
    </TTGlyph>
    <TTGlyph name="Egrave" xMin="150" yMin="0" xMax="722" yMax="1907">
      <contour>
        <pt x="163" y="1907" on="1"/>
        <pt x="352" y="1907" on="1"/>
        <pt x="381" y="1840" on="0"/>
        <pt x="488" y="1663" on="0"/>
        <pt x="537" y="1602" on="1"/>
        <pt x="537" y="1579" on="1"/>
        <pt x="443" y="1579" on="1"/>
        <pt x="375" y="1635" on="0"/>
        <pt x="285" y="1731" on="1"/>
        <pt x="196" y="1828" on="0"/>
        <pt x="163" y="1889" on="1"/>
      </contour>
      <contour>
        <pt x="722" y="1321" on="1"/>
        <pt x="305" y="1321" on="1"/>
        <pt x="305" y="835" on="1"/>
        <pt x="697" y="835" on="1"/>
        <pt x="697" y="694" on="1"/>
        <pt x="305" y="694" on="1"/>
        <pt x="305" y="142" on="1"/>
        <pt x="722" y="142" on="1"/>
        <pt x="722" y="0" on="1"/>
        <pt x="150" y="0" on="1"/>
        <pt x="150" y="1462" on="1"/>
        <pt x="722" y="1462" on="1"/>
      </contour>
    </TTGlyph>
    <TTGlyph name="Eth" xMin="40" yMin="0" xMax="942" yMax="1462">
      <contour>
        <pt x="149" y="1462" on="1"/>
        <pt x="457" y="1462" on="1"/>
        <pt x="692" y="1462" on="0"/>
        <pt x="942" y="1092" on="0"/>
        <pt x="942" y="376" on="0"/>
        <pt x="690" y="0" on="0"/>
        <pt x="442" y="0" on="1"/>
        <pt x="149" y="0" on="1"/>
        <pt x="149" y="668" on="1"/>
        <pt x="40" y="668" on="1"/>
        <pt x="40" y="807" on="1"/>
        <pt x="149" y="807" on="1"/>
      </contour>
      <contour>
        <pt x="305" y="1324" on="1"/>
        <pt x="305" y="807" on="1"/>
        <pt x="516" y="807" on="1"/>
        <pt x="516" y="668" on="1"/>
        <pt x="305" y="668" on="1"/>
        <pt x="305" y="138" on="1"/>
        <pt x="438" y="138" on="1"/>
        <pt x="781" y="138" on="0"/>
        <pt x="781" y="738" on="1"/>
        <pt x="781" y="1027" on="0"/>
        <pt x="614" y="1324" on="0"/>
        <pt x="451" y="1324" on="1"/>
      </contour>
    </TTGlyph>
    <TTGlyph name="Euro" xMin="36" yMin="-20" xMax="823" yMax="1485">
      <contour>
        <pt x="36" y="914" on="1"/>
        <pt x="174" y="914" on="1"/>
        <pt x="198" y="1178" on="0"/>
        <pt x="418" y="1485" on="0"/>
        <pt x="581" y="1485" on="1"/>
        <pt x="713" y="1485" on="0"/>
        <pt x="823" y="1412" on="1"/>
        <pt x="759" y="1283" on="1"/>
        <pt x="669" y="1340" on="0"/>
        <pt x="587" y="1340" on="1"/>
        <pt x="373" y="1340" on="0"/>
        <pt x="332" y="914" on="1"/>
        <pt x="647" y="914" on="1"/>
        <pt x="647" y="804" on="1"/>
        <pt x="324" y="804" on="1"/>
        <pt x="322" y="732" on="1"/>
        <pt x="324" y="628" on="1"/>
        <pt x="610" y="628" on="1"/>
        <pt x="610" y="519" on="1"/>
        <pt x="332" y="519" on="1"/>
        <pt x="371" y="125" on="0"/>
        <pt x="598" y="125" on="1"/>
        <pt x="709" y="125" on="0"/>
        <pt x="805" y="180" on="1"/>
        <pt x="805" y="33" on="1"/>
        <pt x="711" y="-20" on="0"/>
        <pt x="594" y="-20" on="1"/>
        <pt x="228" y="-20" on="0"/>
        <pt x="174" y="519" on="1"/>
        <pt x="36" y="519" on="1"/>
        <pt x="36" y="628" on="1"/>
        <pt x="167" y="628" on="1"/>
        <pt x="166" y="658" on="0"/>
        <pt x="166" y="716" on="1"/>
        <pt x="166" y="742" on="1"/>
        <pt x="166" y="783" on="0"/>
        <pt x="167" y="804" on="1"/>
        <pt x="36" y="804" on="1"/>
      </contour>
    </TTGlyph>
    <TTGlyph name="F" xMin="150" yMin="0" xMax="722" yMax="1462">
      <contour>
        <pt x="722" y="1321" on="1"/>
        <pt x="305" y="1321" on="1"/>
        <pt x="305" y="772" on="1"/>
        <pt x="698" y="772" on="1"/>
        <pt x="698" y="631" on="1"/>
        <pt x="305" y="631" on="1"/>
        <pt x="305" y="0" on="1"/>
        <pt x="150" y="0" on="1"/>
        <pt x="150" y="1462" on="1"/>
        <pt x="722" y="1462" on="1"/>
      </contour>
    </TTGlyph>
    <TTGlyph name="G" xMin="102" yMin="-20" xMax="979" yMax="1483">
      <contour>
        <pt x="979" y="761" on="1"/>
        <pt x="979" y="50" on="1"/>
        <pt x="806" y="-20" on="0"/>
        <pt x="614" y="-20" on="1"/>
        <pt x="370" y="-20" on="0"/>
        <pt x="102" y="375" on="0"/>
        <pt x="102" y="1087" on="0"/>
        <pt x="387" y="1483" on="0"/>
        <pt x="647" y="1483" on="1"/>
        <pt x="817" y="1483" on="0"/>
        <pt x="967" y="1390" on="1"/>
        <pt x="917" y="1279" on="0"/>
        <pt x="907" y="1259" on="1"/>
        <pt x="773" y="1342" on="0"/>
        <pt x="653" y="1342" on="1"/>
        <pt x="465" y="1342" on="0"/>
        <pt x="263" y="1023" on="0"/>
        <pt x="263" y="441" on="0"/>
        <pt x="451" y="121" on="0"/>
        <pt x="621" y="121" on="1"/>
        <pt x="738" y="121" on="0"/>
        <pt x="825" y="152" on="1"/>
        <pt x="825" y="619" on="1"/>
        <pt x="617" y="619" on="1"/>
        <pt x="617" y="761" on="1"/>
      </contour>
    </TTGlyph>
    <TTGlyph name="H" xMin="150" yMin="0" xMax="921" yMax="1462">
      <contour>
        <pt x="921" y="0" on="1"/>
        <pt x="765" y="0" on="1"/>
        <pt x="765" y="693" on="1"/>
        <pt x="305" y="693" on="1"/>
        <pt x="305" y="0" on="1"/>
        <pt x="150" y="0" on="1"/>
        <pt x="150" y="1462" on="1"/>
        <pt x="305" y="1462" on="1"/>
        <pt x="305" y="835" on="1"/>
        <pt x="765" y="835" on="1"/>
        <pt x="765" y="1462" on="1"/>
        <pt x="921" y="1462" on="1"/>
      </contour>
    </TTGlyph>
    <TTGlyph name="I" xMin="166" yMin="0" xMax="316" yMax="1462">
      <contour>
        <pt x="316" y="0" on="1"/>
        <pt x="166" y="0" on="1"/>
        <pt x="166" y="1462" on="1"/>
        <pt x="316" y="1462" on="1"/>
      </contour>
    </TTGlyph>
    <TTGlyph name="Iacute" xMin="158" yMin="0" xMax="531" yMax="1907">
      <contour>
        <pt x="531" y="1907" on="1"/>
        <pt x="531" y="1888" on="1"/>
        <pt x="502" y="1833" on="0"/>
        <pt x="325" y="1640" on="0"/>
        <pt x="251" y="1579" on="1"/>
        <pt x="158" y="1579" on="1"/>
        <pt x="158" y="1601" on="1"/>
        <pt x="210" y="1670" on="0"/>
        <pt x="313" y="1841" on="0"/>
        <pt x="343" y="1907" on="1"/>
      </contour>
      <contour>
        <pt x="316" y="0" on="1"/>
        <pt x="166" y="0" on="1"/>
        <pt x="166" y="1462" on="1"/>
        <pt x="316" y="1462" on="1"/>
      </contour>
    </TTGlyph>
    <TTGlyph name="Icircumflex" xMin="-34" yMin="0" xMax="516" yMax="1907">
      <contour>
        <pt x="516" y="1579" on="1"/>
        <pt x="430" y="1579" on="1"/>
        <pt x="388" y="1615" on="0"/>
        <pt x="331" y="1679" on="1"/>
        <pt x="241" y="1780" on="1"/>
        <pt x="107" y="1629" on="0"/>
        <pt x="51" y="1579" on="1"/>
        <pt x="-34" y="1579" on="1"/>
        <pt x="-34" y="1600" on="1"/>
        <pt x="107" y="1789" on="0"/>
        <pt x="163" y="1907" on="1"/>
        <pt x="318" y="1907" on="1"/>
        <pt x="339" y="1858" on="0"/>
        <pt x="451" y="1683" on="0"/>
        <pt x="516" y="1600" on="1"/>
      </contour>
      <contour>
        <pt x="316" y="0" on="1"/>
        <pt x="166" y="0" on="1"/>
        <pt x="166" y="1462" on="1"/>
        <pt x="316" y="1462" on="1"/>
      </contour>
    </TTGlyph>
    <TTGlyph name="Idieresis" xMin="-11" yMin="0" xMax="496" yMax="1828">
      <contour>
        <pt x="37" y="1828" on="0"/>
        <pt x="113" y="1828" on="0"/>
        <pt x="160" y="1778" on="0"/>
        <pt x="160" y="1685" on="0"/>
        <pt x="113" y="1633" on="0"/>
        <pt x="37" y="1633" on="0"/>
        <pt x="-11" y="1684" on="0"/>
        <pt x="-11" y="1779" on="0"/>
      </contour>
      <contour>
        <pt x="372" y="1828" on="0"/>
        <pt x="448" y="1828" on="0"/>
        <pt x="496" y="1779" on="0"/>
        <pt x="496" y="1684" on="0"/>
        <pt x="449" y="1633" on="0"/>
        <pt x="373" y="1633" on="0"/>
        <pt x="325" y="1685" on="0"/>
        <pt x="325" y="1778" on="0"/>
      </contour>
      <contour>
        <pt x="316" y="0" on="1"/>
        <pt x="166" y="0" on="1"/>
        <pt x="166" y="1462" on="1"/>
        <pt x="316" y="1462" on="1"/>
      </contour>
    </TTGlyph>
    <TTGlyph name="Igrave" xMin="-39" yMin="0" xMax="335" yMax="1907">
      <contour>
        <pt x="-39" y="1907" on="1"/>
        <pt x="150" y="1907" on="1"/>
        <pt x="179" y="1840" on="0"/>
        <pt x="286" y="1663" on="0"/>
        <pt x="335" y="1602" on="1"/>
        <pt x="335" y="1579" on="1"/>
        <pt x="241" y="1579" on="1"/>
        <pt x="173" y="1635" on="0"/>
        <pt x="83" y="1731" on="1"/>
        <pt x="-6" y="1828" on="0"/>
        <pt x="-39" y="1889" on="1"/>
      </contour>
      <contour>
        <pt x="316" y="0" on="1"/>
        <pt x="166" y="0" on="1"/>
        <pt x="166" y="1462" on="1"/>
        <pt x="316" y="1462" on="1"/>
      </contour>
    </TTGlyph>
    <TTGlyph name="J" xMin="-111" yMin="-387" xMax="298" yMax="1462">
      <contour>
        <pt x="298" y="1462" on="1"/>
        <pt x="298" y="-1" on="1"/>
        <pt x="299" y="-185" on="0"/>
        <pt x="154" y="-386" on="0"/>
        <pt x="26" y="-386" on="1"/>
        <pt x="24" y="-386" on="0"/>
        <pt x="23" y="-386" on="1"/>
        <pt x="-58" y="-386" on="0"/>
        <pt x="-111" y="-361" on="1"/>
        <pt x="-111" y="-222" on="1"/>
        <pt x="-56" y="-242" on="0"/>
        <pt x="77" y="-242" on="0"/>
        <pt x="143" y="-129" on="0"/>
        <pt x="143" y="-7" on="1"/>
        <pt x="143" y="1462" on="1"/>
      </contour>
    </TTGlyph>
    <TTGlyph name="K" xMin="149" yMin="0" xMax="895" yMax="1462">
      <contour>
        <pt x="305" y="0" on="1"/>
        <pt x="149" y="0" on="1"/>
        <pt x="149" y="1462" on="1"/>
        <pt x="305" y="1462" on="1"/>
        <pt x="305" y="704" on="1"/>
        <pt x="352" y="802" on="0"/>
        <pt x="708" y="1462" on="1"/>
        <pt x="875" y="1462" on="1"/>
        <pt x="518" y="822" on="1"/>
        <pt x="569" y="711" on="0"/>
        <pt x="825" y="151" on="0"/>
        <pt x="895" y="0" on="1"/>
        <pt x="726" y="0" on="1"/>
        <pt x="474" y="566" on="0"/>
        <pt x="416" y="694" on="1"/>
        <pt x="305" y="558" on="1"/>
      </contour>
    </TTGlyph>
    <TTGlyph name="L" xMin="150" yMin="0" xMax="706" yMax="1462">
      <contour>
        <pt x="305" y="142" on="1"/>
        <pt x="706" y="142" on="1"/>
        <pt x="706" y="0" on="1"/>
        <pt x="150" y="0" on="1"/>
        <pt x="150" y="1462" on="1"/>
        <pt x="305" y="1462" on="1"/>
      </contour>
    </TTGlyph>
    <TTGlyph name="M" xMin="149" yMin="0" xMax="1314" yMax="1462">
      <contour>
        <pt x="1314" y="0" on="1"/>
        <pt x="1164" y="0" on="1"/>
        <pt x="1164" y="1035" on="1"/>
        <pt x="1164" y="1132" on="0"/>
        <pt x="1175" y="1300" on="1"/>
        <pt x="1167" y="1300" on="1"/>
        <pt x="816" y="0" on="1"/>
        <pt x="644" y="0" on="1"/>
        <pt x="291" y="1302" on="1"/>
        <pt x="282" y="1302" on="1"/>
        <pt x="295" y="1121" on="0"/>
        <pt x="295" y="1037" on="1"/>
        <pt x="295" y="0" on="1"/>
        <pt x="149" y="0" on="1"/>
        <pt x="149" y="1462" on="1"/>
        <pt x="384" y="1462" on="1"/>
        <pt x="673" y="397" on="1"/>
        <pt x="708" y="268" on="0"/>
        <pt x="725" y="164" on="1"/>
        <pt x="733" y="164" on="1"/>
        <pt x="747" y="249" on="0"/>
        <pt x="788" y="395" on="1"/>
        <pt x="1074" y="1462" on="1"/>
        <pt x="1314" y="1462" on="1"/>
      </contour>
    </TTGlyph>
    <TTGlyph name="N" xMin="150" yMin="0" xMax="1004" yMax="1462">
      <contour>
        <pt x="1004" y="0" on="1"/>
        <pt x="810" y="0" on="1"/>
        <pt x="291" y="1228" on="1"/>
        <pt x="281" y="1228" on="1"/>
        <pt x="297" y="1100" on="0"/>
        <pt x="297" y="966" on="1"/>
        <pt x="297" y="0" on="1"/>
        <pt x="150" y="0" on="1"/>
        <pt x="150" y="1462" on="1"/>
        <pt x="345" y="1462" on="1"/>
        <pt x="861" y="248" on="1"/>
        <pt x="868" y="248" on="1"/>
        <pt x="857" y="399" on="0"/>
        <pt x="857" y="514" on="1"/>
        <pt x="857" y="1462" on="1"/>
        <pt x="1004" y="1462" on="1"/>
      </contour>
    </TTGlyph>
    <TTGlyph name="Ntilde" xMin="150" yMin="0" xMax="1004" yMax="1821">
      <contour>
        <pt x="715" y="1580" on="1"/>
        <pt x="681" y="1580" on="0"/>
        <pt x="605" y="1618" on="0"/>
        <pt x="578" y="1640" on="1"/>
        <pt x="505" y="1701" on="0"/>
        <pt x="468" y="1701" on="1"/>
        <pt x="405" y="1701" on="0"/>
        <pt x="386" y="1578" on="1"/>
        <pt x="290" y="1578" on="1"/>
        <pt x="302" y="1695" on="0"/>
        <pt x="395" y="1819" on="0"/>
        <pt x="473" y="1819" on="1"/>
        <pt x="516" y="1819" on="0"/>
        <pt x="610" y="1759" on="0"/>
        <pt x="692" y="1699" on="0"/>
        <pt x="754" y="1699" on="0"/>
        <pt x="788" y="1759" on="0"/>
        <pt x="799" y="1821" on="1"/>
        <pt x="895" y="1821" on="1"/>
        <pt x="885" y="1704" on="0"/>
        <pt x="791" y="1580" on="0"/>
      </contour>
      <contour>
        <pt x="1004" y="0" on="1"/>
        <pt x="810" y="0" on="1"/>
        <pt x="291" y="1228" on="1"/>
        <pt x="281" y="1228" on="1"/>
        <pt x="297" y="1100" on="0"/>
        <pt x="297" y="966" on="1"/>
        <pt x="297" y="0" on="1"/>
        <pt x="150" y="0" on="1"/>
        <pt x="150" y="1462" on="1"/>
        <pt x="345" y="1462" on="1"/>
        <pt x="861" y="248" on="1"/>
        <pt x="868" y="248" on="1"/>
        <pt x="857" y="399" on="0"/>
        <pt x="857" y="514" on="1"/>
        <pt x="857" y="1462" on="1"/>
        <pt x="1004" y="1462" on="1"/>
      </contour>
    </TTGlyph>
    <TTGlyph name="O" xMin="102" yMin="-20" xMax="1013" yMax="1483">
      <contour>
        <pt x="560" y="1483" on="1"/>
        <pt x="779" y="1483" on="0"/>
        <pt x="1013" y="1093" on="0"/>
        <pt x="1013" y="371" on="0"/>
        <pt x="778" y="-20" on="0"/>
        <pt x="334" y="-20" on="0"/>
        <pt x="102" y="371" on="0"/>
        <pt x="102" y="735" on="1"/>
        <pt x="102" y="1483" on="0"/>
      </contour>
      <contour>
        <pt x="560" y="1341" on="1"/>
        <pt x="412" y="1341" on="0"/>
        <pt x="262" y="1032" on="0"/>
        <pt x="262" y="432" on="0"/>
        <pt x="412" y="122" on="0"/>
        <pt x="703" y="122" on="0"/>
        <pt x="853" y="429" on="0"/>
        <pt x="853" y="733" on="1"/>
        <pt x="853" y="1341" on="0"/>
      </contour>
    </TTGlyph>
    <TTGlyph name="OE" xMin="102" yMin="-10" xMax="1209" yMax="1473">
      <contour>
        <pt x="1209" y="0" on="1"/>
        <pt x="766" y="0" on="1"/>
        <pt x="735" y="0" on="0"/>
        <pt x="617" y="-9" on="0"/>
        <pt x="593" y="-10" on="1"/>
        <pt x="350" y="-10" on="0"/>
        <pt x="102" y="368" on="0"/>
        <pt x="102" y="1096" on="0"/>
        <pt x="356" y="1473" on="0"/>
        <pt x="599" y="1473" on="1"/>
        <pt x="650" y="1473" on="0"/>
        <pt x="729" y="1462" on="1"/>
        <pt x="1209" y="1462" on="1"/>
        <pt x="1209" y="1321" on="1"/>
        <pt x="792" y="1321" on="1"/>
        <pt x="792" y="834" on="1"/>
        <pt x="1182" y="834" on="1"/>
        <pt x="1182" y="693" on="1"/>
        <pt x="792" y="693" on="1"/>
        <pt x="792" y="141" on="1"/>
        <pt x="1209" y="141" on="1"/>
      </contour>
      <contour>
        <pt x="601" y="1327" on="1"/>
        <pt x="427" y="1327" on="0"/>
        <pt x="263" y="1044" on="0"/>
        <pt x="263" y="420" on="0"/>
        <pt x="427" y="135" on="0"/>
        <pt x="603" y="135" on="1"/>
        <pt x="626" y="135" on="0"/>
        <pt x="637" y="136" on="1"/>
        <pt x="637" y="1326" on="1"/>
        <pt x="625" y="1327" on="0"/>
      </contour>
    </TTGlyph>
    <TTGlyph name="Oacute" xMin="102" yMin="-20" xMax="1013" yMax="1907">
      <contour>
        <pt x="837" y="1907" on="1"/>
        <pt x="837" y="1888" on="1"/>
        <pt x="808" y="1833" on="0"/>
        <pt x="631" y="1640" on="0"/>
        <pt x="557" y="1579" on="1"/>
        <pt x="464" y="1579" on="1"/>
        <pt x="464" y="1601" on="1"/>
        <pt x="516" y="1670" on="0"/>
        <pt x="619" y="1841" on="0"/>
        <pt x="649" y="1907" on="1"/>
      </contour>
      <contour>
        <pt x="560" y="1483" on="1"/>
        <pt x="779" y="1483" on="0"/>
        <pt x="1013" y="1093" on="0"/>
        <pt x="1013" y="371" on="0"/>
        <pt x="778" y="-20" on="0"/>
        <pt x="334" y="-20" on="0"/>
        <pt x="102" y="371" on="0"/>
        <pt x="102" y="735" on="1"/>
        <pt x="102" y="1483" on="0"/>
      </contour>
      <contour>
        <pt x="560" y="1341" on="1"/>
        <pt x="412" y="1341" on="0"/>
        <pt x="262" y="1032" on="0"/>
        <pt x="262" y="432" on="0"/>
        <pt x="412" y="122" on="0"/>
        <pt x="703" y="122" on="0"/>
        <pt x="853" y="429" on="0"/>
        <pt x="853" y="733" on="1"/>
        <pt x="853" y="1341" on="0"/>
      </contour>
    </TTGlyph>
    <TTGlyph name="Ocircumflex" xMin="102" yMin="-20" xMax="1013" yMax="1907">
      <contour>
        <pt x="831" y="1579" on="1"/>
        <pt x="745" y="1579" on="1"/>
        <pt x="703" y="1615" on="0"/>
        <pt x="646" y="1679" on="1"/>
        <pt x="556" y="1780" on="1"/>
        <pt x="422" y="1629" on="0"/>
        <pt x="366" y="1579" on="1"/>
        <pt x="281" y="1579" on="1"/>
        <pt x="281" y="1600" on="1"/>
        <pt x="422" y="1789" on="0"/>
        <pt x="478" y="1907" on="1"/>
        <pt x="633" y="1907" on="1"/>
        <pt x="654" y="1858" on="0"/>
        <pt x="766" y="1683" on="0"/>
        <pt x="831" y="1600" on="1"/>
      </contour>
      <contour>
        <pt x="560" y="1483" on="1"/>
        <pt x="779" y="1483" on="0"/>
        <pt x="1013" y="1093" on="0"/>
        <pt x="1013" y="371" on="0"/>
        <pt x="778" y="-20" on="0"/>
        <pt x="334" y="-20" on="0"/>
        <pt x="102" y="371" on="0"/>
        <pt x="102" y="735" on="1"/>
        <pt x="102" y="1483" on="0"/>
      </contour>
      <contour>
        <pt x="560" y="1341" on="1"/>
        <pt x="412" y="1341" on="0"/>
        <pt x="262" y="1032" on="0"/>
        <pt x="262" y="432" on="0"/>
        <pt x="412" y="122" on="0"/>
        <pt x="703" y="122" on="0"/>
        <pt x="853" y="429" on="0"/>
        <pt x="853" y="733" on="1"/>
        <pt x="853" y="1341" on="0"/>
      </contour>
    </TTGlyph>
    <TTGlyph name="Odieresis" xMin="102" yMin="-20" xMax="1013" yMax="1828">
      <contour>
        <pt x="358" y="1828" on="0"/>
        <pt x="434" y="1828" on="0"/>
        <pt x="481" y="1778" on="0"/>
        <pt x="481" y="1685" on="0"/>
        <pt x="434" y="1633" on="0"/>
        <pt x="358" y="1633" on="0"/>
        <pt x="310" y="1684" on="0"/>
        <pt x="310" y="1779" on="0"/>
      </contour>
      <contour>
        <pt x="693" y="1828" on="0"/>
        <pt x="769" y="1828" on="0"/>
        <pt x="817" y="1779" on="0"/>
        <pt x="817" y="1684" on="0"/>
        <pt x="770" y="1633" on="0"/>
        <pt x="694" y="1633" on="0"/>
        <pt x="646" y="1685" on="0"/>
        <pt x="646" y="1778" on="0"/>
      </contour>
      <contour>
        <pt x="560" y="1483" on="1"/>
        <pt x="779" y="1483" on="0"/>
        <pt x="1013" y="1093" on="0"/>
        <pt x="1013" y="371" on="0"/>
        <pt x="778" y="-20" on="0"/>
        <pt x="334" y="-20" on="0"/>
        <pt x="102" y="371" on="0"/>
        <pt x="102" y="735" on="1"/>
        <pt x="102" y="1483" on="0"/>
      </contour>
      <contour>
        <pt x="560" y="1341" on="1"/>
        <pt x="412" y="1341" on="0"/>
        <pt x="262" y="1032" on="0"/>
        <pt x="262" y="432" on="0"/>
        <pt x="412" y="122" on="0"/>
        <pt x="703" y="122" on="0"/>
        <pt x="853" y="429" on="0"/>
        <pt x="853" y="733" on="1"/>
        <pt x="853" y="1341" on="0"/>
      </contour>
    </TTGlyph>
    <TTGlyph name="Ograve" xMin="102" yMin="-20" xMax="1013" yMax="1907">
      <contour>
        <pt x="270" y="1907" on="1"/>
        <pt x="459" y="1907" on="1"/>
        <pt x="488" y="1840" on="0"/>
        <pt x="595" y="1663" on="0"/>
        <pt x="644" y="1602" on="1"/>
        <pt x="644" y="1579" on="1"/>
        <pt x="550" y="1579" on="1"/>
        <pt x="482" y="1635" on="0"/>
        <pt x="392" y="1731" on="1"/>
        <pt x="303" y="1828" on="0"/>
        <pt x="270" y="1889" on="1"/>
      </contour>
      <contour>
        <pt x="560" y="1483" on="1"/>
        <pt x="779" y="1483" on="0"/>
        <pt x="1013" y="1093" on="0"/>
        <pt x="1013" y="371" on="0"/>
        <pt x="778" y="-20" on="0"/>
        <pt x="334" y="-20" on="0"/>
        <pt x="102" y="371" on="0"/>
        <pt x="102" y="735" on="1"/>
        <pt x="102" y="1483" on="0"/>
      </contour>
      <contour>
        <pt x="560" y="1341" on="1"/>
        <pt x="412" y="1341" on="0"/>
        <pt x="262" y="1032" on="0"/>
        <pt x="262" y="432" on="0"/>
        <pt x="412" y="122" on="0"/>
        <pt x="703" y="122" on="0"/>
        <pt x="853" y="429" on="0"/>
        <pt x="853" y="733" on="1"/>
        <pt x="853" y="1341" on="0"/>
      </contour>
    </TTGlyph>
    <TTGlyph name="Oslash" xMin="102" yMin="-96" xMax="1022" yMax="1547">
      <contour>
        <pt x="906" y="1269" on="1"/>
        <pt x="1013" y="1080" on="0"/>
        <pt x="1013" y="371" on="0"/>
        <pt x="778" y="-20" on="0"/>
        <pt x="557" y="-20" on="1"/>
        <pt x="406" y="-20" on="0"/>
        <pt x="304" y="75" on="1"/>
        <pt x="217" y="-96" on="1"/>
        <pt x="108" y="-46" on="1"/>
        <pt x="145" y="26" on="0"/>
        <pt x="219" y="174" on="1"/>
        <pt x="102" y="368" on="0"/>
        <pt x="102" y="735" on="1"/>
        <pt x="102" y="1483" on="0"/>
        <pt x="560" y="1483" on="1"/>
        <pt x="714" y="1483" on="0"/>
        <pt x="824" y="1373" on="1"/>
        <pt x="912" y="1547" on="1"/>
        <pt x="914" y="1546" on="0"/>
        <pt x="1022" y="1495" on="1"/>
      </contour>
      <contour>
        <pt x="560" y="1341" on="1"/>
        <pt x="412" y="1341" on="0"/>
        <pt x="262" y="1032" on="0"/>
        <pt x="262" y="733" on="1"/>
        <pt x="262" y="489" on="0"/>
        <pt x="308" y="350" on="1"/>
        <pt x="755" y="1232" on="1"/>
        <pt x="685" y="1341" on="0"/>
      </contour>
      <contour>
        <pt x="557" y="122" on="1"/>
        <pt x="851" y="122" on="0"/>
        <pt x="851" y="739" on="1"/>
        <pt x="851" y="948" on="0"/>
        <pt x="816" y="1086" on="1"/>
        <pt x="374" y="213" on="1"/>
        <pt x="441" y="122" on="0"/>
      </contour>
    </TTGlyph>
    <TTGlyph name="Otilde" xMin="102" yMin="-20" xMax="1013" yMax="1821">
      <contour>
        <pt x="690" y="1580" on="1"/>
        <pt x="656" y="1580" on="0"/>
        <pt x="580" y="1618" on="0"/>
        <pt x="553" y="1640" on="1"/>
        <pt x="480" y="1701" on="0"/>
        <pt x="443" y="1701" on="1"/>
        <pt x="380" y="1701" on="0"/>
        <pt x="361" y="1578" on="1"/>
        <pt x="265" y="1578" on="1"/>
        <pt x="277" y="1695" on="0"/>
        <pt x="370" y="1819" on="0"/>
        <pt x="448" y="1819" on="1"/>
        <pt x="491" y="1819" on="0"/>
        <pt x="585" y="1759" on="0"/>
        <pt x="667" y="1699" on="0"/>
        <pt x="729" y="1699" on="0"/>
        <pt x="763" y="1759" on="0"/>
        <pt x="774" y="1821" on="1"/>
        <pt x="870" y="1821" on="1"/>
        <pt x="860" y="1704" on="0"/>
        <pt x="766" y="1580" on="0"/>
      </contour>
      <contour>
        <pt x="560" y="1483" on="1"/>
        <pt x="779" y="1483" on="0"/>
        <pt x="1013" y="1093" on="0"/>
        <pt x="1013" y="371" on="0"/>
        <pt x="778" y="-20" on="0"/>
        <pt x="334" y="-20" on="0"/>
        <pt x="102" y="371" on="0"/>
        <pt x="102" y="735" on="1"/>
        <pt x="102" y="1483" on="0"/>
      </contour>
      <contour>
        <pt x="560" y="1341" on="1"/>
        <pt x="412" y="1341" on="0"/>
        <pt x="262" y="1032" on="0"/>
        <pt x="262" y="432" on="0"/>
        <pt x="412" y="122" on="0"/>
        <pt x="703" y="122" on="0"/>
        <pt x="853" y="429" on="0"/>
        <pt x="853" y="733" on="1"/>
        <pt x="853" y="1341" on="0"/>
      </contour>
    </TTGlyph>
    <TTGlyph name="P" xMin="149" yMin="0" xMax="822" yMax="1462">
      <contour>
        <pt x="149" y="1462" on="1"/>
        <pt x="406" y="1462" on="1"/>
        <pt x="619" y="1462" on="0"/>
        <pt x="822" y="1252" on="0"/>
        <pt x="822" y="1032" on="1"/>
        <pt x="822" y="579" on="0"/>
        <pt x="397" y="579" on="1"/>
        <pt x="305" y="579" on="1"/>
        <pt x="305" y="0" on="1"/>
        <pt x="149" y="0" on="1"/>
      </contour>
      <contour>
        <pt x="305" y="1324" on="1"/>
        <pt x="305" y="717" on="1"/>
        <pt x="388" y="717" on="1"/>
        <pt x="535" y="717" on="0"/>
        <pt x="665" y="862" on="0"/>
        <pt x="665" y="1183" on="0"/>
        <pt x="536" y="1324" on="0"/>
        <pt x="400" y="1324" on="1"/>
      </contour>
    </TTGlyph>
    <TTGlyph name="Q" xMin="102" yMin="-348" xMax="1013" yMax="1483">
      <contour>
        <pt x="557" y="-20" on="1"/>
        <pt x="334" y="-20" on="0"/>
        <pt x="102" y="371" on="0"/>
        <pt x="102" y="735" on="1"/>
        <pt x="102" y="1483" on="0"/>
        <pt x="560" y="1483" on="1"/>
        <pt x="779" y="1483" on="0"/>
        <pt x="1013" y="1093" on="0"/>
        <pt x="1013" y="733" on="1"/>
        <pt x="1013" y="455" on="0"/>
        <pt x="875" y="93" on="0"/>
        <pt x="743" y="23" on="1"/>
        <pt x="974" y="-348" on="1"/>
        <pt x="787" y="-348" on="1"/>
        <pt x="596" y="-17" on="1"/>
        <pt x="589" y="-16" on="0"/>
        <pt x="563" y="-20" on="0"/>
      </contour>
      <contour>
        <pt x="560" y="1341" on="1"/>
        <pt x="412" y="1341" on="0"/>
        <pt x="262" y="1032" on="0"/>
        <pt x="262" y="432" on="0"/>
        <pt x="412" y="122" on="0"/>
        <pt x="703" y="122" on="0"/>
        <pt x="853" y="429" on="0"/>
        <pt x="853" y="733" on="1"/>
        <pt x="853" y="1341" on="0"/>
      </contour>
    </TTGlyph>
    <TTGlyph name="R" xMin="150" yMin="0" xMax="891" yMax="1462">
      <contour>
        <pt x="150" y="1462" on="1"/>
        <pt x="401" y="1462" on="1"/>
        <pt x="618" y="1462" on="0"/>
        <pt x="823" y="1258" on="0"/>
        <pt x="823" y="1049" on="1"/>
        <pt x="823" y="899" on="0"/>
        <pt x="718" y="705" on="0"/>
        <pt x="604" y="655" on="1"/>
        <pt x="891" y="0" on="1"/>
        <pt x="721" y="0" on="1"/>
        <pt x="462" y="616" on="1"/>
        <pt x="305" y="616" on="1"/>
        <pt x="305" y="0" on="1"/>
        <pt x="150" y="0" on="1"/>
      </contour>
      <contour>
        <pt x="305" y="1320" on="1"/>
        <pt x="305" y="753" on="1"/>
        <pt x="420" y="753" on="1"/>
        <pt x="541" y="753" on="0"/>
        <pt x="665" y="899" on="0"/>
        <pt x="665" y="1190" on="0"/>
        <pt x="539" y="1320" on="0"/>
        <pt x="401" y="1320" on="1"/>
      </contour>
    </TTGlyph>
    <TTGlyph name="S" xMin="80" yMin="-20" xMax="745" yMax="1483">
      <contour>
        <pt x="367" y="121" on="1"/>
        <pt x="467" y="121" on="0"/>
        <pt x="590" y="265" on="0"/>
        <pt x="590" y="472" on="0"/>
        <pt x="480" y="611" on="0"/>
        <pt x="380" y="672" on="1"/>
        <pt x="221" y="761" on="0"/>
        <pt x="92" y="945" on="0"/>
        <pt x="92" y="1269" on="0"/>
        <pt x="291" y="1483" on="0"/>
        <pt x="607" y="1483" on="0"/>
        <pt x="730" y="1411" on="1"/>
        <pt x="711" y="1366" on="0"/>
        <pt x="675" y="1276" on="1"/>
        <pt x="559" y="1338" on="0"/>
        <pt x="362" y="1338" on="0"/>
        <pt x="245" y="1207" on="0"/>
        <pt x="245" y="999" on="0"/>
        <pt x="331" y="876" on="0"/>
        <pt x="469" y="799" on="1"/>
        <pt x="615" y="720" on="0"/>
        <pt x="745" y="526" on="0"/>
        <pt x="745" y="389" on="1"/>
        <pt x="745" y="202" on="0"/>
        <pt x="542" y="-20" on="0"/>
        <pt x="198" y="-20" on="0"/>
        <pt x="80" y="38" on="1"/>
        <pt x="80" y="198" on="1"/>
        <pt x="140" y="163" on="0"/>
        <pt x="296" y="121" on="0"/>
      </contour>
    </TTGlyph>
    <TTGlyph name="Scaron" xMin="80" yMin="-20" xMax="745" yMax="1907">
      <contour>
        <pt x="713" y="1907" on="1"/>
        <pt x="713" y="1885" on="1"/>
        <pt x="653" y="1807" on="0"/>
        <pt x="539" y="1629" on="0"/>
        <pt x="515" y="1579" on="1"/>
        <pt x="360" y="1579" on="1"/>
        <pt x="295" y="1709" on="0"/>
        <pt x="163" y="1885" on="1"/>
        <pt x="163" y="1907" on="1"/>
        <pt x="248" y="1907" on="1"/>
        <pt x="303" y="1859" on="0"/>
        <pt x="440" y="1705" on="1"/>
        <pt x="560" y="1851" on="0"/>
        <pt x="627" y="1907" on="1"/>
      </contour>
      <contour>
        <pt x="367" y="121" on="1"/>
        <pt x="467" y="121" on="0"/>
        <pt x="590" y="265" on="0"/>
        <pt x="590" y="472" on="0"/>
        <pt x="480" y="611" on="0"/>
        <pt x="380" y="672" on="1"/>
        <pt x="221" y="761" on="0"/>
        <pt x="92" y="945" on="0"/>
        <pt x="92" y="1269" on="0"/>
        <pt x="291" y="1483" on="0"/>
        <pt x="607" y="1483" on="0"/>
        <pt x="730" y="1411" on="1"/>
        <pt x="711" y="1366" on="0"/>
        <pt x="675" y="1276" on="1"/>
        <pt x="559" y="1338" on="0"/>
        <pt x="362" y="1338" on="0"/>
        <pt x="245" y="1207" on="0"/>
        <pt x="245" y="999" on="0"/>
        <pt x="331" y="876" on="0"/>
        <pt x="469" y="799" on="1"/>
        <pt x="615" y="720" on="0"/>
        <pt x="745" y="526" on="0"/>
        <pt x="745" y="389" on="1"/>
        <pt x="745" y="202" on="0"/>
        <pt x="542" y="-20" on="0"/>
        <pt x="198" y="-20" on="0"/>
        <pt x="80" y="38" on="1"/>
        <pt x="80" y="198" on="1"/>
        <pt x="140" y="163" on="0"/>
        <pt x="296" y="121" on="0"/>
      </contour>
    </TTGlyph>
    <TTGlyph name="T" xMin="18" yMin="0" xMax="748" yMax="1462">
      <contour>
        <pt x="748" y="1320" on="1"/>
        <pt x="461" y="1320" on="1"/>
        <pt x="461" y="0" on="1"/>
        <pt x="306" y="0" on="1"/>
        <pt x="306" y="1320" on="1"/>
        <pt x="18" y="1320" on="1"/>
        <pt x="18" y="1462" on="1"/>
        <pt x="748" y="1462" on="1"/>
      </contour>
    </TTGlyph>
    <TTGlyph name="Thorn" xMin="149" yMin="0" xMax="822" yMax="1462">
      <contour>
        <pt x="305" y="1204" on="1"/>
        <pt x="405" y="1204" on="1"/>
        <pt x="618" y="1204" on="0"/>
        <pt x="822" y="997" on="0"/>
        <pt x="822" y="554" on="0"/>
        <pt x="608" y="321" on="0"/>
        <pt x="399" y="321" on="1"/>
        <pt x="305" y="321" on="1"/>
        <pt x="305" y="0" on="1"/>
        <pt x="149" y="0" on="1"/>
        <pt x="149" y="1462" on="1"/>
        <pt x="305" y="1462" on="1"/>
      </contour>
      <contour>
        <pt x="305" y="1062" on="1"/>
        <pt x="305" y="461" on="1"/>
        <pt x="388" y="461" on="1"/>
        <pt x="536" y="461" on="0"/>
        <pt x="665" y="603" on="0"/>
        <pt x="665" y="922" on="0"/>
        <pt x="538" y="1062" on="0"/>
        <pt x="400" y="1062" on="1"/>
      </contour>
    </TTGlyph>
    <TTGlyph name="U" xMin="139" yMin="-20" xMax="918" yMax="1462">
      <contour>
        <pt x="918" y="1462" on="1"/>
        <pt x="918" y="489" on="1"/>
        <pt x="918" y="237" on="0"/>
        <pt x="722" y="-20" on="0"/>
        <pt x="339" y="-20" on="0"/>
        <pt x="139" y="242" on="0"/>
        <pt x="139" y="490" on="1"/>
        <pt x="139" y="1462" on="1"/>
        <pt x="295" y="1462" on="1"/>
        <pt x="295" y="475" on="1"/>
        <pt x="295" y="302" on="0"/>
        <pt x="417" y="123" on="0"/>
        <pt x="645" y="123" on="0"/>
        <pt x="763" y="303" on="0"/>
        <pt x="763" y="476" on="1"/>
        <pt x="763" y="1462" on="1"/>
      </contour>
    </TTGlyph>
    <TTGlyph name="Uacute" xMin="139" yMin="-20" xMax="918" yMax="1907">
      <contour>
        <pt x="802" y="1907" on="1"/>
        <pt x="802" y="1888" on="1"/>
        <pt x="773" y="1833" on="0"/>
        <pt x="596" y="1640" on="0"/>
        <pt x="522" y="1579" on="1"/>
        <pt x="429" y="1579" on="1"/>
        <pt x="429" y="1601" on="1"/>
        <pt x="481" y="1670" on="0"/>
        <pt x="584" y="1841" on="0"/>
        <pt x="614" y="1907" on="1"/>
      </contour>
      <contour>
        <pt x="918" y="1462" on="1"/>
        <pt x="918" y="489" on="1"/>
        <pt x="918" y="237" on="0"/>
        <pt x="722" y="-20" on="0"/>
        <pt x="339" y="-20" on="0"/>
        <pt x="139" y="242" on="0"/>
        <pt x="139" y="490" on="1"/>
        <pt x="139" y="1462" on="1"/>
        <pt x="295" y="1462" on="1"/>
        <pt x="295" y="475" on="1"/>
        <pt x="295" y="302" on="0"/>
        <pt x="417" y="123" on="0"/>
        <pt x="645" y="123" on="0"/>
        <pt x="763" y="303" on="0"/>
        <pt x="763" y="476" on="1"/>
        <pt x="763" y="1462" on="1"/>
      </contour>
    </TTGlyph>
    <TTGlyph name="Ucircumflex" xMin="139" yMin="-20" xMax="918" yMax="1907">
      <contour>
        <pt x="804" y="1579" on="1"/>
        <pt x="718" y="1579" on="1"/>
        <pt x="676" y="1615" on="0"/>
        <pt x="619" y="1679" on="1"/>
        <pt x="529" y="1780" on="1"/>
        <pt x="395" y="1629" on="0"/>
        <pt x="339" y="1579" on="1"/>
        <pt x="254" y="1579" on="1"/>
        <pt x="254" y="1600" on="1"/>
        <pt x="395" y="1789" on="0"/>
        <pt x="451" y="1907" on="1"/>
        <pt x="606" y="1907" on="1"/>
        <pt x="627" y="1858" on="0"/>
        <pt x="739" y="1683" on="0"/>
        <pt x="804" y="1600" on="1"/>
      </contour>
      <contour>
        <pt x="918" y="1462" on="1"/>
        <pt x="918" y="489" on="1"/>
        <pt x="918" y="237" on="0"/>
        <pt x="722" y="-20" on="0"/>
        <pt x="339" y="-20" on="0"/>
        <pt x="139" y="242" on="0"/>
        <pt x="139" y="490" on="1"/>
        <pt x="139" y="1462" on="1"/>
        <pt x="295" y="1462" on="1"/>
        <pt x="295" y="475" on="1"/>
        <pt x="295" y="302" on="0"/>
        <pt x="417" y="123" on="0"/>
        <pt x="645" y="123" on="0"/>
        <pt x="763" y="303" on="0"/>
        <pt x="763" y="476" on="1"/>
        <pt x="763" y="1462" on="1"/>
      </contour>
    </TTGlyph>
    <TTGlyph name="Udieresis" xMin="139" yMin="-20" xMax="918" yMax="1828">
      <contour>
        <pt x="324" y="1828" on="0"/>
        <pt x="400" y="1828" on="0"/>
        <pt x="447" y="1778" on="0"/>
        <pt x="447" y="1685" on="0"/>
        <pt x="400" y="1633" on="0"/>
        <pt x="324" y="1633" on="0"/>
        <pt x="276" y="1684" on="0"/>
        <pt x="276" y="1779" on="0"/>
      </contour>
      <contour>
        <pt x="659" y="1828" on="0"/>
        <pt x="735" y="1828" on="0"/>
        <pt x="783" y="1779" on="0"/>
        <pt x="783" y="1684" on="0"/>
        <pt x="736" y="1633" on="0"/>
        <pt x="660" y="1633" on="0"/>
        <pt x="612" y="1685" on="0"/>
        <pt x="612" y="1778" on="0"/>
      </contour>
      <contour>
        <pt x="918" y="1462" on="1"/>
        <pt x="918" y="489" on="1"/>
        <pt x="918" y="237" on="0"/>
        <pt x="722" y="-20" on="0"/>
        <pt x="339" y="-20" on="0"/>
        <pt x="139" y="242" on="0"/>
        <pt x="139" y="490" on="1"/>
        <pt x="139" y="1462" on="1"/>
        <pt x="295" y="1462" on="1"/>
        <pt x="295" y="475" on="1"/>
        <pt x="295" y="302" on="0"/>
        <pt x="417" y="123" on="0"/>
        <pt x="645" y="123" on="0"/>
        <pt x="763" y="303" on="0"/>
        <pt x="763" y="476" on="1"/>
        <pt x="763" y="1462" on="1"/>
      </contour>
    </TTGlyph>
    <TTGlyph name="Ugrave" xMin="139" yMin="-20" xMax="918" yMax="1907">
      <contour>
        <pt x="255" y="1907" on="1"/>
        <pt x="444" y="1907" on="1"/>
        <pt x="473" y="1840" on="0"/>
        <pt x="580" y="1663" on="0"/>
        <pt x="629" y="1602" on="1"/>
        <pt x="629" y="1579" on="1"/>
        <pt x="535" y="1579" on="1"/>
        <pt x="467" y="1635" on="0"/>
        <pt x="377" y="1731" on="1"/>
        <pt x="288" y="1828" on="0"/>
        <pt x="255" y="1889" on="1"/>
      </contour>
      <contour>
        <pt x="918" y="1462" on="1"/>
        <pt x="918" y="489" on="1"/>
        <pt x="918" y="237" on="0"/>
        <pt x="722" y="-20" on="0"/>
        <pt x="339" y="-20" on="0"/>
        <pt x="139" y="242" on="0"/>
        <pt x="139" y="490" on="1"/>
        <pt x="139" y="1462" on="1"/>
        <pt x="295" y="1462" on="1"/>
        <pt x="295" y="475" on="1"/>
        <pt x="295" y="302" on="0"/>
        <pt x="417" y="123" on="0"/>
        <pt x="645" y="123" on="0"/>
        <pt x="763" y="303" on="0"/>
        <pt x="763" y="476" on="1"/>
        <pt x="763" y="1462" on="1"/>
      </contour>
    </TTGlyph>
    <TTGlyph name="V" xMin="0" yMin="0" xMax="875" yMax="1462">
      <contour>
        <pt x="530" y="0" on="1"/>
        <pt x="343" y="0" on="1"/>
        <pt x="255" y="373" on="0"/>
        <pt x="0" y="1462" on="1"/>
        <pt x="158" y="1462" on="1"/>
        <pt x="278" y="926" on="0"/>
        <pt x="381" y="478" on="1"/>
        <pt x="414" y="328" on="0"/>
        <pt x="434" y="160" on="1"/>
        <pt x="453" y="303" on="0"/>
        <pt x="475" y="408" on="1"/>
        <pt x="717" y="1462" on="1"/>
        <pt x="875" y="1462" on="1"/>
      </contour>
    </TTGlyph>
    <TTGlyph name="W" xMin="12" yMin="0" xMax="1456" yMax="1462">
      <contour>
        <pt x="1456" y="1462" on="1"/>
        <pt x="1398" y="1178" on="0"/>
        <pt x="1161" y="0" on="1"/>
        <pt x="969" y="0" on="1"/>
        <pt x="822" y="741" on="1"/>
        <pt x="817" y="766" on="0"/>
        <pt x="794" y="874" on="0"/>
        <pt x="787" y="909" on="0"/>
        <pt x="770" y="999" on="0"/>
        <pt x="760" y="1071" on="0"/>
        <pt x="743" y="1191" on="0"/>
        <pt x="733" y="1268" on="1"/>
        <pt x="721" y="1180" on="1"/>
        <pt x="706" y="1085" on="1"/>
        <pt x="664" y="855" on="0"/>
        <pt x="644" y="741" on="1"/>
        <pt x="500" y="0" on="1"/>
        <pt x="310" y="0" on="1"/>
        <pt x="92" y="1074" on="0"/>
        <pt x="12" y="1462" on="1"/>
        <pt x="169" y="1462" on="1"/>
        <pt x="295" y="811" on="0"/>
        <pt x="337" y="578" on="1"/>
        <pt x="403" y="205" on="0"/>
        <pt x="409" y="156" on="1"/>
        <pt x="440" y="382" on="0"/>
        <pt x="458" y="479" on="1"/>
        <pt x="651" y="1462" on="1"/>
        <pt x="819" y="1462" on="1"/>
        <pt x="984" y="625" on="1"/>
        <pt x="1027" y="405" on="0"/>
        <pt x="1061" y="155" on="1"/>
        <pt x="1091" y="397" on="0"/>
        <pt x="1116" y="515" on="1"/>
        <pt x="1300" y="1462" on="1"/>
      </contour>
    </TTGlyph>
    <TTGlyph name="X" xMin="13" yMin="0" xMax="785" yMax="1462">
      <contour>
        <pt x="502" y="752" on="1"/>
        <pt x="785" y="0" on="1"/>
        <pt x="623" y="0" on="1"/>
        <pt x="407" y="623" on="1"/>
        <pt x="173" y="0" on="1"/>
        <pt x="13" y="0" on="1"/>
        <pt x="329" y="771" on="1"/>
        <pt x="50" y="1462" on="1"/>
        <pt x="210" y="1462" on="1"/>
        <pt x="419" y="896" on="1"/>
        <pt x="615" y="1462" on="1"/>
        <pt x="776" y="1462" on="1"/>
      </contour>
    </TTGlyph>
    <TTGlyph name="Y" xMin="0" yMin="0" xMax="777" yMax="1462">
      <contour>
        <pt x="465" y="0" on="1"/>
        <pt x="310" y="0" on="1"/>
        <pt x="310" y="572" on="1"/>
        <pt x="0" y="1462" on="1"/>
        <pt x="164" y="1462" on="1"/>
        <pt x="389" y="766" on="1"/>
        <pt x="613" y="1462" on="1"/>
        <pt x="777" y="1462" on="1"/>
        <pt x="465" y="576" on="1"/>
      </contour>
    </TTGlyph>
    <TTGlyph name="Yacute" xMin="0" yMin="0" xMax="777" yMax="1907">
      <contour>
        <pt x="669" y="1907" on="1"/>
        <pt x="669" y="1888" on="1"/>
        <pt x="640" y="1833" on="0"/>
        <pt x="463" y="1640" on="0"/>
        <pt x="389" y="1579" on="1"/>
        <pt x="296" y="1579" on="1"/>
        <pt x="296" y="1601" on="1"/>
        <pt x="348" y="1670" on="0"/>
        <pt x="451" y="1841" on="0"/>
        <pt x="481" y="1907" on="1"/>
      </contour>
      <contour>
        <pt x="465" y="0" on="1"/>
        <pt x="310" y="0" on="1"/>
        <pt x="310" y="572" on="1"/>
        <pt x="0" y="1462" on="1"/>
        <pt x="164" y="1462" on="1"/>
        <pt x="389" y="766" on="1"/>
        <pt x="613" y="1462" on="1"/>
        <pt x="777" y="1462" on="1"/>
        <pt x="465" y="576" on="1"/>
      </contour>
    </TTGlyph>
    <TTGlyph name="Ydieresis" xMin="0" yMin="0" xMax="777" yMax="1828">
      <contour>
        <pt x="185" y="1828" on="0"/>
        <pt x="261" y="1828" on="0"/>
        <pt x="308" y="1778" on="0"/>
        <pt x="308" y="1685" on="0"/>
        <pt x="261" y="1633" on="0"/>
        <pt x="185" y="1633" on="0"/>
        <pt x="137" y="1684" on="0"/>
        <pt x="137" y="1779" on="0"/>
      </contour>
      <contour>
        <pt x="520" y="1828" on="0"/>
        <pt x="596" y="1828" on="0"/>
        <pt x="644" y="1779" on="0"/>
        <pt x="644" y="1684" on="0"/>
        <pt x="597" y="1633" on="0"/>
        <pt x="521" y="1633" on="0"/>
        <pt x="473" y="1685" on="0"/>
        <pt x="473" y="1778" on="0"/>
      </contour>
      <contour>
        <pt x="465" y="0" on="1"/>
        <pt x="310" y="0" on="1"/>
        <pt x="310" y="572" on="1"/>
        <pt x="0" y="1462" on="1"/>
        <pt x="164" y="1462" on="1"/>
        <pt x="389" y="766" on="1"/>
        <pt x="613" y="1462" on="1"/>
        <pt x="777" y="1462" on="1"/>
        <pt x="465" y="576" on="1"/>
      </contour>
    </TTGlyph>
    <TTGlyph name="Z" xMin="52" yMin="0" xMax="679" yMax="1462">
      <contour>
        <pt x="679" y="142" on="1"/>
        <pt x="679" y="0" on="1"/>
        <pt x="52" y="0" on="1"/>
        <pt x="52" y="122" on="1"/>
        <pt x="491" y="1319" on="1"/>
        <pt x="61" y="1319" on="1"/>
        <pt x="61" y="1462" on="1"/>
        <pt x="666" y="1462" on="1"/>
        <pt x="666" y="1339" on="1"/>
        <pt x="223" y="142" on="1"/>
      </contour>
    </TTGlyph>
    <TTGlyph name="Zcaron" xMin="52" yMin="0" xMax="679" yMax="1907">
      <contour>
        <pt x="637" y="1907" on="1"/>
        <pt x="637" y="1885" on="1"/>
        <pt x="577" y="1807" on="0"/>
        <pt x="463" y="1629" on="0"/>
        <pt x="439" y="1579" on="1"/>
        <pt x="284" y="1579" on="1"/>
        <pt x="219" y="1709" on="0"/>
        <pt x="87" y="1885" on="1"/>
        <pt x="87" y="1907" on="1"/>
        <pt x="172" y="1907" on="1"/>
        <pt x="227" y="1859" on="0"/>
        <pt x="364" y="1705" on="1"/>
        <pt x="484" y="1851" on="0"/>
        <pt x="551" y="1907" on="1"/>
      </contour>
      <contour>
        <pt x="679" y="142" on="1"/>
        <pt x="679" y="0" on="1"/>
        <pt x="52" y="0" on="1"/>
        <pt x="52" y="122" on="1"/>
        <pt x="491" y="1319" on="1"/>
        <pt x="61" y="1319" on="1"/>
        <pt x="61" y="1462" on="1"/>
        <pt x="666" y="1462" on="1"/>
        <pt x="666" y="1339" on="1"/>
        <pt x="223" y="142" on="1"/>
      </contour>
    </TTGlyph>
    <TTGlyph name="a" xMin="70" yMin="-18" xMax="712" yMax="1116">
      <contour>
        <pt x="204" y="923" on="1"/>
        <pt x="146" y="1034" on="1"/>
        <pt x="276" y="1116" on="0"/>
        <pt x="570" y="1116" on="0"/>
        <pt x="712" y="934" on="0"/>
        <pt x="712" y="741" on="1"/>
        <pt x="712" y="0" on="1"/>
        <pt x="596" y="0" on="1"/>
        <pt x="570" y="152" on="1"/>
        <pt x="565" y="152" on="1"/>
        <pt x="483" y="-18" on="0"/>
        <pt x="324" y="-18" on="1"/>
        <pt x="204" y="-18" on="0"/>
        <pt x="70" y="150" on="0"/>
        <pt x="70" y="464" on="0"/>
        <pt x="258" y="643" on="0"/>
        <pt x="434" y="651" on="1"/>
        <pt x="561" y="657" on="1"/>
        <pt x="561" y="743" on="1"/>
        <pt x="561" y="871" on="0"/>
        <pt x="489" y="990" on="0"/>
        <pt x="311" y="990" on="0"/>
      </contour>
      <contour>
        <pt x="561" y="440" on="1"/>
        <pt x="561" y="546" on="1"/>
        <pt x="527" y="545" on="0"/>
        <pt x="459" y="541" on="1"/>
        <pt x="341" y="535" on="0"/>
        <pt x="228" y="416" on="0"/>
        <pt x="228" y="301" on="1"/>
        <pt x="228" y="102" on="0"/>
        <pt x="365" y="102" on="1"/>
        <pt x="457" y="102" on="0"/>
        <pt x="561" y="281" on="0"/>
      </contour>
    </TTGlyph>
    <TTGlyph name="aacute" xMin="70" yMin="-18" xMax="712" yMax="1569">
      <contour>
        <pt x="687" y="1569" on="1"/>
        <pt x="687" y="1550" on="1"/>
        <pt x="658" y="1495" on="0"/>
        <pt x="481" y="1302" on="0"/>
        <pt x="407" y="1241" on="1"/>
        <pt x="314" y="1241" on="1"/>
        <pt x="314" y="1263" on="1"/>
        <pt x="366" y="1332" on="0"/>
        <pt x="469" y="1503" on="0"/>
        <pt x="499" y="1569" on="1"/>
      </contour>
      <contour>
        <pt x="204" y="923" on="1"/>
        <pt x="146" y="1034" on="1"/>
        <pt x="276" y="1116" on="0"/>
        <pt x="570" y="1116" on="0"/>
        <pt x="712" y="934" on="0"/>
        <pt x="712" y="741" on="1"/>
        <pt x="712" y="0" on="1"/>
        <pt x="596" y="0" on="1"/>
        <pt x="570" y="152" on="1"/>
        <pt x="565" y="152" on="1"/>
        <pt x="483" y="-18" on="0"/>
        <pt x="324" y="-18" on="1"/>
        <pt x="204" y="-18" on="0"/>
        <pt x="70" y="150" on="0"/>
        <pt x="70" y="464" on="0"/>
        <pt x="258" y="643" on="0"/>
        <pt x="434" y="651" on="1"/>
        <pt x="561" y="657" on="1"/>
        <pt x="561" y="743" on="1"/>
        <pt x="561" y="871" on="0"/>
        <pt x="489" y="990" on="0"/>
        <pt x="311" y="990" on="0"/>
      </contour>
      <contour>
        <pt x="561" y="440" on="1"/>
        <pt x="561" y="546" on="1"/>
        <pt x="527" y="545" on="0"/>
        <pt x="459" y="541" on="1"/>
        <pt x="341" y="535" on="0"/>
        <pt x="228" y="416" on="0"/>
        <pt x="228" y="301" on="1"/>
        <pt x="228" y="102" on="0"/>
        <pt x="365" y="102" on="1"/>
        <pt x="457" y="102" on="0"/>
        <pt x="561" y="281" on="0"/>
      </contour>
    </TTGlyph>
    <TTGlyph name="acircumflex" xMin="70" yMin="-18" xMax="712" yMax="1570">
      <contour>
        <pt x="696" y="1242" on="1"/>
        <pt x="610" y="1242" on="1"/>
        <pt x="568" y="1278" on="0"/>
        <pt x="511" y="1342" on="1"/>
        <pt x="421" y="1443" on="1"/>
        <pt x="287" y="1292" on="0"/>
        <pt x="231" y="1242" on="1"/>
        <pt x="146" y="1242" on="1"/>
        <pt x="146" y="1263" on="1"/>
        <pt x="287" y="1452" on="0"/>
        <pt x="343" y="1570" on="1"/>
        <pt x="498" y="1570" on="1"/>
        <pt x="519" y="1521" on="0"/>
        <pt x="631" y="1346" on="0"/>
        <pt x="696" y="1263" on="1"/>
      </contour>
      <contour>
        <pt x="204" y="923" on="1"/>
        <pt x="146" y="1034" on="1"/>
        <pt x="276" y="1116" on="0"/>
        <pt x="570" y="1116" on="0"/>
        <pt x="712" y="934" on="0"/>
        <pt x="712" y="741" on="1"/>
        <pt x="712" y="0" on="1"/>
        <pt x="596" y="0" on="1"/>
        <pt x="570" y="152" on="1"/>
        <pt x="565" y="152" on="1"/>
        <pt x="483" y="-18" on="0"/>
        <pt x="324" y="-18" on="1"/>
        <pt x="204" y="-18" on="0"/>
        <pt x="70" y="150" on="0"/>
        <pt x="70" y="464" on="0"/>
        <pt x="258" y="643" on="0"/>
        <pt x="434" y="651" on="1"/>
        <pt x="561" y="657" on="1"/>
        <pt x="561" y="743" on="1"/>
        <pt x="561" y="871" on="0"/>
        <pt x="489" y="990" on="0"/>
        <pt x="311" y="990" on="0"/>
      </contour>
      <contour>
        <pt x="561" y="440" on="1"/>
        <pt x="561" y="546" on="1"/>
        <pt x="527" y="545" on="0"/>
        <pt x="459" y="541" on="1"/>
        <pt x="341" y="535" on="0"/>
        <pt x="228" y="416" on="0"/>
        <pt x="228" y="301" on="1"/>
        <pt x="228" y="102" on="0"/>
        <pt x="365" y="102" on="1"/>
        <pt x="457" y="102" on="0"/>
        <pt x="561" y="281" on="0"/>
      </contour>
    </TTGlyph>
    <TTGlyph name="acute" xMin="393" yMin="1241" xMax="766" yMax="1569">
      <contour>
        <pt x="766" y="1569" on="1"/>
        <pt x="766" y="1550" on="1"/>
        <pt x="737" y="1495" on="0"/>
        <pt x="560" y="1302" on="0"/>
        <pt x="486" y="1241" on="1"/>
        <pt x="393" y="1241" on="1"/>
        <pt x="393" y="1263" on="1"/>
        <pt x="445" y="1332" on="0"/>
        <pt x="548" y="1503" on="0"/>
        <pt x="578" y="1569" on="1"/>
      </contour>
    </TTGlyph>
    <TTGlyph name="adieresis" xMin="70" yMin="-18" xMax="712" yMax="1490">
      <contour>
        <pt x="213" y="1490" on="0"/>
        <pt x="289" y="1490" on="0"/>
        <pt x="336" y="1440" on="0"/>
        <pt x="336" y="1347" on="0"/>
        <pt x="289" y="1295" on="0"/>
        <pt x="213" y="1295" on="0"/>
        <pt x="165" y="1346" on="0"/>
        <pt x="165" y="1441" on="0"/>
      </contour>
      <contour>
        <pt x="548" y="1490" on="0"/>
        <pt x="624" y="1490" on="0"/>
        <pt x="672" y="1441" on="0"/>
        <pt x="672" y="1346" on="0"/>
        <pt x="625" y="1295" on="0"/>
        <pt x="549" y="1295" on="0"/>
        <pt x="501" y="1347" on="0"/>
        <pt x="501" y="1440" on="0"/>
      </contour>
      <contour>
        <pt x="204" y="923" on="1"/>
        <pt x="146" y="1034" on="1"/>
        <pt x="276" y="1116" on="0"/>
        <pt x="570" y="1116" on="0"/>
        <pt x="712" y="934" on="0"/>
        <pt x="712" y="741" on="1"/>
        <pt x="712" y="0" on="1"/>
        <pt x="596" y="0" on="1"/>
        <pt x="570" y="152" on="1"/>
        <pt x="565" y="152" on="1"/>
        <pt x="483" y="-18" on="0"/>
        <pt x="324" y="-18" on="1"/>
        <pt x="204" y="-18" on="0"/>
        <pt x="70" y="150" on="0"/>
        <pt x="70" y="464" on="0"/>
        <pt x="258" y="643" on="0"/>
        <pt x="434" y="651" on="1"/>
        <pt x="561" y="657" on="1"/>
        <pt x="561" y="743" on="1"/>
        <pt x="561" y="871" on="0"/>
        <pt x="489" y="990" on="0"/>
        <pt x="311" y="990" on="0"/>
      </contour>
      <contour>
        <pt x="561" y="440" on="1"/>
        <pt x="561" y="546" on="1"/>
        <pt x="527" y="545" on="0"/>
        <pt x="459" y="541" on="1"/>
        <pt x="341" y="535" on="0"/>
        <pt x="228" y="416" on="0"/>
        <pt x="228" y="301" on="1"/>
        <pt x="228" y="102" on="0"/>
        <pt x="365" y="102" on="1"/>
        <pt x="457" y="102" on="0"/>
        <pt x="561" y="281" on="0"/>
      </contour>
    </TTGlyph>
    <TTGlyph name="ae" xMin="70" yMin="-20" xMax="1235" yMax="1115">
      <contour>
        <pt x="204" y="923" on="1"/>
        <pt x="146" y="1034" on="1"/>
        <pt x="276" y="1114" on="0"/>
        <pt x="414" y="1114" on="1"/>
        <pt x="590" y="1114" on="0"/>
        <pt x="661" y="970" on="1"/>
        <pt x="749" y="1115" on="0"/>
        <pt x="1060" y="1115" on="0"/>
        <pt x="1235" y="855" on="0"/>
        <pt x="1235" y="631" on="1"/>
        <pt x="1235" y="525" on="1"/>
        <pt x="714" y="525" on="1"/>
        <pt x="723" y="108" on="0"/>
        <pt x="960" y="108" on="1"/>
        <pt x="1081" y="108" on="0"/>
        <pt x="1196" y="180" on="1"/>
        <pt x="1196" y="48" on="1"/>
        <pt x="1086" y="-20" on="0"/>
        <pt x="945" y="-20" on="1"/>
        <pt x="836" y="-20" on="0"/>
        <pt x="672" y="94" on="0"/>
        <pt x="627" y="200" on="1"/>
        <pt x="578" y="85" on="0"/>
        <pt x="434" y="-20" on="0"/>
        <pt x="332" y="-20" on="1"/>
        <pt x="208" y="-20" on="0"/>
        <pt x="70" y="151" on="0"/>
        <pt x="70" y="464" on="0"/>
        <pt x="258" y="643" on="0"/>
        <pt x="434" y="651" on="1"/>
        <pt x="561" y="657" on="1"/>
        <pt x="561" y="743" on="1"/>
        <pt x="561" y="867" on="0"/>
        <pt x="486" y="990" on="0"/>
        <pt x="407" y="990" on="1"/>
        <pt x="311" y="990" on="0"/>
      </contour>
      <contour>
        <pt x="1087" y="646" on="1"/>
        <pt x="1087" y="803" on="0"/>
        <pt x="990" y="988" on="0"/>
        <pt x="907" y="988" on="1"/>
        <pt x="736" y="988" on="0"/>
        <pt x="717" y="646" on="1"/>
      </contour>
      <contour>
        <pt x="561" y="440" on="1"/>
        <pt x="561" y="546" on="1"/>
        <pt x="527" y="545" on="0"/>
        <pt x="459" y="541" on="1"/>
        <pt x="340" y="535" on="0"/>
        <pt x="228" y="420" on="0"/>
        <pt x="228" y="301" on="1"/>
        <pt x="228" y="102" on="0"/>
        <pt x="365" y="102" on="1"/>
        <pt x="457" y="102" on="0"/>
        <pt x="561" y="281" on="0"/>
      </contour>
    </TTGlyph>
    <TTGlyph name="agrave" xMin="70" yMin="-18" xMax="712" yMax="1569">
      <contour>
        <pt x="157" y="1569" on="1"/>
        <pt x="346" y="1569" on="1"/>
        <pt x="375" y="1502" on="0"/>
        <pt x="482" y="1325" on="0"/>
        <pt x="531" y="1264" on="1"/>
        <pt x="531" y="1241" on="1"/>
        <pt x="437" y="1241" on="1"/>
        <pt x="369" y="1297" on="0"/>
        <pt x="279" y="1393" on="1"/>
        <pt x="190" y="1490" on="0"/>
        <pt x="157" y="1551" on="1"/>
      </contour>
      <contour>
        <pt x="204" y="923" on="1"/>
        <pt x="146" y="1034" on="1"/>
        <pt x="276" y="1116" on="0"/>
        <pt x="570" y="1116" on="0"/>
        <pt x="712" y="934" on="0"/>
        <pt x="712" y="741" on="1"/>
        <pt x="712" y="0" on="1"/>
        <pt x="596" y="0" on="1"/>
        <pt x="570" y="152" on="1"/>
        <pt x="565" y="152" on="1"/>
        <pt x="483" y="-18" on="0"/>
        <pt x="324" y="-18" on="1"/>
        <pt x="204" y="-18" on="0"/>
        <pt x="70" y="150" on="0"/>
        <pt x="70" y="464" on="0"/>
        <pt x="258" y="643" on="0"/>
        <pt x="434" y="651" on="1"/>
        <pt x="561" y="657" on="1"/>
        <pt x="561" y="743" on="1"/>
        <pt x="561" y="871" on="0"/>
        <pt x="489" y="990" on="0"/>
        <pt x="311" y="990" on="0"/>
      </contour>
      <contour>
        <pt x="561" y="440" on="1"/>
        <pt x="561" y="546" on="1"/>
        <pt x="527" y="545" on="0"/>
        <pt x="459" y="541" on="1"/>
        <pt x="341" y="535" on="0"/>
        <pt x="228" y="416" on="0"/>
        <pt x="228" y="301" on="1"/>
        <pt x="228" y="102" on="0"/>
        <pt x="365" y="102" on="1"/>
        <pt x="457" y="102" on="0"/>
        <pt x="561" y="281" on="0"/>
      </contour>
    </TTGlyph>
    <TTGlyph name="alefdageshhb" xMin="68" yMin="0" xMax="787" yMax="1290">
      <contour>
        <pt x="783" y="1290" on="1"/>
        <pt x="783" y="823" on="1"/>
        <pt x="783" y="763" on="0"/>
        <pt x="771" y="669" on="0"/>
        <pt x="753" y="614" on="1"/>
        <pt x="715" y="499" on="0"/>
        <pt x="594" y="447" on="1"/>
        <pt x="629" y="364" on="0"/>
        <pt x="761" y="61" on="0"/>
        <pt x="787" y="0" on="1"/>
        <pt x="616" y="0" on="1"/>
        <pt x="320" y="718" on="1"/>
        <pt x="265" y="678" on="0"/>
        <pt x="225" y="535" on="0"/>
        <pt x="225" y="417" on="1"/>
        <pt x="225" y="0" on="1"/>
        <pt x="76" y="0" on="1"/>
        <pt x="76" y="455" on="1"/>
        <pt x="76" y="669" on="0"/>
        <pt x="164" y="770" on="1"/>
        <pt x="204" y="815" on="0"/>
        <pt x="264" y="843" on="1"/>
        <pt x="68" y="1290" on="1"/>
        <pt x="238" y="1290" on="1"/>
        <pt x="433" y="803" on="1"/>
        <pt x="538" y="572" on="1"/>
        <pt x="594" y="608" on="0"/>
        <pt x="634" y="741" on="0"/>
        <pt x="634" y="861" on="1"/>
        <pt x="634" y="1290" on="1"/>
      </contour>
      <contour>
        <pt x="353" y="327" on="1"/>
        <pt x="426" y="327" on="0"/>
        <pt x="426" y="154" on="0"/>
        <pt x="353" y="154" on="1"/>
        <pt x="283" y="154" on="0"/>
        <pt x="283" y="327" on="0"/>
      </contour>
    </TTGlyph>
    <TTGlyph name="alefpatahhb" xMin="68" yMin="-308" xMax="787" yMax="1290">
      <contour>
        <pt x="783" y="1290" on="1"/>
        <pt x="783" y="823" on="1"/>
        <pt x="783" y="763" on="0"/>
        <pt x="771" y="669" on="0"/>
        <pt x="753" y="614" on="1"/>
        <pt x="715" y="499" on="0"/>
        <pt x="594" y="447" on="1"/>
        <pt x="629" y="364" on="0"/>
        <pt x="761" y="61" on="0"/>
        <pt x="787" y="0" on="1"/>
        <pt x="616" y="0" on="1"/>
        <pt x="320" y="718" on="1"/>
        <pt x="265" y="678" on="0"/>
        <pt x="225" y="535" on="0"/>
        <pt x="225" y="417" on="1"/>
        <pt x="225" y="0" on="1"/>
        <pt x="76" y="0" on="1"/>
        <pt x="76" y="455" on="1"/>
        <pt x="76" y="669" on="0"/>
        <pt x="164" y="770" on="1"/>
        <pt x="204" y="815" on="0"/>
        <pt x="264" y="843" on="1"/>
        <pt x="68" y="1290" on="1"/>
        <pt x="238" y="1290" on="1"/>
        <pt x="433" y="803" on="1"/>
        <pt x="538" y="572" on="1"/>
        <pt x="594" y="608" on="0"/>
        <pt x="634" y="741" on="0"/>
        <pt x="634" y="861" on="1"/>
        <pt x="634" y="1290" on="1"/>
      </contour>
      <contour>
        <pt x="636" y="-308" on="1"/>
        <pt x="226" y="-308" on="1"/>
        <pt x="226" y="-226" on="1"/>
        <pt x="636" y="-226" on="1"/>
      </contour>
    </TTGlyph>
    <TTGlyph name="alefqamatshb" xMin="68" yMin="-540" xMax="787" yMax="1290">
      <contour>
        <pt x="783" y="1290" on="1"/>
        <pt x="783" y="823" on="1"/>
        <pt x="783" y="763" on="0"/>
        <pt x="771" y="669" on="0"/>
        <pt x="753" y="614" on="1"/>
        <pt x="715" y="499" on="0"/>
        <pt x="594" y="447" on="1"/>
        <pt x="629" y="364" on="0"/>
        <pt x="761" y="61" on="0"/>
        <pt x="787" y="0" on="1"/>
        <pt x="616" y="0" on="1"/>
        <pt x="320" y="718" on="1"/>
        <pt x="265" y="678" on="0"/>
        <pt x="225" y="535" on="0"/>
        <pt x="225" y="417" on="1"/>
        <pt x="225" y="0" on="1"/>
        <pt x="76" y="0" on="1"/>
        <pt x="76" y="455" on="1"/>
        <pt x="76" y="669" on="0"/>
        <pt x="164" y="770" on="1"/>
        <pt x="204" y="815" on="0"/>
        <pt x="264" y="843" on="1"/>
        <pt x="68" y="1290" on="1"/>
        <pt x="238" y="1290" on="1"/>
        <pt x="433" y="803" on="1"/>
        <pt x="538" y="572" on="1"/>
        <pt x="594" y="608" on="0"/>
        <pt x="634" y="741" on="0"/>
        <pt x="634" y="861" on="1"/>
        <pt x="634" y="1290" on="1"/>
      </contour>
      <contour>
        <pt x="631" y="-308" on="1"/>
        <pt x="467" y="-308" on="1"/>
        <pt x="467" y="-540" on="1"/>
        <pt x="385" y="-540" on="1"/>
        <pt x="385" y="-308" on="1"/>
        <pt x="221" y="-308" on="1"/>
        <pt x="221" y="-226" on="1"/>
        <pt x="631" y="-226" on="1"/>
      </contour>
    </TTGlyph>
    <TTGlyph name="ampersand" xMin="63" yMin="-20" xMax="946" yMax="1483">
      <contour>
        <pt x="372" y="-20" on="1"/>
        <pt x="227" y="-20" on="0"/>
        <pt x="63" y="184" on="0"/>
        <pt x="63" y="367" on="1"/>
        <pt x="63" y="499" on="0"/>
        <pt x="166" y="692" on="0"/>
        <pt x="290" y="794" on="1"/>
        <pt x="217" y="922" on="0"/>
        <pt x="169" y="1072" on="0"/>
        <pt x="169" y="1165" on="1"/>
        <pt x="169" y="1311" on="0"/>
        <pt x="301" y="1483" on="0"/>
        <pt x="523" y="1483" on="0"/>
        <pt x="655" y="1320" on="0"/>
        <pt x="655" y="1052" on="0"/>
        <pt x="568" y="862" on="0"/>
        <pt x="466" y="771" on="1"/>
        <pt x="511" y="697" on="0"/>
        <pt x="676" y="419" on="0"/>
        <pt x="692" y="393" on="1"/>
        <pt x="748" y="507" on="0"/>
        <pt x="758" y="685" on="1"/>
        <pt x="898" y="685" on="1"/>
        <pt x="891" y="579" on="0"/>
        <pt x="823" y="342" on="0"/>
        <pt x="778" y="263" on="1"/>
        <pt x="946" y="0" on="1"/>
        <pt x="774" y="0" on="1"/>
        <pt x="759" y="25" on="0"/>
        <pt x="700" y="127" on="0"/>
        <pt x="685" y="152" on="1"/>
        <pt x="615" y="58" on="0"/>
        <pt x="470" y="-20" on="0"/>
      </contour>
      <contour>
        <pt x="411" y="1348" on="1"/>
        <pt x="365" y="1348" on="0"/>
        <pt x="314" y="1257" on="0"/>
        <pt x="314" y="1097" on="0"/>
        <pt x="361" y="937" on="0"/>
        <pt x="400" y="877" on="1"/>
        <pt x="461" y="935" on="0"/>
        <pt x="511" y="1077" on="0"/>
        <pt x="511" y="1173" on="1"/>
        <pt x="511" y="1348" on="0"/>
      </contour>
      <contour>
        <pt x="278" y="615" on="0"/>
        <pt x="216" y="476" on="0"/>
        <pt x="216" y="254" on="0"/>
        <pt x="308" y="121" on="0"/>
        <pt x="387" y="121" on="1"/>
        <pt x="512" y="121" on="0"/>
        <pt x="609" y="271" on="1"/>
        <pt x="359" y="690" on="1"/>
      </contour>
    </TTGlyph>
    <TTGlyph name="aring" xMin="70" yMin="-18" xMax="712" yMax="1651">
      <contour>
        <pt x="206" y="1541" on="0"/>
        <pt x="324" y="1651" on="0"/>
        <pt x="514" y="1651" on="0"/>
        <pt x="636" y="1540" on="0"/>
        <pt x="636" y="1358" on="0"/>
        <pt x="518" y="1247" on="0"/>
        <pt x="323" y="1247" on="0"/>
        <pt x="206" y="1355" on="0"/>
      </contour>
      <contour>
        <pt x="534" y="1499" on="0"/>
        <pt x="473" y="1560" on="0"/>
        <pt x="370" y="1560" on="0"/>
        <pt x="306" y="1498" on="0"/>
        <pt x="306" y="1397" on="0"/>
        <pt x="365" y="1337" on="0"/>
        <pt x="471" y="1337" on="0"/>
        <pt x="534" y="1398" on="0"/>
      </contour>
      <contour>
        <pt x="204" y="923" on="1"/>
        <pt x="146" y="1034" on="1"/>
        <pt x="276" y="1116" on="0"/>
        <pt x="570" y="1116" on="0"/>
        <pt x="712" y="934" on="0"/>
        <pt x="712" y="741" on="1"/>
        <pt x="712" y="0" on="1"/>
        <pt x="596" y="0" on="1"/>
        <pt x="570" y="152" on="1"/>
        <pt x="565" y="152" on="1"/>
        <pt x="483" y="-18" on="0"/>
        <pt x="324" y="-18" on="1"/>
        <pt x="204" y="-18" on="0"/>
        <pt x="70" y="150" on="0"/>
        <pt x="70" y="464" on="0"/>
        <pt x="258" y="643" on="0"/>
        <pt x="434" y="651" on="1"/>
        <pt x="561" y="657" on="1"/>
        <pt x="561" y="743" on="1"/>
        <pt x="561" y="871" on="0"/>
        <pt x="489" y="990" on="0"/>
        <pt x="311" y="990" on="0"/>
      </contour>
      <contour>
        <pt x="561" y="440" on="1"/>
        <pt x="561" y="546" on="1"/>
        <pt x="527" y="545" on="0"/>
        <pt x="459" y="541" on="1"/>
        <pt x="341" y="535" on="0"/>
        <pt x="228" y="416" on="0"/>
        <pt x="228" y="301" on="1"/>
        <pt x="228" y="102" on="0"/>
        <pt x="365" y="102" on="1"/>
        <pt x="457" y="102" on="0"/>
        <pt x="561" y="281" on="0"/>
      </contour>
    </TTGlyph>
    <TTGlyph name="asciicircum" xMin="29" yMin="681" xMax="880" yMax="1463">
      <contour>
        <pt x="880" y="681" on="1"/>
        <pt x="737" y="681" on="1"/>
        <pt x="448" y="1295" on="1"/>
        <pt x="170" y="681" on="1"/>
        <pt x="29" y="681" on="1"/>
        <pt x="400" y="1463" on="1"/>
        <pt x="490" y="1463" on="1"/>
      </contour>
    </TTGlyph>
    <TTGlyph name="asciitilde" xMin="112" yMin="603" xMax="788" yMax="847">
      <contour>
        <pt x="599" y="603" on="1"/>
        <pt x="539" y="603" on="0"/>
        <pt x="474" y="631" on="1"/>
        <pt x="463" y="635" on="0"/>
        <pt x="329" y="702" on="0"/>
        <pt x="291" y="711" on="1"/>
        <pt x="213" y="711" on="0"/>
        <pt x="126" y="642" on="1"/>
        <pt x="114" y="632" on="0"/>
        <pt x="112" y="631" on="1"/>
        <pt x="112" y="772" on="1"/>
        <pt x="140" y="797" on="0"/>
        <pt x="242" y="840" on="0"/>
        <pt x="283" y="840" on="1"/>
        <pt x="317" y="837" on="0"/>
        <pt x="355" y="824" on="0"/>
        <pt x="369" y="820" on="0"/>
        <pt x="396" y="808" on="0"/>
        <pt x="407" y="804" on="0"/>
        <pt x="436" y="790" on="0"/>
        <pt x="444" y="785" on="0"/>
        <pt x="476" y="770" on="0"/>
        <pt x="479" y="768" on="1"/>
        <pt x="553" y="729" on="0"/>
        <pt x="605" y="729" on="1"/>
        <pt x="698" y="729" on="0"/>
        <pt x="788" y="847" on="1"/>
        <pt x="788" y="709" on="1"/>
        <pt x="711" y="603" on="0"/>
      </contour>
    </TTGlyph>
    <TTGlyph name="asterisk" xMin="80" yMin="896" xMax="733" yMax="1556">
      <contour>
        <pt x="456" y="1288" on="1"/>
        <pt x="713" y="1354" on="1"/>
        <pt x="733" y="1208" on="1"/>
        <pt x="487" y="1197" on="1"/>
        <pt x="653" y="964" on="1"/>
        <pt x="522" y="898" on="1"/>
        <pt x="407" y="1142" on="1"/>
        <pt x="290" y="896" on="1"/>
        <pt x="161" y="964" on="1"/>
        <pt x="321" y="1197" on="1"/>
        <pt x="80" y="1208" on="1"/>
        <pt x="104" y="1353" on="1"/>
        <pt x="357" y="1288" on="1"/>
        <pt x="327" y="1556" on="1"/>
        <pt x="487" y="1556" on="1"/>
      </contour>
    </TTGlyph>
    <TTGlyph name="at" xMin="98" yMin="-176" xMax="1222" yMax="1474">
      <contour>
        <pt x="634" y="-176" on="1"/>
        <pt x="380" y="-176" on="0"/>
        <pt x="98" y="218" on="0"/>
        <pt x="98" y="580" on="1"/>
        <pt x="98" y="992" on="0"/>
        <pt x="426" y="1474" on="0"/>
        <pt x="699" y="1474" on="1"/>
        <pt x="860" y="1474" on="0"/>
        <pt x="1098" y="1288" on="0"/>
        <pt x="1222" y="956" on="0"/>
        <pt x="1222" y="487" on="0"/>
        <pt x="1092" y="231" on="0"/>
        <pt x="968" y="231" on="1"/>
        <pt x="815" y="231" on="0"/>
        <pt x="801" y="415" on="1"/>
        <pt x="792" y="415" on="1"/>
        <pt x="769" y="322" on="0"/>
        <pt x="684" y="231" on="0"/>
        <pt x="618" y="231" on="1"/>
        <pt x="518" y="231" on="0"/>
        <pt x="407" y="418" on="0"/>
        <pt x="407" y="593" on="1"/>
        <pt x="407" y="821" on="0"/>
        <pt x="563" y="1071" on="0"/>
        <pt x="703" y="1071" on="1"/>
        <pt x="801" y="1071" on="0"/>
        <pt x="897" y="1038" on="1"/>
        <pt x="877" y="564" on="1"/>
        <pt x="877" y="511" on="1"/>
        <pt x="877" y="426" on="0"/>
        <pt x="923" y="351" on="0"/>
        <pt x="969" y="351" on="1"/>
        <pt x="1090" y="351" on="0"/>
        <pt x="1090" y="743" on="1"/>
        <pt x="1090" y="1023" on="0"/>
        <pt x="878" y="1355" on="0"/>
        <pt x="700" y="1355" on="1"/>
        <pt x="557" y="1355" on="0"/>
        <pt x="341" y="1160" on="0"/>
        <pt x="228" y="818" on="0"/>
        <pt x="228" y="598" on="1"/>
        <pt x="228" y="289" on="0"/>
        <pt x="445" y="-59" on="0"/>
        <pt x="639" y="-59" on="1"/>
        <pt x="787" y="-59" on="0"/>
        <pt x="910" y="16" on="1"/>
        <pt x="910" y="-106" on="1"/>
        <pt x="789" y="-176" on="0"/>
      </contour>
      <contour>
        <pt x="692" y="960" on="1"/>
        <pt x="621" y="960" on="0"/>
        <pt x="542" y="767" on="0"/>
        <pt x="542" y="590" on="1"/>
        <pt x="542" y="351" on="0"/>
        <pt x="641" y="351" on="1"/>
        <pt x="687" y="351" on="0"/>
        <pt x="737" y="506" on="0"/>
        <pt x="746" y="671" on="1"/>
        <pt x="761" y="951" on="1"/>
        <pt x="730" y="960" on="0"/>
      </contour>
    </TTGlyph>
    <TTGlyph name="atilde" xMin="70" yMin="-18" xMax="736" yMax="1483">
      <contour>
        <pt x="556" y="1242" on="1"/>
        <pt x="522" y="1242" on="0"/>
        <pt x="446" y="1280" on="0"/>
        <pt x="419" y="1302" on="1"/>
        <pt x="346" y="1363" on="0"/>
        <pt x="309" y="1363" on="1"/>
        <pt x="246" y="1363" on="0"/>
        <pt x="227" y="1240" on="1"/>
        <pt x="131" y="1240" on="1"/>
        <pt x="143" y="1357" on="0"/>
        <pt x="236" y="1481" on="0"/>
        <pt x="314" y="1481" on="1"/>
        <pt x="357" y="1481" on="0"/>
        <pt x="451" y="1421" on="0"/>
        <pt x="533" y="1361" on="0"/>
        <pt x="595" y="1361" on="0"/>
        <pt x="629" y="1421" on="0"/>
        <pt x="640" y="1483" on="1"/>
        <pt x="736" y="1483" on="1"/>
        <pt x="726" y="1366" on="0"/>
        <pt x="632" y="1242" on="0"/>
      </contour>
      <contour>
        <pt x="204" y="923" on="1"/>
        <pt x="146" y="1034" on="1"/>
        <pt x="276" y="1116" on="0"/>
        <pt x="570" y="1116" on="0"/>
        <pt x="712" y="934" on="0"/>
        <pt x="712" y="741" on="1"/>
        <pt x="712" y="0" on="1"/>
        <pt x="596" y="0" on="1"/>
        <pt x="570" y="152" on="1"/>
        <pt x="565" y="152" on="1"/>
        <pt x="483" y="-18" on="0"/>
        <pt x="324" y="-18" on="1"/>
        <pt x="204" y="-18" on="0"/>
        <pt x="70" y="150" on="0"/>
        <pt x="70" y="464" on="0"/>
        <pt x="258" y="643" on="0"/>
        <pt x="434" y="651" on="1"/>
        <pt x="561" y="657" on="1"/>
        <pt x="561" y="743" on="1"/>
        <pt x="561" y="871" on="0"/>
        <pt x="489" y="990" on="0"/>
        <pt x="311" y="990" on="0"/>
      </contour>
      <contour>
        <pt x="561" y="440" on="1"/>
        <pt x="561" y="546" on="1"/>
        <pt x="527" y="545" on="0"/>
        <pt x="459" y="541" on="1"/>
        <pt x="341" y="535" on="0"/>
        <pt x="228" y="416" on="0"/>
        <pt x="228" y="301" on="1"/>
        <pt x="228" y="102" on="0"/>
        <pt x="365" y="102" on="1"/>
        <pt x="457" y="102" on="0"/>
        <pt x="561" y="281" on="0"/>
      </contour>
    </TTGlyph>
    <TTGlyph name="b" xMin="134" yMin="-20" xMax="846" yMax="1556">
      <contour>
        <pt x="285" y="1096" on="1"/>
        <pt x="278" y="950" on="1"/>
        <pt x="288" y="950" on="1"/>
        <pt x="375" y="1114" on="0"/>
        <pt x="680" y="1114" on="0"/>
        <pt x="846" y="826" on="0"/>
        <pt x="846" y="273" on="0"/>
        <pt x="681" y="-20" on="0"/>
        <pt x="374" y="-20" on="0"/>
        <pt x="285" y="142" on="1"/>
        <pt x="274" y="142" on="1"/>
        <pt x="266" y="87" on="0"/>
        <pt x="251" y="0" on="1"/>
        <pt x="134" y="0" on="1"/>
        <pt x="134" y="1556" on="1"/>
        <pt x="285" y="1556" on="1"/>
      </contour>
      <contour>
        <pt x="285" y="559" on="1"/>
        <pt x="285" y="533" on="1"/>
        <pt x="285" y="319" on="0"/>
        <pt x="387" y="113" on="0"/>
        <pt x="594" y="113" on="0"/>
        <pt x="690" y="328" on="0"/>
        <pt x="690" y="767" on="0"/>
        <pt x="594" y="980" on="0"/>
        <pt x="383" y="980" on="0"/>
        <pt x="285" y="786" on="0"/>
      </contour>
    </TTGlyph>
    <TTGlyph name="backslash" xMin="39" yMin="0" xMax="721" yMax="1462">
      <contour>
        <pt x="721" y="0" on="1"/>
        <pt x="568" y="0" on="1"/>
        <pt x="39" y="1462" on="1"/>
        <pt x="188" y="1462" on="1"/>
      </contour>
    </TTGlyph>
    <TTGlyph name="bar" xMin="379" yMin="-485" xMax="511" yMax="1554">
      <contour>
        <pt x="511" y="-485" on="1"/>
        <pt x="379" y="-485" on="1"/>
        <pt x="379" y="1554" on="1"/>
        <pt x="511" y="1554" on="1"/>
      </contour>
    </TTGlyph>
    <TTGlyph name="betdageshhb" xMin="93" yMin="0" xMax="778" yMax="1310">
      <contour>
        <pt x="93" y="1298" on="1"/>
        <pt x="200" y="1310" on="0"/>
        <pt x="407" y="1310" on="0"/>
        <pt x="535" y="1274" on="0"/>
        <pt x="614" y="1212" on="0"/>
        <pt x="660" y="1110" on="0"/>
        <pt x="676" y="997" on="0"/>
        <pt x="676" y="918" on="1"/>
        <pt x="676" y="127" on="1"/>
        <pt x="778" y="127" on="1"/>
        <pt x="778" y="0" on="1"/>
        <pt x="94" y="0" on="1"/>
        <pt x="94" y="127" on="1"/>
        <pt x="524" y="127" on="1"/>
        <pt x="524" y="918" on="1"/>
        <pt x="524" y="1120" on="0"/>
        <pt x="432" y="1160" on="1"/>
        <pt x="387" y="1180" on="0"/>
        <pt x="320" y="1180" on="1"/>
        <pt x="195" y="1180" on="0"/>
        <pt x="120" y="1170" on="1"/>
        <pt x="93" y="1167" on="1"/>
      </contour>
      <contour>
        <pt x="293" y="732" on="1"/>
        <pt x="366" y="732" on="0"/>
        <pt x="366" y="559" on="0"/>
        <pt x="293" y="559" on="1"/>
        <pt x="223" y="559" on="0"/>
        <pt x="223" y="732" on="0"/>
      </contour>
    </TTGlyph>
    <TTGlyph name="braceleft" xMin="81" yMin="-324" xMax="656" yMax="1462">
      <contour>
        <pt x="452" y="1133" on="1"/>
        <pt x="452" y="821" on="1"/>
        <pt x="451" y="710" on="0"/>
        <pt x="352" y="593" on="0"/>
        <pt x="245" y="573" on="1"/>
        <pt x="245" y="564" on="1"/>
        <pt x="352" y="545" on="0"/>
        <pt x="452" y="428" on="0"/>
        <pt x="452" y="320" on="1"/>
        <pt x="452" y="30" on="1"/>
        <pt x="452" y="-90" on="0"/>
        <pt x="542" y="-199" on="0"/>
        <pt x="656" y="-200" on="1"/>
        <pt x="656" y="-324" on="1"/>
        <pt x="477" y="-320" on="0"/>
        <pt x="306" y="-168" on="0"/>
        <pt x="304" y="-16" on="1"/>
        <pt x="304" y="304" on="1"/>
        <pt x="304" y="415" on="0"/>
        <pt x="203" y="509" on="0"/>
        <pt x="81" y="509" on="1"/>
        <pt x="81" y="629" on="1"/>
        <pt x="201" y="629" on="0"/>
        <pt x="304" y="715" on="0"/>
        <pt x="304" y="829" on="1"/>
        <pt x="304" y="1155" on="1"/>
        <pt x="304" y="1307" on="0"/>
        <pt x="479" y="1458" on="0"/>
        <pt x="656" y="1462" on="1"/>
        <pt x="656" y="1338" on="1"/>
        <pt x="550" y="1337" on="0"/>
        <pt x="452" y="1238" on="0"/>
      </contour>
    </TTGlyph>
    <TTGlyph name="braceright" xMin="80" yMin="-324" xMax="656" yMax="1462">
      <contour>
        <pt x="433" y="1155" on="1"/>
        <pt x="433" y="829" on="1"/>
        <pt x="433" y="719" on="0"/>
        <pt x="534" y="629" on="0"/>
        <pt x="656" y="629" on="1"/>
        <pt x="656" y="509" on="1"/>
        <pt x="541" y="509" on="0"/>
        <pt x="433" y="424" on="0"/>
        <pt x="433" y="304" on="1"/>
        <pt x="433" y="-16" on="1"/>
        <pt x="433" y="-316" on="0"/>
        <pt x="80" y="-324" on="1"/>
        <pt x="80" y="-200" on="1"/>
        <pt x="188" y="-199" on="0"/>
        <pt x="286" y="-98" on="0"/>
        <pt x="286" y="5" on="1"/>
        <pt x="286" y="319" on="1"/>
        <pt x="286" y="428" on="0"/>
        <pt x="385" y="544" on="0"/>
        <pt x="492" y="564" on="1"/>
        <pt x="492" y="573" on="1"/>
        <pt x="386" y="592" on="0"/>
        <pt x="286" y="710" on="0"/>
        <pt x="286" y="821" on="1"/>
        <pt x="286" y="1133" on="1"/>
        <pt x="286" y="1237" on="0"/>
        <pt x="188" y="1337" on="0"/>
        <pt x="80" y="1338" on="1"/>
        <pt x="80" y="1462" on="1"/>
        <pt x="433" y="1453" on="0"/>
      </contour>
    </TTGlyph>
    <TTGlyph name="bracketleft" xMin="160" yMin="-324" xMax="581" yMax="1462">
      <contour>
        <pt x="581" y="1336" on="1"/>
        <pt x="305" y="1336" on="1"/>
        <pt x="305" y="-197" on="1"/>
        <pt x="581" y="-197" on="1"/>
        <pt x="581" y="-324" on="1"/>
        <pt x="160" y="-324" on="1"/>
        <pt x="160" y="1462" on="1"/>
        <pt x="581" y="1462" on="1"/>
      </contour>
    </TTGlyph>
    <TTGlyph name="bracketright" xMin="65" yMin="-324" xMax="486" yMax="1462">
      <contour>
        <pt x="486" y="-324" on="1"/>
        <pt x="65" y="-324" on="1"/>
        <pt x="65" y="-197" on="1"/>
        <pt x="342" y="-197" on="1"/>
        <pt x="342" y="1336" on="1"/>
        <pt x="65" y="1336" on="1"/>
        <pt x="65" y="1462" on="1"/>
        <pt x="486" y="1462" on="1"/>
      </contour>
    </TTGlyph>
    <TTGlyph name="breve" xMin="324" yMin="1243" xMax="820" yMax="1508">
      <contour>
        <pt x="567" y="1243" on="1"/>
        <pt x="338" y="1243" on="0"/>
        <pt x="324" y="1508" on="1"/>
        <pt x="422" y="1508" on="1"/>
        <pt x="429" y="1433" on="0"/>
        <pt x="500" y="1366" on="0"/>
        <pt x="638" y="1366" on="0"/>
        <pt x="708" y="1433" on="0"/>
        <pt x="719" y="1508" on="1"/>
        <pt x="820" y="1508" on="1"/>
        <pt x="814" y="1382" on="0"/>
        <pt x="682" y="1243" on="0"/>
      </contour>
    </TTGlyph>
    <TTGlyph name="brokenbar" xMin="379" yMin="-485" xMax="511" yMax="1554">
      <contour>
        <pt x="511" y="753" on="1"/>
        <pt x="379" y="753" on="1"/>
        <pt x="379" y="1554" on="1"/>
        <pt x="511" y="1554" on="1"/>
      </contour>
      <contour>
        <pt x="511" y="-485" on="1"/>
        <pt x="379" y="-485" on="1"/>
        <pt x="379" y="317" on="1"/>
        <pt x="511" y="317" on="1"/>
      </contour>
    </TTGlyph>
    <TTGlyph name="bullet" xMin="145" yMin="484" xMax="618" yMax="1011">
      <contour>
        <pt x="145" y="877" on="0"/>
        <pt x="267" y="1011" on="0"/>
        <pt x="496" y="1011" on="0"/>
        <pt x="618" y="876" on="0"/>
        <pt x="618" y="621" on="0"/>
        <pt x="495" y="484" on="0"/>
        <pt x="268" y="484" on="0"/>
        <pt x="145" y="621" on="0"/>
      </contour>
    </TTGlyph>
    <TTGlyph name="c" xMin="88" yMin="-20" xMax="638" yMax="1115">
      <contour>
        <pt x="442" y="-20" on="1"/>
        <pt x="267" y="-20" on="0"/>
        <pt x="88" y="265" on="0"/>
        <pt x="88" y="541" on="1"/>
        <pt x="88" y="1115" on="0"/>
        <pt x="442" y="1115" on="1"/>
        <pt x="556" y="1115" on="0"/>
        <pt x="638" y="1067" on="1"/>
        <pt x="588" y="943" on="1"/>
        <pt x="517" y="980" on="0"/>
        <pt x="457" y="980" on="1"/>
        <pt x="244" y="980" on="0"/>
        <pt x="244" y="543" on="1"/>
        <pt x="244" y="323" on="0"/>
        <pt x="351" y="115" on="0"/>
        <pt x="463" y="115" on="1"/>
        <pt x="537" y="115" on="0"/>
        <pt x="629" y="157" on="1"/>
        <pt x="629" y="26" on="1"/>
        <pt x="540" y="-20" on="0"/>
      </contour>
    </TTGlyph>
    <TTGlyph name="caron" xMin="298" yMin="1241" xMax="848" yMax="1569">
      <contour>
        <pt x="848" y="1569" on="1"/>
        <pt x="848" y="1547" on="1"/>
        <pt x="788" y="1469" on="0"/>
        <pt x="674" y="1291" on="0"/>
        <pt x="650" y="1241" on="1"/>
        <pt x="495" y="1241" on="1"/>
        <pt x="430" y="1371" on="0"/>
        <pt x="298" y="1547" on="1"/>
        <pt x="298" y="1569" on="1"/>
        <pt x="383" y="1569" on="1"/>
        <pt x="438" y="1521" on="0"/>
        <pt x="575" y="1367" on="1"/>
        <pt x="695" y="1513" on="0"/>
        <pt x="762" y="1569" on="1"/>
      </contour>
    </TTGlyph>
    <TTGlyph name="ccedilla" xMin="88" yMin="-492" xMax="638" yMax="1115">
      <contour>
        <pt x="457" y="980" on="1"/>
        <pt x="244" y="980" on="0"/>
        <pt x="244" y="543" on="1"/>
        <pt x="244" y="323" on="0"/>
        <pt x="351" y="115" on="0"/>
        <pt x="463" y="115" on="1"/>
        <pt x="537" y="115" on="0"/>
        <pt x="629" y="157" on="1"/>
        <pt x="629" y="26" on="1"/>
        <pt x="545" y="-17" on="0"/>
        <pt x="452" y="-20" on="1"/>
        <pt x="415" y="-102" on="1"/>
        <pt x="573" y="-141" on="0"/>
        <pt x="573" y="-281" on="1"/>
        <pt x="573" y="-383" on="0"/>
        <pt x="442" y="-492" on="0"/>
        <pt x="320" y="-492" on="1"/>
        <pt x="256" y="-492" on="0"/>
        <pt x="219" y="-478" on="1"/>
        <pt x="219" y="-375" on="1"/>
        <pt x="264" y="-388" on="0"/>
        <pt x="377" y="-388" on="0"/>
        <pt x="442" y="-334" on="0"/>
        <pt x="442" y="-285" on="1"/>
        <pt x="442" y="-185" on="0"/>
        <pt x="279" y="-159" on="1"/>
        <pt x="350" y="-8" on="1"/>
        <pt x="88" y="62" on="0"/>
        <pt x="88" y="541" on="1"/>
        <pt x="88" y="1115" on="0"/>
        <pt x="442" y="1115" on="1"/>
        <pt x="556" y="1115" on="0"/>
        <pt x="638" y="1067" on="1"/>
        <pt x="588" y="943" on="1"/>
        <pt x="517" y="980" on="0"/>
      </contour>
    </TTGlyph>
    <TTGlyph name="cedilla" xMin="31" yMin="-492" xMax="385" yMax="0">
      <contour>
        <pt x="385" y="-281" on="1"/>
        <pt x="385" y="-383" on="0"/>
        <pt x="254" y="-492" on="0"/>
        <pt x="132" y="-492" on="1"/>
        <pt x="68" y="-492" on="0"/>
        <pt x="31" y="-478" on="1"/>
        <pt x="31" y="-375" on="1"/>
        <pt x="76" y="-388" on="0"/>
        <pt x="189" y="-388" on="0"/>
        <pt x="254" y="-334" on="0"/>
        <pt x="254" y="-285" on="1"/>
        <pt x="254" y="-185" on="0"/>
        <pt x="91" y="-159" on="1"/>
        <pt x="166" y="0" on="1"/>
        <pt x="273" y="0" on="1"/>
        <pt x="227" y="-102" on="1"/>
        <pt x="385" y="-141" on="0"/>
      </contour>
    </TTGlyph>
    <TTGlyph name="cent" xMin="161" yMin="-20" xMax="711" yMax="1481">
      <contour>
        <pt x="711" y="1269" on="1"/>
        <pt x="661" y="1143" on="1"/>
        <pt x="583" y="1179" on="0"/>
        <pt x="530" y="1179" on="1"/>
        <pt x="420" y="1179" on="0"/>
        <pt x="318" y="962" on="0"/>
        <pt x="318" y="745" on="1"/>
        <pt x="318" y="317" on="0"/>
        <pt x="529" y="317" on="1"/>
        <pt x="610" y="317" on="0"/>
        <pt x="700" y="362" on="1"/>
        <pt x="700" y="228" on="1"/>
        <pt x="642" y="193" on="0"/>
        <pt x="550" y="182" on="1"/>
        <pt x="550" y="-20" on="1"/>
        <pt x="440" y="-20" on="1"/>
        <pt x="440" y="188" on="1"/>
        <pt x="161" y="245" on="0"/>
        <pt x="161" y="1250" on="0"/>
        <pt x="440" y="1309" on="1"/>
        <pt x="440" y="1481" on="1"/>
        <pt x="550" y="1481" on="1"/>
        <pt x="550" y="1316" on="1"/>
        <pt x="642" y="1307" on="0"/>
      </contour>
    </TTGlyph>
    <TTGlyph name="circumflex" xMin="298" yMin="1241" xMax="848" yMax="1569">
      <contour>
        <pt x="848" y="1241" on="1"/>
        <pt x="762" y="1241" on="1"/>
        <pt x="720" y="1277" on="0"/>
        <pt x="663" y="1341" on="1"/>
        <pt x="573" y="1442" on="1"/>
        <pt x="439" y="1291" on="0"/>
        <pt x="383" y="1241" on="1"/>
        <pt x="298" y="1241" on="1"/>
        <pt x="298" y="1262" on="1"/>
        <pt x="439" y="1451" on="0"/>
        <pt x="495" y="1569" on="1"/>
        <pt x="650" y="1569" on="1"/>
        <pt x="671" y="1520" on="0"/>
        <pt x="783" y="1345" on="0"/>
        <pt x="848" y="1262" on="1"/>
      </contour>
    </TTGlyph>
    <TTGlyph name="colon" xMin="126" yMin="-20" xMax="339" yMax="1103">
      <contour>
        <pt x="126" y="853" on="0"/>
        <pt x="126" y="1103" on="0"/>
        <pt x="339" y="1103" on="0"/>
        <pt x="339" y="978" on="1"/>
        <pt x="339" y="916" on="0"/>
        <pt x="282" y="853" on="0"/>
        <pt x="232" y="853" on="1"/>
      </contour>
      <contour>
        <pt x="232" y="-20" on="1"/>
        <pt x="126" y="-20" on="0"/>
        <pt x="126" y="231" on="0"/>
        <pt x="339" y="231" on="0"/>
        <pt x="339" y="106" on="1"/>
        <pt x="339" y="43" on="0"/>
        <pt x="282" y="-20" on="0"/>
      </contour>
    </TTGlyph>
    <TTGlyph name="comma" xMin="69" yMin="-264" xMax="348" yMax="216">
      <contour>
        <pt x="334" y="216" on="1"/>
        <pt x="348" y="193" on="1"/>
        <pt x="285" y="-29" on="0"/>
        <pt x="178" y="-264" on="1"/>
        <pt x="69" y="-264" on="1"/>
        <pt x="140" y="-9" on="0"/>
        <pt x="169" y="216" on="1"/>
      </contour>
    </TTGlyph>
    <TTGlyph name="copyright" xMin="97" yMin="-20" xMax="1601" yMax="1483">
      <contour>
        <pt x="849" y="1483" on="1"/>
        <pt x="1054" y="1483" on="0"/>
        <pt x="1402" y="1276" on="0"/>
        <pt x="1601" y="930" on="0"/>
        <pt x="1601" y="731" on="1"/>
        <pt x="1601" y="577" on="0"/>
        <pt x="1480" y="298" on="0"/>
        <pt x="1278" y="98" on="0"/>
        <pt x="1000" y="-20" on="0"/>
        <pt x="688" y="-20" on="0"/>
        <pt x="404" y="106" on="0"/>
        <pt x="209" y="314" on="0"/>
        <pt x="97" y="587" on="0"/>
        <pt x="97" y="887" on="0"/>
        <pt x="221" y="1169" on="0"/>
        <pt x="426" y="1367" on="0"/>
        <pt x="702" y="1483" on="0"/>
      </contour>
      <contour>
        <pt x="1216" y="1273" on="0"/>
        <pt x="978" y="1376" on="0"/>
        <pt x="716" y="1376" on="0"/>
        <pt x="475" y="1271" on="0"/>
        <pt x="304" y="1095" on="0"/>
        <pt x="204" y="858" on="0"/>
        <pt x="204" y="731" on="1"/>
        <pt x="204" y="552" on="0"/>
        <pt x="382" y="254" on="0"/>
        <pt x="678" y="86" on="0"/>
        <pt x="849" y="86" on="1"/>
        <pt x="982" y="86" on="0"/>
        <pt x="1223" y="191" on="0"/>
        <pt x="1394" y="366" on="0"/>
        <pt x="1494" y="603" on="0"/>
        <pt x="1494" y="862" on="0"/>
        <pt x="1390" y="1101" on="0"/>
      </contour>
      <contour>
        <pt x="879" y="274" on="1"/>
        <pt x="686" y="274" on="0"/>
        <pt x="478" y="510" on="0"/>
        <pt x="478" y="937" on="0"/>
        <pt x="700" y="1186" on="0"/>
        <pt x="889" y="1186" on="1"/>
        <pt x="1017" y="1186" on="0"/>
        <pt x="1138" y="1127" on="1"/>
        <pt x="1090" y="1018" on="1"/>
        <pt x="989" y="1067" on="0"/>
        <pt x="893" y="1067" on="1"/>
        <pt x="765" y="1067" on="0"/>
        <pt x="620" y="888" on="0"/>
        <pt x="620" y="560" on="0"/>
        <pt x="751" y="393" on="0"/>
        <pt x="888" y="393" on="1"/>
        <pt x="989" y="393" on="0"/>
        <pt x="1099" y="441" on="1"/>
        <pt x="1099" y="322" on="1"/>
        <pt x="992" y="274" on="0"/>
      </contour>
    </TTGlyph>
    <TTGlyph name="currency" xMin="113" yMin="274" xMax="1012" yMax="1171">
      <contour>
        <pt x="878" y="956" on="1"/>
        <pt x="956" y="852" on="0"/>
        <pt x="956" y="591" on="0"/>
        <pt x="878" y="489" on="1"/>
        <pt x="944" y="422" on="0"/>
        <pt x="1011" y="356" on="1"/>
        <pt x="927" y="274" on="1"/>
        <pt x="793" y="405" on="1"/>
        <pt x="689" y="330" on="0"/>
        <pt x="428" y="330" on="0"/>
        <pt x="328" y="407" on="1"/>
        <pt x="198" y="276" on="1"/>
        <pt x="115" y="360" on="1"/>
        <pt x="246" y="490" on="1"/>
        <pt x="170" y="593" on="0"/>
        <pt x="170" y="848" on="0"/>
        <pt x="246" y="954" on="1"/>
        <pt x="113" y="1087" on="1"/>
        <pt x="196" y="1171" on="1"/>
        <pt x="329" y="1037" on="1"/>
        <pt x="434" y="1116" on="0"/>
        <pt x="691" y="1116" on="0"/>
        <pt x="793" y="1038" on="1"/>
        <pt x="860" y="1104" on="0"/>
        <pt x="926" y="1171" on="1"/>
        <pt x="1012" y="1089" on="1"/>
        <pt x="968" y="1044" on="0"/>
      </contour>
      <contour>
        <pt x="843" y="833" on="0"/>
        <pt x="681" y="1001" on="0"/>
        <pt x="451" y="1001" on="0"/>
        <pt x="286" y="840" on="0"/>
        <pt x="286" y="607" on="0"/>
        <pt x="447" y="446" on="0"/>
        <pt x="678" y="446" on="0"/>
        <pt x="843" y="608" on="0"/>
      </contour>
    </TTGlyph>
    <TTGlyph name="d" xMin="87" yMin="-20" xMax="799" yMax="1556">
      <contour>
        <pt x="799" y="0" on="1"/>
        <pt x="682" y="0" on="1"/>
        <pt x="667" y="106" on="0"/>
        <pt x="662" y="149" on="1"/>
        <pt x="653" y="149" on="1"/>
        <pt x="570" y="-20" on="0"/>
        <pt x="253" y="-20" on="0"/>
        <pt x="87" y="268" on="0"/>
        <pt x="87" y="819" on="0"/>
        <pt x="251" y="1115" on="0"/>
        <pt x="404" y="1115" on="1"/>
        <pt x="475" y="1115" on="0"/>
        <pt x="603" y="1031" on="0"/>
        <pt x="644" y="955" on="1"/>
        <pt x="655" y="955" on="1"/>
        <pt x="650" y="1032" on="0"/>
        <pt x="648" y="1106" on="1"/>
        <pt x="648" y="1556" on="1"/>
        <pt x="799" y="1556" on="1"/>
      </contour>
      <contour>
        <pt x="647" y="491" on="1"/>
        <pt x="647" y="544" on="1"/>
        <pt x="647" y="770" on="0"/>
        <pt x="544" y="979" on="0"/>
        <pt x="336" y="979" on="0"/>
        <pt x="244" y="760" on="0"/>
        <pt x="244" y="325" on="0"/>
        <pt x="339" y="109" on="0"/>
        <pt x="541" y="109" on="0"/>
        <pt x="647" y="299" on="0"/>
      </contour>
    </TTGlyph>
    <TTGlyph name="dagger" xMin="120" yMin="0" xMax="810" yMax="1556">
      <contour>
        <pt x="503" y="1132" on="1"/>
        <pt x="810" y="1154" on="1"/>
        <pt x="810" y="1017" on="1"/>
        <pt x="503" y="1034" on="1"/>
        <pt x="537" y="0" on="1"/>
        <pt x="372" y="0" on="1"/>
        <pt x="406" y="1034" on="1"/>
        <pt x="120" y="1017" on="1"/>
        <pt x="120" y="1154" on="1"/>
        <pt x="406" y="1132" on="1"/>
        <pt x="372" y="1556" on="1"/>
        <pt x="537" y="1556" on="1"/>
      </contour>
    </TTGlyph>
    <TTGlyph name="daggerdbl" xMin="116" yMin="0" xMax="813" yMax="1556">
      <contour>
        <pt x="506" y="1176" on="1"/>
        <pt x="813" y="1198" on="1"/>
        <pt x="813" y="1061" on="1"/>
        <pt x="506" y="1078" on="1"/>
        <pt x="528" y="786" on="1"/>
        <pt x="506" y="479" on="1"/>
        <pt x="813" y="496" on="1"/>
        <pt x="813" y="359" on="1"/>
        <pt x="506" y="380" on="1"/>
        <pt x="540" y="0" on="1"/>
        <pt x="375" y="0" on="1"/>
        <pt x="409" y="380" on="1"/>
        <pt x="116" y="359" on="1"/>
        <pt x="116" y="496" on="1"/>
        <pt x="409" y="479" on="1"/>
        <pt x="386" y="786" on="1"/>
        <pt x="409" y="1078" on="1"/>
        <pt x="116" y="1061" on="1"/>
        <pt x="116" y="1198" on="1"/>
        <pt x="409" y="1176" on="1"/>
        <pt x="375" y="1556" on="1"/>
        <pt x="540" y="1556" on="1"/>
      </contour>
    </TTGlyph>
    <TTGlyph name="daletdageshhb" xMin="20" yMin="0" xMax="706" yMax="1290">
      <contour>
        <pt x="706" y="1290" on="1"/>
        <pt x="706" y="1174" on="1"/>
        <pt x="512" y="1104" on="0"/>
        <pt x="512" y="892" on="1"/>
        <pt x="512" y="0" on="1"/>
        <pt x="361" y="0" on="1"/>
        <pt x="361" y="894" on="1"/>
        <pt x="361" y="952" on="0"/>
        <pt x="390" y="1049" on="0"/>
        <pt x="410" y="1078" on="1"/>
        <pt x="452" y="1137" on="0"/>
        <pt x="486" y="1154" on="1"/>
        <pt x="500" y="1162" on="1"/>
        <pt x="20" y="1162" on="1"/>
        <pt x="20" y="1290" on="1"/>
      </contour>
      <contour>
        <pt x="207" y="732" on="1"/>
        <pt x="280" y="732" on="0"/>
        <pt x="280" y="559" on="0"/>
        <pt x="207" y="559" on="1"/>
        <pt x="137" y="559" on="0"/>
        <pt x="137" y="732" on="0"/>
      </contour>
    </TTGlyph>
    <TTGlyph name="degree" xMin="118" yMin="859" xMax="743" yMax="1483">
      <contour>
        <pt x="208" y="1393" on="1"/>
        <pt x="300" y="1483" on="0"/>
        <pt x="560" y="1483" on="0"/>
        <pt x="743" y="1306" on="0"/>
        <pt x="743" y="1035" on="0"/>
        <pt x="563" y="859" on="0"/>
        <pt x="296" y="859" on="0"/>
        <pt x="118" y="1034" on="0"/>
        <pt x="118" y="1303" on="0"/>
      </contour>
      <contour>
        <pt x="568" y="1312" on="1"/>
        <pt x="513" y="1370" on="0"/>
        <pt x="348" y="1370" on="0"/>
        <pt x="237" y="1252" on="0"/>
        <pt x="237" y="1086" on="0"/>
        <pt x="351" y="972" on="0"/>
        <pt x="510" y="972" on="0"/>
        <pt x="624" y="1086" on="0"/>
        <pt x="624" y="1256" on="0"/>
      </contour>
    </TTGlyph>
    <TTGlyph name="dieresis" xMin="310" yMin="1295" xMax="817" yMax="1490">
      <contour>
        <pt x="358" y="1490" on="0"/>
        <pt x="434" y="1490" on="0"/>
        <pt x="481" y="1440" on="0"/>
        <pt x="481" y="1347" on="0"/>
        <pt x="434" y="1295" on="0"/>
        <pt x="358" y="1295" on="0"/>
        <pt x="310" y="1346" on="0"/>
        <pt x="310" y="1441" on="0"/>
      </contour>
      <contour>
        <pt x="693" y="1490" on="0"/>
        <pt x="769" y="1490" on="0"/>
        <pt x="817" y="1441" on="0"/>
        <pt x="817" y="1346" on="0"/>
        <pt x="770" y="1295" on="0"/>
        <pt x="694" y="1295" on="0"/>
        <pt x="646" y="1347" on="0"/>
        <pt x="646" y="1440" on="0"/>
      </contour>
    </TTGlyph>
    <TTGlyph name="divide" xMin="74" yMin="253" xMax="776" yMax="1190">
      <contour>
        <pt x="332" y="952" on="0"/>
        <pt x="332" y="1190" on="0"/>
        <pt x="517" y="1190" on="0"/>
        <pt x="517" y="1071" on="1"/>
        <pt x="517" y="1012" on="0"/>
        <pt x="467" y="952" on="0"/>
        <pt x="425" y="952" on="1"/>
      </contour>
      <contour>
        <pt x="776" y="660" on="1"/>
        <pt x="74" y="660" on="1"/>
        <pt x="74" y="784" on="1"/>
        <pt x="776" y="784" on="1"/>
      </contour>
      <contour>
        <pt x="425" y="253" on="1"/>
        <pt x="332" y="253" on="0"/>
        <pt x="332" y="491" on="0"/>
        <pt x="517" y="491" on="0"/>
        <pt x="517" y="373" on="1"/>
        <pt x="517" y="314" on="0"/>
        <pt x="467" y="253" on="0"/>
      </contour>
    </TTGlyph>
    <TTGlyph name="dollar" xMin="87" yMin="-119" xMax="775" yMax="1556">
      <contour>
        <pt x="750" y="1312" on="1"/>
        <pt x="701" y="1189" on="0"/>
        <pt x="699" y="1184" on="1"/>
        <pt x="580" y="1240" on="0"/>
        <pt x="475" y="1246" on="1"/>
        <pt x="475" y="801" on="1"/>
        <pt x="636" y="734" on="0"/>
        <pt x="775" y="576" on="0"/>
        <pt x="775" y="313" on="0"/>
        <pt x="614" y="135" on="0"/>
        <pt x="475" y="116" on="1"/>
        <pt x="475" y="-119" on="1"/>
        <pt x="382" y="-119" on="1"/>
        <pt x="382" y="110" on="1"/>
        <pt x="200" y="113" on="0"/>
        <pt x="87" y="174" on="1"/>
        <pt x="87" y="324" on="1"/>
        <pt x="147" y="288" on="0"/>
        <pt x="306" y="246" on="0"/>
        <pt x="382" y="244" on="1"/>
        <pt x="382" y="687" on="1"/>
        <pt x="361" y="695" on="0"/>
        <pt x="325" y="713" on="1"/>
        <pt x="195" y="778" on="0"/>
        <pt x="94" y="927" on="0"/>
        <pt x="94" y="1179" on="0"/>
        <pt x="253" y="1359" on="0"/>
        <pt x="382" y="1378" on="1"/>
        <pt x="382" y="1556" on="1"/>
        <pt x="475" y="1556" on="1"/>
        <pt x="475" y="1381" on="1"/>
        <pt x="619" y="1375" on="0"/>
      </contour>
      <contour>
        <pt x="314" y="1227" on="0"/>
        <pt x="236" y="1124" on="0"/>
        <pt x="236" y="970" on="0"/>
        <pt x="303" y="878" on="0"/>
        <pt x="382" y="841" on="1"/>
        <pt x="382" y="1242" on="1"/>
      </contour>
      <contour>
        <pt x="548" y="268" on="0"/>
        <pt x="632" y="370" on="0"/>
        <pt x="632" y="515" on="0"/>
        <pt x="561" y="608" on="0"/>
        <pt x="475" y="647" on="1"/>
        <pt x="475" y="252" on="1"/>
      </contour>
    </TTGlyph>
    <TTGlyph name="dotaccent" xMin="131" yMin="1282" xMax="316" yMax="1503">
      <contour>
        <pt x="131" y="1446" on="0"/>
        <pt x="181" y="1503" on="0"/>
        <pt x="270" y="1503" on="0"/>
        <pt x="316" y="1446" on="0"/>
        <pt x="316" y="1340" on="0"/>
        <pt x="268" y="1282" on="0"/>
        <pt x="182" y="1282" on="0"/>
        <pt x="131" y="1340" on="0"/>
      </contour>
    </TTGlyph>
    <TTGlyph name="dotlessi" xMin="135" yMin="0" xMax="287" yMax="1095">
      <contour>
        <pt x="287" y="0" on="1"/>
        <pt x="135" y="0" on="1"/>
        <pt x="135" y="1095" on="1"/>
        <pt x="287" y="1095" on="1"/>
      </contour>
    </TTGlyph>
    <TTGlyph name="e" xMin="88" yMin="-20" xMax="763" yMax="1115">
      <contour>
        <pt x="476" y="-20" on="1"/>
        <pt x="291" y="-20" on="0"/>
        <pt x="88" y="273" on="0"/>
        <pt x="88" y="817" on="0"/>
        <pt x="270" y="1115" on="0"/>
        <pt x="439" y="1115" on="1"/>
        <pt x="589" y="1115" on="0"/>
        <pt x="763" y="854" on="0"/>
        <pt x="763" y="631" on="1"/>
        <pt x="763" y="525" on="1"/>
        <pt x="242" y="525" on="1"/>
        <pt x="248" y="111" on="0"/>
        <pt x="492" y="111" on="1"/>
        <pt x="606" y="111" on="0"/>
        <pt x="724" y="182" on="1"/>
        <pt x="724" y="48" on="1"/>
        <pt x="612" y="-20" on="0"/>
      </contour>
      <contour>
        <pt x="613" y="646" on="1"/>
        <pt x="613" y="803" on="0"/>
        <pt x="517" y="990" on="0"/>
        <pt x="434" y="990" on="1"/>
        <pt x="261" y="990" on="0"/>
        <pt x="245" y="646" on="1"/>
      </contour>
    </TTGlyph>
    <TTGlyph name="eacute" xMin="88" yMin="-20" xMax="763" yMax="1569">
      <contour>
        <pt x="718" y="1569" on="1"/>
        <pt x="718" y="1550" on="1"/>
        <pt x="689" y="1495" on="0"/>
        <pt x="512" y="1302" on="0"/>
        <pt x="438" y="1241" on="1"/>
        <pt x="345" y="1241" on="1"/>
        <pt x="345" y="1263" on="1"/>
        <pt x="397" y="1332" on="0"/>
        <pt x="500" y="1503" on="0"/>
        <pt x="530" y="1569" on="1"/>
      </contour>
      <contour>
        <pt x="476" y="-20" on="1"/>
        <pt x="291" y="-20" on="0"/>
        <pt x="88" y="273" on="0"/>
        <pt x="88" y="817" on="0"/>
        <pt x="270" y="1115" on="0"/>
        <pt x="439" y="1115" on="1"/>
        <pt x="589" y="1115" on="0"/>
        <pt x="763" y="854" on="0"/>
        <pt x="763" y="631" on="1"/>
        <pt x="763" y="525" on="1"/>
        <pt x="242" y="525" on="1"/>
        <pt x="248" y="111" on="0"/>
        <pt x="492" y="111" on="1"/>
        <pt x="606" y="111" on="0"/>
        <pt x="724" y="182" on="1"/>
        <pt x="724" y="48" on="1"/>
        <pt x="612" y="-20" on="0"/>
      </contour>
      <contour>
        <pt x="613" y="646" on="1"/>
        <pt x="613" y="803" on="0"/>
        <pt x="517" y="990" on="0"/>
        <pt x="434" y="990" on="1"/>
        <pt x="261" y="990" on="0"/>
        <pt x="245" y="646" on="1"/>
      </contour>
    </TTGlyph>
    <TTGlyph name="ecircumflex" xMin="88" yMin="-20" xMax="763" yMax="1569">
      <contour>
        <pt x="712" y="1241" on="1"/>
        <pt x="626" y="1241" on="1"/>
        <pt x="584" y="1277" on="0"/>
        <pt x="527" y="1341" on="1"/>
        <pt x="437" y="1442" on="1"/>
        <pt x="303" y="1291" on="0"/>
        <pt x="247" y="1241" on="1"/>
        <pt x="162" y="1241" on="1"/>
        <pt x="162" y="1262" on="1"/>
        <pt x="303" y="1451" on="0"/>
        <pt x="359" y="1569" on="1"/>
        <pt x="514" y="1569" on="1"/>
        <pt x="535" y="1520" on="0"/>
        <pt x="647" y="1345" on="0"/>
        <pt x="712" y="1262" on="1"/>
      </contour>
      <contour>
        <pt x="476" y="-20" on="1"/>
        <pt x="291" y="-20" on="0"/>
        <pt x="88" y="273" on="0"/>
        <pt x="88" y="817" on="0"/>
        <pt x="270" y="1115" on="0"/>
        <pt x="439" y="1115" on="1"/>
        <pt x="589" y="1115" on="0"/>
        <pt x="763" y="854" on="0"/>
        <pt x="763" y="631" on="1"/>
        <pt x="763" y="525" on="1"/>
        <pt x="242" y="525" on="1"/>
        <pt x="248" y="111" on="0"/>
        <pt x="492" y="111" on="1"/>
        <pt x="606" y="111" on="0"/>
        <pt x="724" y="182" on="1"/>
        <pt x="724" y="48" on="1"/>
        <pt x="612" y="-20" on="0"/>
      </contour>
      <contour>
        <pt x="613" y="646" on="1"/>
        <pt x="613" y="803" on="0"/>
        <pt x="517" y="990" on="0"/>
        <pt x="434" y="990" on="1"/>
        <pt x="261" y="990" on="0"/>
        <pt x="245" y="646" on="1"/>
      </contour>
    </TTGlyph>
    <TTGlyph name="edieresis" xMin="88" yMin="-20" xMax="763" yMax="1490">
      <contour>
        <pt x="231" y="1490" on="0"/>
        <pt x="307" y="1490" on="0"/>
        <pt x="354" y="1440" on="0"/>
        <pt x="354" y="1347" on="0"/>
        <pt x="307" y="1295" on="0"/>
        <pt x="231" y="1295" on="0"/>
        <pt x="183" y="1346" on="0"/>
        <pt x="183" y="1441" on="0"/>
      </contour>
      <contour>
        <pt x="566" y="1490" on="0"/>
        <pt x="642" y="1490" on="0"/>
        <pt x="690" y="1441" on="0"/>
        <pt x="690" y="1346" on="0"/>
        <pt x="643" y="1295" on="0"/>
        <pt x="567" y="1295" on="0"/>
        <pt x="519" y="1347" on="0"/>
        <pt x="519" y="1440" on="0"/>
      </contour>
      <contour>
        <pt x="476" y="-20" on="1"/>
        <pt x="291" y="-20" on="0"/>
        <pt x="88" y="273" on="0"/>
        <pt x="88" y="817" on="0"/>
        <pt x="270" y="1115" on="0"/>
        <pt x="439" y="1115" on="1"/>
        <pt x="589" y="1115" on="0"/>
        <pt x="763" y="854" on="0"/>
        <pt x="763" y="631" on="1"/>
        <pt x="763" y="525" on="1"/>
        <pt x="242" y="525" on="1"/>
        <pt x="248" y="111" on="0"/>
        <pt x="492" y="111" on="1"/>
        <pt x="606" y="111" on="0"/>
        <pt x="724" y="182" on="1"/>
        <pt x="724" y="48" on="1"/>
        <pt x="612" y="-20" on="0"/>
      </contour>
      <contour>
        <pt x="613" y="646" on="1"/>
        <pt x="613" y="803" on="0"/>
        <pt x="517" y="990" on="0"/>
        <pt x="434" y="990" on="1"/>
        <pt x="261" y="990" on="0"/>
        <pt x="245" y="646" on="1"/>
      </contour>
    </TTGlyph>
    <TTGlyph name="egrave" xMin="88" yMin="-20" xMax="763" yMax="1569">
      <contour>
        <pt x="180" y="1569" on="1"/>
        <pt x="369" y="1569" on="1"/>
        <pt x="398" y="1502" on="0"/>
        <pt x="505" y="1325" on="0"/>
        <pt x="554" y="1264" on="1"/>
        <pt x="554" y="1241" on="1"/>
        <pt x="460" y="1241" on="1"/>
        <pt x="392" y="1297" on="0"/>
        <pt x="302" y="1393" on="1"/>
        <pt x="213" y="1490" on="0"/>
        <pt x="180" y="1551" on="1"/>
      </contour>
      <contour>
        <pt x="476" y="-20" on="1"/>
        <pt x="291" y="-20" on="0"/>
        <pt x="88" y="273" on="0"/>
        <pt x="88" y="817" on="0"/>
        <pt x="270" y="1115" on="0"/>
        <pt x="439" y="1115" on="1"/>
        <pt x="589" y="1115" on="0"/>
        <pt x="763" y="854" on="0"/>
        <pt x="763" y="631" on="1"/>
        <pt x="763" y="525" on="1"/>
        <pt x="242" y="525" on="1"/>
        <pt x="248" y="111" on="0"/>
        <pt x="492" y="111" on="1"/>
        <pt x="606" y="111" on="0"/>
        <pt x="724" y="182" on="1"/>
        <pt x="724" y="48" on="1"/>
        <pt x="612" y="-20" on="0"/>
      </contour>
      <contour>
        <pt x="613" y="646" on="1"/>
        <pt x="613" y="803" on="0"/>
        <pt x="517" y="990" on="0"/>
        <pt x="434" y="990" on="1"/>
        <pt x="261" y="990" on="0"/>
        <pt x="245" y="646" on="1"/>
      </contour>
    </TTGlyph>
    <TTGlyph name="eight" xMin="72" yMin="-20" xMax="791" yMax="1482">
      <contour>
        <pt x="103" y="1290" on="0"/>
        <pt x="288" y="1482" on="0"/>
        <pt x="582" y="1482" on="0"/>
        <pt x="762" y="1296" on="0"/>
        <pt x="762" y="1138" on="1"/>
        <pt x="762" y="907" on="0"/>
        <pt x="532" y="765" on="1"/>
        <pt x="672" y="670" on="0"/>
        <pt x="791" y="490" on="0"/>
        <pt x="791" y="367" on="1"/>
        <pt x="791" y="197" on="0"/>
        <pt x="596" y="-20" on="0"/>
        <pt x="271" y="-20" on="0"/>
        <pt x="72" y="185" on="0"/>
        <pt x="72" y="356" on="1"/>
        <pt x="72" y="487" on="0"/>
        <pt x="183" y="680" on="0"/>
        <pt x="308" y="762" on="1"/>
        <pt x="103" y="919" on="0"/>
        <pt x="103" y="1135" on="1"/>
      </contour>
      <contour>
        <pt x="608" y="1236" on="0"/>
        <pt x="515" y="1352" on="0"/>
        <pt x="348" y="1352" on="0"/>
        <pt x="256" y="1235" on="0"/>
        <pt x="256" y="1034" on="0"/>
        <pt x="333" y="903" on="0"/>
        <pt x="431" y="834" on="1"/>
        <pt x="524" y="894" on="0"/>
        <pt x="608" y="1037" on="0"/>
      </contour>
      <contour>
        <pt x="311" y="629" on="0"/>
        <pt x="225" y="476" on="0"/>
        <pt x="225" y="246" on="0"/>
        <pt x="338" y="110" on="0"/>
        <pt x="527" y="110" on="0"/>
        <pt x="637" y="252" on="0"/>
        <pt x="637" y="372" on="1"/>
        <pt x="637" y="538" on="0"/>
        <pt x="452" y="669" on="1"/>
        <pt x="414" y="696" on="1"/>
      </contour>
    </TTGlyph>
    <TTGlyph name="ellipsis" xMin="126" yMin="-20" xMax="1270" yMax="231">
      <contour>
        <pt x="232" y="-20" on="1"/>
        <pt x="126" y="-20" on="0"/>
        <pt x="126" y="231" on="0"/>
        <pt x="339" y="231" on="0"/>
        <pt x="339" y="106" on="1"/>
        <pt x="339" y="43" on="0"/>
        <pt x="282" y="-20" on="0"/>
      </contour>
      <contour>
        <pt x="698" y="231" on="1"/>
        <pt x="748" y="231" on="0"/>
        <pt x="805" y="169" on="0"/>
        <pt x="805" y="44" on="0"/>
        <pt x="747" y="-20" on="0"/>
        <pt x="698" y="-20" on="1"/>
        <pt x="591" y="-20" on="0"/>
        <pt x="591" y="231" on="0"/>
      </contour>
      <contour>
        <pt x="1056" y="231" on="0"/>
        <pt x="1270" y="231" on="0"/>
        <pt x="1270" y="106" on="1"/>
        <pt x="1270" y="44" on="0"/>
        <pt x="1212" y="-20" on="0"/>
        <pt x="1163" y="-20" on="1"/>
        <pt x="1056" y="-20" on="0"/>
      </contour>
    </TTGlyph>
    <TTGlyph name="emdash" xMin="78" yMin="489" xMax="1815" yMax="615">
      <contour>
        <pt x="1815" y="489" on="1"/>
        <pt x="78" y="489" on="1"/>
        <pt x="78" y="615" on="1"/>
        <pt x="1815" y="615" on="1"/>
      </contour>
    </TTGlyph>
    <TTGlyph name="endash" xMin="78" yMin="489" xMax="929" yMax="615">
      <contour>
        <pt x="929" y="489" on="1"/>
        <pt x="78" y="489" on="1"/>
        <pt x="78" y="615" on="1"/>
        <pt x="929" y="615" on="1"/>
      </contour>
    </TTGlyph>
    <TTGlyph name="equal" xMin="75" yMin="451" xMax="777" yMax="991">
      <contour>
        <pt x="777" y="869" on="1"/>
        <pt x="75" y="869" on="1"/>
        <pt x="75" y="991" on="1"/>
        <pt x="777" y="991" on="1"/>
      </contour>
      <contour>
        <pt x="777" y="451" on="1"/>
        <pt x="75" y="451" on="1"/>
        <pt x="75" y="574" on="1"/>
        <pt x="777" y="574" on="1"/>
      </contour>
    </TTGlyph>
    <TTGlyph name="eth" xMin="87" yMin="-20" xMax="820" yMax="1560">
      <contour>
        <pt x="231" y="1467" on="1"/>
        <pt x="293" y="1560" on="1"/>
        <pt x="389" y="1506" on="0"/>
        <pt x="465" y="1438" on="1"/>
        <pt x="619" y="1533" on="0"/>
        <pt x="659" y="1558" on="1"/>
        <pt x="716" y="1467" on="1"/>
        <pt x="544" y="1361" on="1"/>
        <pt x="820" y="1054" on="0"/>
        <pt x="820" y="532" on="1"/>
        <pt x="820" y="262" on="0"/>
        <pt x="630" y="-20" on="0"/>
        <pt x="449" y="-20" on="1"/>
        <pt x="284" y="-20" on="0"/>
        <pt x="87" y="252" on="0"/>
        <pt x="87" y="709" on="0"/>
        <pt x="262" y="966" on="0"/>
        <pt x="423" y="966" on="1"/>
        <pt x="564" y="966" on="0"/>
        <pt x="643" y="845" on="1"/>
        <pt x="649" y="845" on="0"/>
        <pt x="652" y="846" on="1"/>
        <pt x="602" y="1099" on="0"/>
        <pt x="433" y="1292" on="1"/>
        <pt x="243" y="1176" on="1"/>
        <pt x="186" y="1268" on="1"/>
        <pt x="356" y="1371" on="1"/>
        <pt x="302" y="1419" on="0"/>
      </contour>
      <contour>
        <pt x="457" y="836" on="1"/>
        <pt x="241" y="836" on="0"/>
        <pt x="241" y="468" on="1"/>
        <pt x="241" y="304" on="0"/>
        <pt x="354" y="112" on="0"/>
        <pt x="564" y="112" on="0"/>
        <pt x="666" y="302" on="0"/>
        <pt x="666" y="498" on="1"/>
        <pt x="666" y="647" on="0"/>
        <pt x="549" y="836" on="0"/>
      </contour>
    </TTGlyph>
    <TTGlyph name="exclam" xMin="135" yMin="-20" xMax="349" yMax="1462">
      <contour>
        <pt x="297" y="401" on="1"/>
        <pt x="187" y="401" on="1"/>
        <pt x="148" y="1462" on="1"/>
        <pt x="337" y="1462" on="1"/>
      </contour>
      <contour>
        <pt x="135" y="231" on="0"/>
        <pt x="349" y="231" on="0"/>
        <pt x="349" y="106" on="1"/>
        <pt x="349" y="44" on="0"/>
        <pt x="291" y="-20" on="0"/>
        <pt x="242" y="-20" on="1"/>
        <pt x="135" y="-20" on="0"/>
      </contour>
    </TTGlyph>
    <TTGlyph name="exclamdown" xMin="135" yMin="-383" xMax="348" yMax="1097">
      <contour>
        <pt x="135" y="1033" on="0"/>
        <pt x="190" y="1097" on="0"/>
        <pt x="291" y="1097" on="0"/>
        <pt x="348" y="1034" on="0"/>
        <pt x="348" y="908" on="0"/>
        <pt x="291" y="846" on="0"/>
        <pt x="241" y="846" on="1"/>
        <pt x="135" y="846" on="0"/>
        <pt x="135" y="972" on="1"/>
      </contour>
      <contour>
        <pt x="336" y="-383" on="1"/>
        <pt x="145" y="-383" on="1"/>
        <pt x="186" y="677" on="1"/>
        <pt x="295" y="677" on="1"/>
      </contour>
    </TTGlyph>
    <TTGlyph name="f" xMin="22" yMin="0" xMax="563" yMax="1567">
      <contour>
        <pt x="158" y="1185" on="1"/>
        <pt x="158" y="1384" on="0"/>
        <pt x="276" y="1567" on="0"/>
        <pt x="411" y="1567" on="1"/>
        <pt x="493" y="1567" on="0"/>
        <pt x="563" y="1535" on="1"/>
        <pt x="518" y="1409" on="1"/>
        <pt x="467" y="1434" on="0"/>
        <pt x="420" y="1434" on="1"/>
        <pt x="357" y="1432" on="0"/>
        <pt x="308" y="1322" on="0"/>
        <pt x="308" y="1182" on="1"/>
        <pt x="308" y="1094" on="1"/>
        <pt x="483" y="1094" on="1"/>
        <pt x="483" y="968" on="1"/>
        <pt x="308" y="968" on="1"/>
        <pt x="308" y="0" on="1"/>
        <pt x="158" y="0" on="1"/>
        <pt x="158" y="968" on="1"/>
        <pt x="22" y="968" on="1"/>
        <pt x="22" y="1048" on="1"/>
        <pt x="47" y="1059" on="0"/>
        <pt x="158" y="1102" on="1"/>
      </contour>
    </TTGlyph>
    <TTGlyph name="finalkafdageshhb" xMin="45" yMin="-492" xMax="598" yMax="1310">
      <contour>
        <pt x="45" y="1276" on="1"/>
        <pt x="147" y="1310" on="0"/>
        <pt x="319" y="1310" on="0"/>
        <pt x="446" y="1249" on="0"/>
        <pt x="527" y="1146" on="0"/>
        <pt x="552" y="1070" on="1"/>
        <pt x="598" y="934" on="0"/>
        <pt x="598" y="726" on="1"/>
        <pt x="598" y="-492" on="1"/>
        <pt x="445" y="-492" on="1"/>
        <pt x="445" y="726" on="1"/>
        <pt x="445" y="1174" on="0"/>
        <pt x="228" y="1174" on="1"/>
        <pt x="137" y="1174" on="0"/>
        <pt x="45" y="1134" on="1"/>
      </contour>
      <contour>
        <pt x="233" y="732" on="1"/>
        <pt x="306" y="732" on="0"/>
        <pt x="306" y="559" on="0"/>
        <pt x="233" y="559" on="1"/>
        <pt x="163" y="559" on="0"/>
        <pt x="163" y="732" on="0"/>
      </contour>
    </TTGlyph>
    <TTGlyph name="finalpedageshhb" xMin="80" yMin="-492" xMax="815" yMax="1310">
      <contour>
        <pt x="412" y="436" on="1"/>
        <pt x="259" y="436" on="0"/>
        <pt x="80" y="647" on="0"/>
        <pt x="80" y="1062" on="0"/>
        <pt x="282" y="1310" on="0"/>
        <pt x="439" y="1310" on="1"/>
        <pt x="565" y="1310" on="0"/>
        <pt x="656" y="1219" on="1"/>
        <pt x="756" y="1119" on="0"/>
        <pt x="794" y="905" on="1"/>
        <pt x="815" y="790" on="0"/>
        <pt x="815" y="645" on="1"/>
        <pt x="815" y="-492" on="1"/>
        <pt x="663" y="-492" on="1"/>
        <pt x="663" y="645" on="1"/>
        <pt x="663" y="951" on="0"/>
        <pt x="596" y="1072" on="1"/>
        <pt x="564" y="1129" on="0"/>
        <pt x="488" y="1178" on="0"/>
        <pt x="383" y="1178" on="0"/>
        <pt x="297" y="1111" on="0"/>
        <pt x="274" y="1060" on="1"/>
        <pt x="229" y="959" on="0"/>
        <pt x="229" y="860" on="1"/>
        <pt x="229" y="568" on="0"/>
        <pt x="421" y="557" on="1"/>
        <pt x="427" y="557" on="0"/>
        <pt x="443" y="555" on="1"/>
        <pt x="415" y="436" on="1"/>
        <pt x="414" y="436" on="0"/>
      </contour>
      <contour>
        <pt x="472" y="960" on="1"/>
        <pt x="545" y="960" on="0"/>
        <pt x="545" y="787" on="0"/>
        <pt x="472" y="787" on="1"/>
        <pt x="402" y="787" on="0"/>
        <pt x="402" y="960" on="0"/>
      </contour>
    </TTGlyph>
    <TTGlyph name="five" xMin="95" yMin="-20" xMax="771" yMax="1462">
      <contour>
        <pt x="95" y="198" on="1"/>
        <pt x="200" y="125" on="0"/>
        <pt x="311" y="125" on="1"/>
        <pt x="446" y="125" on="0"/>
        <pt x="613" y="301" on="0"/>
        <pt x="613" y="455" on="1"/>
        <pt x="613" y="458" on="0"/>
        <pt x="613" y="462" on="1"/>
        <pt x="613" y="609" on="0"/>
        <pt x="487" y="758" on="0"/>
        <pt x="369" y="758" on="1"/>
        <pt x="277" y="758" on="0"/>
        <pt x="172" y="727" on="1"/>
        <pt x="110" y="791" on="1"/>
        <pt x="154" y="1462" on="1"/>
        <pt x="692" y="1462" on="1"/>
        <pt x="692" y="1319" on="1"/>
        <pt x="285" y="1319" on="1"/>
        <pt x="254" y="870" on="1"/>
        <pt x="334" y="888" on="0"/>
        <pt x="414" y="888" on="1"/>
        <pt x="585" y="886" on="0"/>
        <pt x="769" y="655" on="0"/>
        <pt x="771" y="472" on="1"/>
        <pt x="769" y="273" on="0"/>
        <pt x="674" y="134" on="1"/>
        <pt x="627" y="64" on="0"/>
        <pt x="466" y="-18" on="0"/>
        <pt x="361" y="-20" on="1"/>
        <pt x="193" y="-20" on="0"/>
        <pt x="95" y="41" on="1"/>
      </contour>
    </TTGlyph>
    <TTGlyph name="florin" xMin="69" yMin="-492" xMax="785" yMax="1483">
      <contour>
        <pt x="335" y="1080" on="1"/>
        <pt x="335" y="1289" on="0"/>
        <pt x="454" y="1483" on="0"/>
        <pt x="598" y="1483" on="1"/>
        <pt x="692" y="1483" on="0"/>
        <pt x="785" y="1442" on="1"/>
        <pt x="735" y="1316" on="1"/>
        <pt x="669" y="1347" on="0"/>
        <pt x="614" y="1347" on="1"/>
        <pt x="546" y="1347" on="0"/>
        <pt x="494" y="1239" on="0"/>
        <pt x="492" y="1108" on="1"/>
        <pt x="492" y="963" on="1"/>
        <pt x="691" y="963" on="1"/>
        <pt x="691" y="836" on="1"/>
        <pt x="492" y="836" on="1"/>
        <pt x="491" y="519" on="0"/>
        <pt x="491" y="-114" on="1"/>
        <pt x="491" y="-305" on="0"/>
        <pt x="353" y="-492" on="0"/>
        <pt x="211" y="-492" on="1"/>
        <pt x="139" y="-492" on="0"/>
        <pt x="69" y="-475" on="1"/>
        <pt x="69" y="-339" on="1"/>
        <pt x="136" y="-357" on="0"/>
        <pt x="189" y="-357" on="1"/>
        <pt x="267" y="-357" on="0"/>
        <pt x="335" y="-246" on="0"/>
        <pt x="335" y="-126" on="1"/>
        <pt x="335" y="836" on="1"/>
        <pt x="173" y="836" on="1"/>
        <pt x="173" y="916" on="1"/>
        <pt x="335" y="968" on="1"/>
      </contour>
    </TTGlyph>
    <TTGlyph name="four" xMin="37" yMin="0" xMax="834" yMax="1473">
      <contour>
        <pt x="680" y="458" on="1"/>
        <pt x="834" y="458" on="1"/>
        <pt x="834" y="323" on="1"/>
        <pt x="680" y="323" on="1"/>
        <pt x="680" y="0" on="1"/>
        <pt x="532" y="0" on="1"/>
        <pt x="532" y="323" on="1"/>
        <pt x="37" y="323" on="1"/>
        <pt x="37" y="452" on="1"/>
        <pt x="503" y="1473" on="1"/>
        <pt x="680" y="1473" on="1"/>
      </contour>
      <contour>
        <pt x="532" y="458" on="1"/>
        <pt x="532" y="938" on="1"/>
        <pt x="532" y="1137" on="0"/>
        <pt x="541" y="1280" on="1"/>
        <pt x="534" y="1280" on="1"/>
        <pt x="499" y="1182" on="0"/>
        <pt x="423" y="1004" on="1"/>
        <pt x="179" y="458" on="1"/>
      </contour>
    </TTGlyph>
    <TTGlyph name="fraction" xMin="-322" yMin="0" xMax="566" yMax="1462">
      <contour>
        <pt x="-193" y="0" on="1"/>
        <pt x="-322" y="0" on="1"/>
        <pt x="437" y="1462" on="1"/>
        <pt x="566" y="1462" on="1"/>
      </contour>
    </TTGlyph>
    <TTGlyph name="g" xMin="29" yMin="-492" xMax="787" yMax="1115">
      <contour>
        <pt x="388" y="170" on="1"/>
        <pt x="487" y="170" on="1"/>
        <pt x="632" y="170" on="0"/>
        <pt x="787" y="16" on="0"/>
        <pt x="787" y="-132" on="1"/>
        <pt x="787" y="-299" on="0"/>
        <pt x="556" y="-492" on="0"/>
        <pt x="360" y="-492" on="1"/>
        <pt x="200" y="-492" on="0"/>
        <pt x="29" y="-339" on="0"/>
        <pt x="29" y="-196" on="1"/>
        <pt x="29" y="7" on="0"/>
        <pt x="244" y="85" on="1"/>
        <pt x="192" y="107" on="0"/>
        <pt x="131" y="188" on="0"/>
        <pt x="131" y="288" on="0"/>
        <pt x="187" y="365" on="0"/>
        <pt x="253" y="416" on="1"/>
        <pt x="175" y="454" on="0"/>
        <pt x="91" y="625" on="0"/>
        <pt x="91" y="739" on="1"/>
        <pt x="91" y="916" on="0"/>
        <pt x="252" y="1115" on="0"/>
        <pt x="396" y="1115" on="1"/>
        <pt x="457" y="1115" on="0"/>
        <pt x="517" y="1093" on="1"/>
        <pt x="530" y="1094" on="0"/>
        <pt x="660" y="1094" on="0"/>
        <pt x="779" y="1093" on="1"/>
        <pt x="779" y="997" on="1"/>
        <pt x="636" y="976" on="1"/>
        <pt x="662" y="939" on="0"/>
        <pt x="695" y="810" on="0"/>
        <pt x="695" y="743" on="1"/>
        <pt x="695" y="579" on="0"/>
        <pt x="531" y="382" on="0"/>
        <pt x="400" y="382" on="1"/>
        <pt x="392" y="382" on="1"/>
        <pt x="362" y="382" on="0"/>
        <pt x="346" y="386" on="1"/>
        <pt x="303" y="354" on="0"/>
        <pt x="259" y="295" on="0"/>
        <pt x="259" y="216" on="0"/>
        <pt x="327" y="170" on="0"/>
      </contour>
      <contour>
        <pt x="547" y="869" on="0"/>
        <pt x="469" y="1004" on="0"/>
        <pt x="319" y="1004" on="0"/>
        <pt x="238" y="866" on="0"/>
        <pt x="238" y="617" on="0"/>
        <pt x="321" y="491" on="0"/>
        <pt x="395" y="491" on="1"/>
        <pt x="547" y="491" on="0"/>
        <pt x="547" y="744" on="1"/>
      </contour>
      <contour>
        <pt x="453" y="31" on="1"/>
        <pt x="377" y="31" on="1"/>
        <pt x="280" y="31" on="0"/>
        <pt x="172" y="-84" on="0"/>
        <pt x="172" y="-275" on="0"/>
        <pt x="272" y="-376" on="0"/>
        <pt x="369" y="-376" on="1"/>
        <pt x="498" y="-376" on="0"/>
        <pt x="643" y="-252" on="0"/>
        <pt x="643" y="-143" on="1"/>
        <pt x="643" y="31" on="0"/>
      </contour>
    </TTGlyph>
    <TTGlyph name="gereshhb" xMin="35" yMin="809" xMax="314" yMax="1290">
      <contour>
        <pt x="301" y="1290" on="1"/>
        <pt x="314" y="1269" on="1"/>
        <pt x="306" y="1238" on="0"/>
        <pt x="276" y="1146" on="1"/>
        <pt x="232" y="1013" on="0"/>
        <pt x="144" y="809" on="1"/>
        <pt x="35" y="809" on="1"/>
        <pt x="59" y="892" on="0"/>
        <pt x="98" y="1072" on="0"/>
        <pt x="136" y="1290" on="1"/>
      </contour>
    </TTGlyph>
    <TTGlyph name="germandbls" xMin="134" yMin="-20" xMax="855" yMax="1567">
      <contour>
        <pt x="134" y="0" on="1"/>
        <pt x="134" y="1119" on="1"/>
        <pt x="134" y="1172" on="0"/>
        <pt x="137" y="1222" on="1"/>
        <pt x="146" y="1386" on="0"/>
        <pt x="316" y="1567" on="0"/>
        <pt x="602" y="1567" on="0"/>
        <pt x="759" y="1411" on="0"/>
        <pt x="759" y="1145" on="0"/>
        <pt x="663" y="1028" on="1"/>
        <pt x="654" y="1019" on="1"/>
        <pt x="567" y="911" on="0"/>
        <pt x="567" y="804" on="0"/>
        <pt x="602" y="732" on="0"/>
        <pt x="664" y="662" on="1"/>
        <pt x="711" y="616" on="1"/>
        <pt x="786" y="541" on="0"/>
        <pt x="854" y="401" on="0"/>
        <pt x="855" y="310" on="1"/>
        <pt x="855" y="155" on="0"/>
        <pt x="695" y="-20" on="0"/>
        <pt x="428" y="-20" on="0"/>
        <pt x="361" y="33" on="1"/>
        <pt x="361" y="174" on="1"/>
        <pt x="452" y="110" on="0"/>
        <pt x="616" y="110" on="0"/>
        <pt x="700" y="209" on="0"/>
        <pt x="700" y="299" on="1"/>
        <pt x="700" y="363" on="0"/>
        <pt x="650" y="464" on="0"/>
        <pt x="567" y="549" on="1"/>
        <pt x="485" y="634" on="0"/>
        <pt x="418" y="766" on="0"/>
        <pt x="418" y="841" on="1"/>
        <pt x="418" y="955" on="0"/>
        <pt x="528" y="1065" on="1"/>
        <pt x="569" y="1121" on="0"/>
        <pt x="605" y="1210" on="0"/>
        <pt x="605" y="1262" on="1"/>
        <pt x="605" y="1433" on="0"/>
        <pt x="457" y="1433" on="1"/>
        <pt x="373" y="1433" on="0"/>
        <pt x="285" y="1309" on="0"/>
        <pt x="285" y="1190" on="1"/>
        <pt x="285" y="0" on="1"/>
      </contour>
    </TTGlyph>
    <TTGlyph name="gershayimhb" xMin="35" yMin="809" xMax="647" yMax="1290">
      <contour>
        <pt x="301" y="1290" on="1"/>
        <pt x="314" y="1269" on="1"/>
        <pt x="306" y="1238" on="0"/>
        <pt x="276" y="1146" on="1"/>
        <pt x="232" y="1013" on="0"/>
        <pt x="144" y="809" on="1"/>
        <pt x="35" y="809" on="1"/>
        <pt x="59" y="892" on="0"/>
        <pt x="98" y="1072" on="0"/>
        <pt x="136" y="1290" on="1"/>
      </contour>
      <contour>
        <pt x="647" y="1269" on="1"/>
        <pt x="598" y="1086" on="0"/>
        <pt x="477" y="809" on="1"/>
        <pt x="367" y="809" on="1"/>
        <pt x="422" y="1029" on="0"/>
        <pt x="426" y="1048" on="1"/>
        <pt x="451" y="1173" on="0"/>
        <pt x="468" y="1290" on="1"/>
        <pt x="634" y="1290" on="1"/>
      </contour>
    </TTGlyph>
    <TTGlyph name="gimeldageshhb" xMin="89" yMin="-9" xMax="570" yMax="1310">
      <contour>
        <pt x="453" y="0" on="1"/>
        <pt x="432" y="204" on="1"/>
        <pt x="422" y="204" on="1"/>
        <pt x="412" y="174" on="1"/>
        <pt x="410" y="168" on="0"/>
        <pt x="385" y="110" on="0"/>
        <pt x="364" y="82" on="0"/>
        <pt x="321" y="35" on="0"/>
        <pt x="298" y="23" on="1"/>
        <pt x="235" y="-9" on="0"/>
        <pt x="164" y="-9" on="1"/>
        <pt x="127" y="-9" on="0"/>
        <pt x="89" y="1" on="1"/>
        <pt x="108" y="146" on="1"/>
        <pt x="108" y="143" on="0"/>
        <pt x="157" y="135" on="0"/>
        <pt x="172" y="135" on="1"/>
        <pt x="304" y="135" on="0"/>
        <pt x="419" y="324" on="0"/>
        <pt x="419" y="515" on="1"/>
        <pt x="419" y="958" on="1"/>
        <pt x="419" y="1072" on="0"/>
        <pt x="363" y="1178" on="0"/>
        <pt x="279" y="1178" on="1"/>
        <pt x="241" y="1178" on="0"/>
        <pt x="170" y="1159" on="1"/>
        <pt x="170" y="1292" on="1"/>
        <pt x="237" y="1310" on="0"/>
        <pt x="367" y="1310" on="0"/>
        <pt x="469" y="1271" on="0"/>
        <pt x="527" y="1210" on="0"/>
        <pt x="560" y="1113" on="0"/>
        <pt x="570" y="1021" on="0"/>
        <pt x="570" y="958" on="1"/>
        <pt x="570" y="0" on="1"/>
      </contour>
      <contour>
        <pt x="247" y="732" on="1"/>
        <pt x="320" y="732" on="0"/>
        <pt x="320" y="559" on="0"/>
        <pt x="247" y="559" on="1"/>
        <pt x="177" y="559" on="0"/>
        <pt x="177" y="732" on="0"/>
      </contour>
    </TTGlyph>
    <TTGlyph name="grave" xMin="393" yMin="1241" xMax="767" yMax="1569">
      <contour>
        <pt x="393" y="1569" on="1"/>
        <pt x="582" y="1569" on="1"/>
        <pt x="611" y="1502" on="0"/>
        <pt x="718" y="1325" on="0"/>
        <pt x="767" y="1264" on="1"/>
        <pt x="767" y="1241" on="1"/>
        <pt x="673" y="1241" on="1"/>
        <pt x="605" y="1297" on="0"/>
        <pt x="515" y="1393" on="1"/>
        <pt x="426" y="1490" on="0"/>
        <pt x="393" y="1551" on="1"/>
      </contour>
    </TTGlyph>
    <TTGlyph name="greater" xMin="73" yMin="261" xMax="777" yMax="1183">
      <contour>
        <pt x="777" y="772" on="1"/>
        <pt x="777" y="675" on="1"/>
        <pt x="73" y="261" on="1"/>
        <pt x="73" y="404" on="1"/>
        <pt x="637" y="723" on="1"/>
        <pt x="73" y="1041" on="1"/>
        <pt x="73" y="1183" on="1"/>
      </contour>
    </TTGlyph>
    <TTGlyph name="guillemotleft" xMin="79" yMin="131" xMax="871" yMax="943">
      <contour>
        <pt x="479" y="883" on="1"/>
        <pt x="260" y="538" on="1"/>
        <pt x="479" y="192" on="1"/>
        <pt x="373" y="131" on="1"/>
        <pt x="79" y="524" on="1"/>
        <pt x="79" y="550" on="1"/>
        <pt x="373" y="943" on="1"/>
      </contour>
      <contour>
        <pt x="871" y="883" on="1"/>
        <pt x="653" y="538" on="1"/>
        <pt x="871" y="192" on="1"/>
        <pt x="765" y="131" on="1"/>
        <pt x="471" y="524" on="1"/>
        <pt x="471" y="550" on="1"/>
        <pt x="765" y="943" on="1"/>
      </contour>
    </TTGlyph>
    <TTGlyph name="guillemotright" xMin="79" yMin="131" xMax="871" yMax="943">
      <contour>
        <pt x="479" y="550" on="1"/>
        <pt x="479" y="524" on="1"/>
        <pt x="184" y="131" on="1"/>
        <pt x="79" y="192" on="1"/>
        <pt x="297" y="538" on="1"/>
        <pt x="79" y="883" on="1"/>
        <pt x="184" y="943" on="1"/>
      </contour>
      <contour>
        <pt x="871" y="550" on="1"/>
        <pt x="871" y="524" on="1"/>
        <pt x="577" y="131" on="1"/>
        <pt x="471" y="192" on="1"/>
        <pt x="690" y="538" on="1"/>
        <pt x="471" y="883" on="1"/>
        <pt x="577" y="943" on="1"/>
      </contour>
    </TTGlyph>
    <TTGlyph name="guilsinglleft" xMin="79" yMin="131" xMax="479" yMax="943">
      <contour>
        <pt x="479" y="883" on="1"/>
        <pt x="260" y="538" on="1"/>
        <pt x="479" y="192" on="1"/>
        <pt x="373" y="131" on="1"/>
        <pt x="79" y="524" on="1"/>
        <pt x="79" y="550" on="1"/>
        <pt x="373" y="943" on="1"/>
      </contour>
    </TTGlyph>
    <TTGlyph name="guilsinglright" xMin="79" yMin="131" xMax="479" yMax="943">
      <contour>
        <pt x="479" y="550" on="1"/>
        <pt x="479" y="524" on="1"/>
        <pt x="186" y="131" on="1"/>
        <pt x="79" y="192" on="1"/>
        <pt x="298" y="538" on="1"/>
        <pt x="79" y="883" on="1"/>
        <pt x="186" y="943" on="1"/>
      </contour>
    </TTGlyph>
    <TTGlyph name="h" xMin="134" yMin="0" xMax="797" yMax="1556">
      <contour>
        <pt x="285" y="1556" on="1"/>
        <pt x="285" y="1103" on="1"/>
        <pt x="285" y="1036" on="0"/>
        <pt x="279" y="947" on="1"/>
        <pt x="289" y="947" on="1"/>
        <pt x="322" y="1025" on="0"/>
        <pt x="449" y="1115" on="0"/>
        <pt x="525" y="1115" on="1"/>
        <pt x="666" y="1115" on="0"/>
        <pt x="797" y="929" on="0"/>
        <pt x="797" y="741" on="1"/>
        <pt x="797" y="0" on="1"/>
        <pt x="645" y="0" on="1"/>
        <pt x="645" y="720" on="1"/>
        <pt x="645" y="858" on="0"/>
        <pt x="574" y="982" on="0"/>
        <pt x="495" y="982" on="1"/>
        <pt x="388" y="982" on="0"/>
        <pt x="285" y="781" on="0"/>
        <pt x="285" y="574" on="1"/>
        <pt x="285" y="0" on="1"/>
        <pt x="134" y="0" on="1"/>
        <pt x="134" y="1556" on="1"/>
      </contour>
    </TTGlyph>
    <TTGlyph name="hedageshhb" xMin="134" yMin="0" xMax="828" yMax="1310">
      <contour>
        <pt x="443" y="1310" on="1"/>
        <pt x="656" y="1310" on="0"/>
        <pt x="828" y="1141" on="0"/>
        <pt x="828" y="920" on="1"/>
        <pt x="828" y="0" on="1"/>
        <pt x="675" y="0" on="1"/>
        <pt x="675" y="920" on="1"/>
        <pt x="675" y="1002" on="0"/>
        <pt x="650" y="1104" on="0"/>
        <pt x="588" y="1160" on="0"/>
        <pt x="501" y="1180" on="0"/>
        <pt x="323" y="1180" on="0"/>
        <pt x="134" y="1153" on="1"/>
        <pt x="134" y="1282" on="1"/>
        <pt x="297" y="1310" on="0"/>
      </contour>
      <contour>
        <pt x="134" y="0" on="1"/>
        <pt x="134" y="816" on="1"/>
        <pt x="286" y="816" on="1"/>
        <pt x="286" y="0" on="1"/>
      </contour>
      <contour>
        <pt x="478" y="732" on="1"/>
        <pt x="551" y="732" on="0"/>
        <pt x="551" y="559" on="0"/>
        <pt x="478" y="559" on="1"/>
        <pt x="408" y="559" on="0"/>
        <pt x="408" y="732" on="0"/>
      </contour>
    </TTGlyph>
    <TTGlyph name="hungarumlaut" xMin="244" yMin="1241" xMax="894" yMax="1569">
      <contour>
        <pt x="587" y="1569" on="1"/>
        <pt x="587" y="1551" on="1"/>
        <pt x="551" y="1485" on="0"/>
        <pt x="394" y="1301" on="0"/>
        <pt x="325" y="1241" on="1"/>
        <pt x="244" y="1241" on="1"/>
        <pt x="244" y="1264" on="1"/>
        <pt x="288" y="1323" on="0"/>
        <pt x="391" y="1513" on="0"/>
        <pt x="415" y="1569" on="1"/>
      </contour>
      <contour>
        <pt x="894" y="1569" on="1"/>
        <pt x="894" y="1551" on="1"/>
        <pt x="862" y="1489" on="0"/>
        <pt x="708" y="1309" on="0"/>
        <pt x="632" y="1241" on="1"/>
        <pt x="551" y="1241" on="1"/>
        <pt x="551" y="1264" on="1"/>
        <pt x="595" y="1323" on="0"/>
        <pt x="698" y="1513" on="0"/>
        <pt x="722" y="1569" on="1"/>
      </contour>
    </TTGlyph>
    <TTGlyph name="hyphen" xMin="59" yMin="479" xMax="500" yMax="624">
      <contour>
        <pt x="500" y="479" on="1"/>
        <pt x="59" y="479" on="1"/>
        <pt x="59" y="624" on="1"/>
        <pt x="500" y="624" on="1"/>
      </contour>
    </TTGlyph>
    <TTGlyph name="i" xMin="122" yMin="0" xMax="301" yMax="1503">
      <contour>
        <pt x="122" y="1444" on="0"/>
        <pt x="172" y="1503" on="0"/>
        <pt x="254" y="1503" on="0"/>
        <pt x="301" y="1444" on="0"/>
        <pt x="301" y="1341" on="0"/>
        <pt x="253" y="1282" on="0"/>
        <pt x="172" y="1282" on="0"/>
        <pt x="122" y="1341" on="0"/>
      </contour>
      <contour>
        <pt x="287" y="0" on="1"/>
        <pt x="135" y="0" on="1"/>
        <pt x="135" y="1095" on="1"/>
        <pt x="287" y="1095" on="1"/>
      </contour>
    </TTGlyph>
    <TTGlyph name="iacute" xMin="113" yMin="0" xMax="486" yMax="1569">
      <contour>
        <pt x="486" y="1569" on="1"/>
        <pt x="486" y="1550" on="1"/>
        <pt x="457" y="1495" on="0"/>
        <pt x="280" y="1302" on="0"/>
        <pt x="206" y="1241" on="1"/>
        <pt x="113" y="1241" on="1"/>
        <pt x="113" y="1263" on="1"/>
        <pt x="165" y="1332" on="0"/>
        <pt x="268" y="1503" on="0"/>
        <pt x="298" y="1569" on="1"/>
      </contour>
      <contour>
        <pt x="287" y="0" on="1"/>
        <pt x="135" y="0" on="1"/>
        <pt x="135" y="1095" on="1"/>
        <pt x="287" y="1095" on="1"/>
      </contour>
    </TTGlyph>
    <TTGlyph name="icircumflex" xMin="-65" yMin="0" xMax="485" yMax="1569">
      <contour>
        <pt x="485" y="1241" on="1"/>
        <pt x="399" y="1241" on="1"/>
        <pt x="357" y="1277" on="0"/>
        <pt x="300" y="1341" on="1"/>
        <pt x="210" y="1442" on="1"/>
        <pt x="76" y="1291" on="0"/>
        <pt x="20" y="1241" on="1"/>
        <pt x="-65" y="1241" on="1"/>
        <pt x="-65" y="1262" on="1"/>
        <pt x="76" y="1451" on="0"/>
        <pt x="132" y="1569" on="1"/>
        <pt x="287" y="1569" on="1"/>
        <pt x="308" y="1520" on="0"/>
        <pt x="420" y="1345" on="0"/>
        <pt x="485" y="1262" on="1"/>
      </contour>
      <contour>
        <pt x="287" y="0" on="1"/>
        <pt x="135" y="0" on="1"/>
        <pt x="135" y="1095" on="1"/>
        <pt x="287" y="1095" on="1"/>
      </contour>
    </TTGlyph>
    <TTGlyph name="idieresis" xMin="-41" yMin="0" xMax="466" yMax="1490">
      <contour>
        <pt x="7" y="1490" on="0"/>
        <pt x="83" y="1490" on="0"/>
        <pt x="130" y="1440" on="0"/>
        <pt x="130" y="1347" on="0"/>
        <pt x="83" y="1295" on="0"/>
        <pt x="7" y="1295" on="0"/>
        <pt x="-41" y="1346" on="0"/>
        <pt x="-41" y="1441" on="0"/>
      </contour>
      <contour>
        <pt x="342" y="1490" on="0"/>
        <pt x="418" y="1490" on="0"/>
        <pt x="466" y="1441" on="0"/>
        <pt x="466" y="1346" on="0"/>
        <pt x="419" y="1295" on="0"/>
        <pt x="343" y="1295" on="0"/>
        <pt x="295" y="1347" on="0"/>
        <pt x="295" y="1440" on="0"/>
      </contour>
      <contour>
        <pt x="287" y="0" on="1"/>
        <pt x="135" y="0" on="1"/>
        <pt x="135" y="1095" on="1"/>
        <pt x="287" y="1095" on="1"/>
      </contour>
    </TTGlyph>
    <TTGlyph name="igrave" xMin="-58" yMin="0" xMax="316" yMax="1569">
      <contour>
        <pt x="-58" y="1569" on="1"/>
        <pt x="131" y="1569" on="1"/>
        <pt x="160" y="1502" on="0"/>
        <pt x="267" y="1325" on="0"/>
        <pt x="316" y="1264" on="1"/>
        <pt x="316" y="1241" on="1"/>
        <pt x="222" y="1241" on="1"/>
        <pt x="154" y="1297" on="0"/>
        <pt x="64" y="1393" on="1"/>
        <pt x="-25" y="1490" on="0"/>
        <pt x="-58" y="1551" on="1"/>
      </contour>
      <contour>
        <pt x="287" y="0" on="1"/>
        <pt x="135" y="0" on="1"/>
        <pt x="135" y="1095" on="1"/>
        <pt x="287" y="1095" on="1"/>
      </contour>
    </TTGlyph>
    <TTGlyph name="j" xMin="-22" yMin="-492" xMax="303" yMax="1503">
      <contour>
        <pt x="124" y="1444" on="0"/>
        <pt x="174" y="1503" on="0"/>
        <pt x="257" y="1503" on="0"/>
        <pt x="303" y="1444" on="0"/>
        <pt x="303" y="1342" on="0"/>
        <pt x="256" y="1282" on="0"/>
        <pt x="175" y="1282" on="0"/>
        <pt x="124" y="1342" on="0"/>
      </contour>
      <contour>
        <pt x="289" y="1095" on="1"/>
        <pt x="289" y="-177" on="1"/>
        <pt x="289" y="-492" on="0"/>
        <pt x="69" y="-492" on="1"/>
        <pt x="13" y="-492" on="0"/>
        <pt x="-22" y="-472" on="1"/>
        <pt x="-22" y="-339" on="1"/>
        <pt x="15" y="-356" on="0"/>
        <pt x="48" y="-356" on="1"/>
        <pt x="95" y="-356" on="0"/>
        <pt x="137" y="-268" on="0"/>
        <pt x="137" y="-175" on="1"/>
        <pt x="137" y="1095" on="1"/>
      </contour>
    </TTGlyph>
    <TTGlyph name="k" xMin="134" yMin="0" xMax="784" yMax="1556">
      <contour>
        <pt x="286" y="0" on="1"/>
        <pt x="134" y="0" on="1"/>
        <pt x="134" y="1556" on="1"/>
        <pt x="286" y="1556" on="1"/>
        <pt x="286" y="753" on="1"/>
        <pt x="277" y="558" on="1"/>
        <pt x="286" y="558" on="1"/>
        <pt x="349" y="675" on="1"/>
        <pt x="601" y="1095" on="1"/>
        <pt x="763" y="1095" on="1"/>
        <pt x="503" y="676" on="1"/>
        <pt x="784" y="0" on="1"/>
        <pt x="625" y="0" on="1"/>
        <pt x="401" y="556" on="1"/>
        <pt x="286" y="419" on="1"/>
      </contour>
    </TTGlyph>
    <TTGlyph name="kafdageshhb" xMin="45" yMin="-20" xMax="598" yMax="1310">
      <contour>
        <pt x="45" y="1276" on="1"/>
        <pt x="147" y="1310" on="0"/>
        <pt x="319" y="1310" on="0"/>
        <pt x="446" y="1249" on="0"/>
        <pt x="527" y="1146" on="0"/>
        <pt x="552" y="1070" on="1"/>
        <pt x="598" y="934" on="0"/>
        <pt x="598" y="726" on="1"/>
        <pt x="598" y="528" on="1"/>
        <pt x="598" y="446" on="0"/>
        <pt x="582" y="304" on="0"/>
        <pt x="533" y="154" on="0"/>
        <pt x="456" y="48" on="0"/>
        <pt x="323" y="-20" on="0"/>
        <pt x="133" y="-20" on="0"/>
        <pt x="49" y="8" on="1"/>
        <pt x="49" y="145" on="1"/>
        <pt x="126" y="119" on="0"/>
        <pt x="201" y="112" on="0"/>
        <pt x="276" y="112" on="0"/>
        <pt x="351" y="156" on="0"/>
        <pt x="396" y="233" on="0"/>
        <pt x="426" y="316" on="0"/>
        <pt x="432" y="368" on="1"/>
        <pt x="443" y="453" on="0"/>
        <pt x="443" y="528" on="1"/>
        <pt x="443" y="726" on="1"/>
        <pt x="443" y="1174" on="0"/>
        <pt x="228" y="1174" on="1"/>
        <pt x="147" y="1174" on="0"/>
        <pt x="45" y="1135" on="1"/>
      </contour>
      <contour>
        <pt x="213" y="732" on="1"/>
        <pt x="286" y="732" on="0"/>
        <pt x="286" y="559" on="0"/>
        <pt x="213" y="559" on="1"/>
        <pt x="143" y="559" on="0"/>
        <pt x="143" y="732" on="0"/>
      </contour>
    </TTGlyph>
    <TTGlyph name="l" xMin="134" yMin="0" xMax="286" yMax="1556">
      <contour>
        <pt x="286" y="0" on="1"/>
        <pt x="134" y="0" on="1"/>
        <pt x="134" y="1556" on="1"/>
        <pt x="286" y="1556" on="1"/>
      </contour>
    </TTGlyph>
    <TTGlyph name="lameddageshhb" xMin="43" yMin="0" xMax="641" yMax="1564">
      <contour>
        <pt x="641" y="1294" on="1"/>
        <pt x="641" y="1160" on="1"/>
        <pt x="612" y="1043" on="0"/>
        <pt x="504" y="601" on="0"/>
        <pt x="480" y="503" on="1"/>
        <pt x="455" y="367" on="0"/>
        <pt x="385" y="0" on="1"/>
        <pt x="235" y="0" on="1"/>
        <pt x="244" y="52" on="0"/>
        <pt x="318" y="438" on="0"/>
        <pt x="328" y="496" on="1"/>
        <pt x="494" y="1161" on="1"/>
        <pt x="44" y="1161" on="1"/>
        <pt x="44" y="1564" on="1"/>
        <pt x="195" y="1564" on="1"/>
        <pt x="195" y="1294" on="1"/>
      </contour>
      <contour>
        <pt x="113" y="732" on="1"/>
        <pt x="186" y="732" on="0"/>
        <pt x="186" y="559" on="0"/>
        <pt x="113" y="559" on="1"/>
        <pt x="43" y="559" on="0"/>
        <pt x="43" y="732" on="0"/>
      </contour>
    </TTGlyph>
    <TTGlyph name="less" xMin="75" yMin="261" xMax="778" yMax="1183">
      <contour>
        <pt x="778" y="1041" on="1"/>
        <pt x="215" y="723" on="1"/>
        <pt x="778" y="404" on="1"/>
        <pt x="778" y="261" on="1"/>
        <pt x="75" y="675" on="1"/>
        <pt x="75" y="772" on="1"/>
        <pt x="778" y="1183" on="1"/>
      </contour>
    </TTGlyph>
    <TTGlyph name="logicalnot" xMin="75" yMin="250" xMax="763" yMax="784">
      <contour>
        <pt x="763" y="250" on="1"/>
        <pt x="643" y="250" on="1"/>
        <pt x="643" y="661" on="1"/>
        <pt x="75" y="661" on="1"/>
        <pt x="75" y="784" on="1"/>
        <pt x="763" y="784" on="1"/>
      </contour>
    </TTGlyph>
    <TTGlyph name="m" xMin="134" yMin="0" xMax="1268" yMax="1115">
      <contour>
        <pt x="257" y="1094" on="1"/>
        <pt x="273" y="946" on="1"/>
        <pt x="285" y="946" on="1"/>
        <pt x="353" y="1115" on="0"/>
        <pt x="518" y="1115" on="1"/>
        <pt x="698" y="1115" on="0"/>
        <pt x="753" y="925" on="1"/>
        <pt x="773" y="959" on="0"/>
        <pt x="796" y="996" on="0"/>
        <pt x="847" y="1057" on="0"/>
        <pt x="871" y="1073" on="1"/>
        <pt x="934" y="1115" on="0"/>
        <pt x="1010" y="1115" on="1"/>
        <pt x="1141" y="1115" on="0"/>
        <pt x="1268" y="919" on="0"/>
        <pt x="1268" y="714" on="1"/>
        <pt x="1268" y="0" on="1"/>
        <pt x="1117" y="0" on="1"/>
        <pt x="1117" y="714" on="1"/>
        <pt x="1117" y="978" on="0"/>
        <pt x="970" y="978" on="1"/>
        <pt x="868" y="978" on="0"/>
        <pt x="777" y="795" on="0"/>
        <pt x="777" y="603" on="1"/>
        <pt x="777" y="0" on="1"/>
        <pt x="625" y="0" on="1"/>
        <pt x="625" y="714" on="1"/>
        <pt x="625" y="978" on="0"/>
        <pt x="478" y="978" on="1"/>
        <pt x="377" y="978" on="0"/>
        <pt x="285" y="789" on="0"/>
        <pt x="285" y="575" on="1"/>
        <pt x="285" y="0" on="1"/>
        <pt x="134" y="0" on="1"/>
        <pt x="134" y="1094" on="1"/>
      </contour>
    </TTGlyph>
    <TTGlyph name="memdageshhb" xMin="53" yMin="0" xMax="804" yMax="1310">
      <contour>
        <pt x="494" y="1310" on="0"/>
        <pt x="596" y="1310" on="0"/>
        <pt x="678" y="1277" on="0"/>
        <pt x="731" y="1227" on="0"/>
        <pt x="770" y="1146" on="0"/>
        <pt x="790" y="1071" on="0"/>
        <pt x="796" y="1018" on="1"/>
        <pt x="804" y="936" on="0"/>
        <pt x="804" y="835" on="1"/>
        <pt x="804" y="0" on="1"/>
        <pt x="425" y="0" on="1"/>
        <pt x="425" y="127" on="1"/>
        <pt x="653" y="127" on="1"/>
        <pt x="653" y="835" on="1"/>
        <pt x="653" y="1011" on="0"/>
        <pt x="634" y="1070" on="1"/>
        <pt x="610" y="1144" on="0"/>
        <pt x="571" y="1165" on="1"/>
        <pt x="547" y="1178" on="0"/>
        <pt x="468" y="1178" on="0"/>
        <pt x="388" y="1134" on="0"/>
        <pt x="364" y="1102" on="1"/>
        <pt x="316" y="1038" on="0"/>
        <pt x="299" y="985" on="1"/>
        <pt x="292" y="963" on="1"/>
        <pt x="205" y="0" on="1"/>
        <pt x="53" y="0" on="1"/>
        <pt x="130" y="853" on="1"/>
        <pt x="140" y="968" on="0"/>
        <pt x="141" y="1045" on="0"/>
        <pt x="133" y="1104" on="0"/>
        <pt x="122" y="1151" on="0"/>
        <pt x="104" y="1211" on="0"/>
        <pt x="94" y="1242" on="0"/>
        <pt x="76" y="1289" on="0"/>
        <pt x="76" y="1290" on="1"/>
        <pt x="227" y="1290" on="1"/>
        <pt x="233" y="1275" on="0"/>
        <pt x="267" y="1167" on="0"/>
        <pt x="273" y="1140" on="1"/>
        <pt x="282" y="1140" on="1"/>
        <pt x="291" y="1162" on="0"/>
        <pt x="346" y="1228" on="0"/>
        <pt x="401" y="1273" on="0"/>
      </contour>
      <contour>
        <pt x="467" y="732" on="1"/>
        <pt x="540" y="732" on="0"/>
        <pt x="540" y="559" on="0"/>
        <pt x="467" y="559" on="1"/>
        <pt x="397" y="559" on="0"/>
        <pt x="397" y="732" on="0"/>
      </contour>
    </TTGlyph>
    <TTGlyph name="multiply" xMin="69" yMin="340" xMax="780" yMax="1103">
      <contour>
        <pt x="424" y="813" on="1"/>
        <pt x="690" y="1103" on="1"/>
        <pt x="780" y="1028" on="1"/>
        <pt x="596" y="824" on="0"/>
        <pt x="503" y="723" on="1"/>
        <pt x="776" y="419" on="1"/>
        <pt x="772" y="415" on="0"/>
        <pt x="688" y="343" on="1"/>
        <pt x="424" y="632" on="1"/>
        <pt x="158" y="340" on="1"/>
        <pt x="81" y="408" on="0"/>
        <pt x="69" y="417" on="1"/>
        <pt x="346" y="723" on="1"/>
        <pt x="206" y="876" on="0"/>
        <pt x="71" y="1025" on="1"/>
        <pt x="160" y="1100" on="1"/>
      </contour>
    </TTGlyph>
    <TTGlyph name="n" xMin="134" yMin="0" xMax="797" yMax="1115">
      <contour>
        <pt x="257" y="1094" on="1"/>
        <pt x="273" y="946" on="1"/>
        <pt x="285" y="946" on="1"/>
        <pt x="319" y="1026" on="0"/>
        <pt x="449" y="1115" on="0"/>
        <pt x="528" y="1115" on="1"/>
        <pt x="664" y="1115" on="0"/>
        <pt x="797" y="932" on="0"/>
        <pt x="797" y="742" on="1"/>
        <pt x="797" y="0" on="1"/>
        <pt x="645" y="0" on="1"/>
        <pt x="645" y="720" on="1"/>
        <pt x="645" y="982" on="0"/>
        <pt x="498" y="982" on="1"/>
        <pt x="376" y="982" on="0"/>
        <pt x="285" y="763" on="0"/>
        <pt x="285" y="496" on="1"/>
        <pt x="285" y="0" on="1"/>
        <pt x="134" y="0" on="1"/>
        <pt x="134" y="1094" on="1"/>
      </contour>
    </TTGlyph>
    <TTGlyph name="nine" xMin="77" yMin="-20" xMax="762" yMax="1482">
      <contour>
        <pt x="376" y="544" on="1"/>
        <pt x="236" y="544" on="0"/>
        <pt x="77" y="790" on="0"/>
        <pt x="77" y="1225" on="0"/>
        <pt x="262" y="1482" on="0"/>
        <pt x="588" y="1482" on="0"/>
        <pt x="762" y="1155" on="0"/>
        <pt x="762" y="847" on="1"/>
        <pt x="762" y="415" on="0"/>
        <pt x="523" y="-20" on="0"/>
        <pt x="288" y="-20" on="1"/>
        <pt x="203" y="-20" on="0"/>
        <pt x="145" y="0" on="1"/>
        <pt x="145" y="139" on="1"/>
        <pt x="206" y="116" on="0"/>
        <pt x="284" y="116" on="1"/>
        <pt x="437" y="116" on="0"/>
        <pt x="605" y="416" on="0"/>
        <pt x="615" y="708" on="1"/>
        <pt x="607" y="708" on="1"/>
        <pt x="573" y="630" on="0"/>
        <pt x="454" y="544" on="0"/>
      </contour>
      <contour>
        <pt x="606" y="1135" on="0"/>
        <pt x="501" y="1342" on="0"/>
        <pt x="330" y="1342" on="0"/>
        <pt x="232" y="1172" on="0"/>
        <pt x="232" y="846" on="0"/>
        <pt x="323" y="678" on="0"/>
        <pt x="497" y="678" on="0"/>
        <pt x="606" y="837" on="0"/>
        <pt x="606" y="957" on="1"/>
      </contour>
    </TTGlyph>
    <TTGlyph name="ntilde" xMin="134" yMin="0" xMax="797" yMax="1483">
      <contour>
        <pt x="597" y="1242" on="1"/>
        <pt x="563" y="1242" on="0"/>
        <pt x="487" y="1280" on="0"/>
        <pt x="460" y="1302" on="1"/>
        <pt x="387" y="1363" on="0"/>
        <pt x="350" y="1363" on="1"/>
        <pt x="287" y="1363" on="0"/>
        <pt x="268" y="1240" on="1"/>
        <pt x="172" y="1240" on="1"/>
        <pt x="184" y="1357" on="0"/>
        <pt x="277" y="1481" on="0"/>
        <pt x="355" y="1481" on="1"/>
        <pt x="398" y="1481" on="0"/>
        <pt x="492" y="1421" on="0"/>
        <pt x="574" y="1361" on="0"/>
        <pt x="636" y="1361" on="0"/>
        <pt x="670" y="1421" on="0"/>
        <pt x="681" y="1483" on="1"/>
        <pt x="777" y="1483" on="1"/>
        <pt x="767" y="1366" on="0"/>
        <pt x="673" y="1242" on="0"/>
      </contour>
      <contour>
        <pt x="257" y="1094" on="1"/>
        <pt x="273" y="946" on="1"/>
        <pt x="285" y="946" on="1"/>
        <pt x="319" y="1026" on="0"/>
        <pt x="449" y="1115" on="0"/>
        <pt x="528" y="1115" on="1"/>
        <pt x="664" y="1115" on="0"/>
        <pt x="797" y="932" on="0"/>
        <pt x="797" y="742" on="1"/>
        <pt x="797" y="0" on="1"/>
        <pt x="645" y="0" on="1"/>
        <pt x="645" y="720" on="1"/>
        <pt x="645" y="982" on="0"/>
        <pt x="498" y="982" on="1"/>
        <pt x="376" y="982" on="0"/>
        <pt x="285" y="763" on="0"/>
        <pt x="285" y="496" on="1"/>
        <pt x="285" y="0" on="1"/>
        <pt x="134" y="0" on="1"/>
        <pt x="134" y="1094" on="1"/>
      </contour>
    </TTGlyph>
    <TTGlyph name="numbersign" xMin="38" yMin="0" xMax="910" yMax="1462">
      <contour>
        <pt x="910" y="1044" on="1"/>
        <pt x="910" y="923" on="1"/>
        <pt x="720" y="923" on="1"/>
        <pt x="678" y="573" on="1"/>
        <pt x="861" y="573" on="1"/>
        <pt x="861" y="448" on="1"/>
        <pt x="662" y="448" on="1"/>
        <pt x="607" y="0" on="1"/>
        <pt x="489" y="0" on="1"/>
        <pt x="546" y="448" on="1"/>
        <pt x="330" y="448" on="1"/>
        <pt x="274" y="0" on="1"/>
        <pt x="159" y="0" on="1"/>
        <pt x="213" y="448" on="1"/>
        <pt x="38" y="448" on="1"/>
        <pt x="38" y="573" on="1"/>
        <pt x="229" y="573" on="1"/>
        <pt x="272" y="923" on="1"/>
        <pt x="86" y="923" on="1"/>
        <pt x="86" y="1044" on="1"/>
        <pt x="288" y="1044" on="1"/>
        <pt x="339" y="1462" on="1"/>
        <pt x="456" y="1462" on="1"/>
        <pt x="403" y="1044" on="1"/>
        <pt x="622" y="1044" on="1"/>
        <pt x="675" y="1462" on="1"/>
        <pt x="788" y="1462" on="1"/>
        <pt x="737" y="1044" on="1"/>
      </contour>
      <contour>
        <pt x="387" y="923" on="1"/>
        <pt x="346" y="573" on="1"/>
        <pt x="561" y="573" on="1"/>
        <pt x="605" y="923" on="1"/>
      </contour>
    </TTGlyph>
    <TTGlyph name="nundageshhb" xMin="40" yMin="0" xMax="489" yMax="1310">
      <contour>
        <pt x="91" y="1293" on="1"/>
        <pt x="165" y="1310" on="0"/>
        <pt x="269" y="1310" on="0"/>
        <pt x="353" y="1289" on="0"/>
        <pt x="410" y="1255" on="0"/>
        <pt x="450" y="1196" on="0"/>
        <pt x="473" y="1138" on="0"/>
        <pt x="480" y="1094" on="1"/>
        <pt x="489" y="1030" on="0"/>
        <pt x="489" y="921" on="1"/>
        <pt x="489" y="340" on="1"/>
        <pt x="489" y="264" on="0"/>
        <pt x="468" y="94" on="0"/>
        <pt x="458" y="47" on="1"/>
        <pt x="447" y="0" on="1"/>
        <pt x="40" y="0" on="1"/>
        <pt x="40" y="127" on="1"/>
        <pt x="314" y="127" on="1"/>
        <pt x="338" y="210" on="0"/>
        <pt x="338" y="340" on="1"/>
        <pt x="338" y="988" on="1"/>
        <pt x="338" y="1071" on="0"/>
        <pt x="314" y="1120" on="1"/>
        <pt x="285" y="1178" on="0"/>
        <pt x="198" y="1178" on="1"/>
        <pt x="162" y="1178" on="0"/>
        <pt x="91" y="1161" on="1"/>
      </contour>
      <contour>
        <pt x="187" y="732" on="1"/>
        <pt x="260" y="732" on="0"/>
        <pt x="260" y="559" on="0"/>
        <pt x="187" y="559" on="1"/>
        <pt x="117" y="559" on="0"/>
        <pt x="117" y="732" on="0"/>
      </contour>
    </TTGlyph>
    <TTGlyph name="o" xMin="87" yMin="-20" xMax="816" yMax="1115">
      <contour>
        <pt x="87" y="822" on="0"/>
        <pt x="276" y="1115" on="0"/>
        <pt x="622" y="1115" on="0"/>
        <pt x="816" y="814" on="0"/>
        <pt x="816" y="276" on="0"/>
        <pt x="624" y="-20" on="0"/>
        <pt x="279" y="-20" on="0"/>
        <pt x="87" y="277" on="0"/>
      </contour>
      <contour>
        <pt x="451" y="980" on="1"/>
        <pt x="342" y="980" on="0"/>
        <pt x="243" y="768" on="0"/>
        <pt x="243" y="332" on="0"/>
        <pt x="344" y="115" on="0"/>
        <pt x="451" y="115" on="1"/>
        <pt x="659" y="115" on="0"/>
        <pt x="659" y="980" on="0"/>
      </contour>
    </TTGlyph>
    <TTGlyph name="oacute" xMin="87" yMin="-20" xMax="816" yMax="1569">
      <contour>
        <pt x="722" y="1569" on="1"/>
        <pt x="722" y="1550" on="1"/>
        <pt x="693" y="1495" on="0"/>
        <pt x="516" y="1302" on="0"/>
        <pt x="442" y="1241" on="1"/>
        <pt x="349" y="1241" on="1"/>
        <pt x="349" y="1263" on="1"/>
        <pt x="401" y="1332" on="0"/>
        <pt x="504" y="1503" on="0"/>
        <pt x="534" y="1569" on="1"/>
      </contour>
      <contour>
        <pt x="87" y="822" on="0"/>
        <pt x="276" y="1115" on="0"/>
        <pt x="622" y="1115" on="0"/>
        <pt x="816" y="814" on="0"/>
        <pt x="816" y="276" on="0"/>
        <pt x="624" y="-20" on="0"/>
        <pt x="279" y="-20" on="0"/>
        <pt x="87" y="277" on="0"/>
      </contour>
      <contour>
        <pt x="451" y="980" on="1"/>
        <pt x="342" y="980" on="0"/>
        <pt x="243" y="768" on="0"/>
        <pt x="243" y="332" on="0"/>
        <pt x="344" y="115" on="0"/>
        <pt x="451" y="115" on="1"/>
        <pt x="659" y="115" on="0"/>
        <pt x="659" y="980" on="0"/>
      </contour>
    </TTGlyph>
    <TTGlyph name="ocircumflex" xMin="87" yMin="-20" xMax="816" yMax="1569">
      <contour>
        <pt x="728" y="1241" on="1"/>
        <pt x="642" y="1241" on="1"/>
        <pt x="600" y="1277" on="0"/>
        <pt x="543" y="1341" on="1"/>
        <pt x="453" y="1442" on="1"/>
        <pt x="319" y="1291" on="0"/>
        <pt x="263" y="1241" on="1"/>
        <pt x="178" y="1241" on="1"/>
        <pt x="178" y="1262" on="1"/>
        <pt x="319" y="1451" on="0"/>
        <pt x="375" y="1569" on="1"/>
        <pt x="530" y="1569" on="1"/>
        <pt x="551" y="1520" on="0"/>
        <pt x="663" y="1345" on="0"/>
        <pt x="728" y="1262" on="1"/>
      </contour>
      <contour>
        <pt x="87" y="822" on="0"/>
        <pt x="276" y="1115" on="0"/>
        <pt x="622" y="1115" on="0"/>
        <pt x="816" y="814" on="0"/>
        <pt x="816" y="276" on="0"/>
        <pt x="624" y="-20" on="0"/>
        <pt x="279" y="-20" on="0"/>
        <pt x="87" y="277" on="0"/>
      </contour>
      <contour>
        <pt x="451" y="980" on="1"/>
        <pt x="342" y="980" on="0"/>
        <pt x="243" y="768" on="0"/>
        <pt x="243" y="332" on="0"/>
        <pt x="344" y="115" on="0"/>
        <pt x="451" y="115" on="1"/>
        <pt x="659" y="115" on="0"/>
        <pt x="659" y="980" on="0"/>
      </contour>
    </TTGlyph>
    <TTGlyph name="odieresis" xMin="87" yMin="-20" xMax="816" yMax="1490">
      <contour>
        <pt x="247" y="1490" on="0"/>
        <pt x="323" y="1490" on="0"/>
        <pt x="370" y="1440" on="0"/>
        <pt x="370" y="1347" on="0"/>
        <pt x="323" y="1295" on="0"/>
        <pt x="247" y="1295" on="0"/>
        <pt x="199" y="1346" on="0"/>
        <pt x="199" y="1441" on="0"/>
      </contour>
      <contour>
        <pt x="582" y="1490" on="0"/>
        <pt x="658" y="1490" on="0"/>
        <pt x="706" y="1441" on="0"/>
        <pt x="706" y="1346" on="0"/>
        <pt x="659" y="1295" on="0"/>
        <pt x="583" y="1295" on="0"/>
        <pt x="535" y="1347" on="0"/>
        <pt x="535" y="1440" on="0"/>
      </contour>
      <contour>
        <pt x="87" y="822" on="0"/>
        <pt x="276" y="1115" on="0"/>
        <pt x="622" y="1115" on="0"/>
        <pt x="816" y="814" on="0"/>
        <pt x="816" y="276" on="0"/>
        <pt x="624" y="-20" on="0"/>
        <pt x="279" y="-20" on="0"/>
        <pt x="87" y="277" on="0"/>
      </contour>
      <contour>
        <pt x="451" y="980" on="1"/>
        <pt x="342" y="980" on="0"/>
        <pt x="243" y="768" on="0"/>
        <pt x="243" y="332" on="0"/>
        <pt x="344" y="115" on="0"/>
        <pt x="451" y="115" on="1"/>
        <pt x="659" y="115" on="0"/>
        <pt x="659" y="980" on="0"/>
      </contour>
    </TTGlyph>
    <TTGlyph name="oe" xMin="87" yMin="-20" xMax="1332" yMax="1115">
      <contour>
        <pt x="1046" y="-20" on="1"/>
        <pt x="834" y="-20" on="0"/>
        <pt x="737" y="181" on="1"/>
        <pt x="646" y="-20" on="0"/>
        <pt x="449" y="-20" on="1"/>
        <pt x="279" y="-20" on="0"/>
        <pt x="87" y="277" on="0"/>
        <pt x="87" y="825" on="0"/>
        <pt x="272" y="1115" on="0"/>
        <pt x="640" y="1115" on="0"/>
        <pt x="733" y="917" on="1"/>
        <pt x="822" y="1115" on="0"/>
        <pt x="1009" y="1115" on="1"/>
        <pt x="1158" y="1115" on="0"/>
        <pt x="1332" y="855" on="0"/>
        <pt x="1332" y="631" on="1"/>
        <pt x="1332" y="525" on="1"/>
        <pt x="812" y="525" on="1"/>
        <pt x="819" y="110" on="0"/>
        <pt x="1068" y="110" on="1"/>
        <pt x="1176" y="110" on="0"/>
        <pt x="1294" y="180" on="1"/>
        <pt x="1294" y="48" on="1"/>
        <pt x="1181" y="-20" on="0"/>
      </contour>
      <contour>
        <pt x="1183" y="646" on="1"/>
        <pt x="1183" y="804" on="0"/>
        <pt x="1087" y="988" on="0"/>
        <pt x="1004" y="988" on="1"/>
        <pt x="831" y="988" on="0"/>
        <pt x="815" y="646" on="1"/>
      </contour>
      <contour>
        <pt x="658" y="532" on="1"/>
        <pt x="658" y="549" on="1"/>
        <pt x="658" y="980" on="0"/>
        <pt x="451" y="980" on="1"/>
        <pt x="342" y="980" on="0"/>
        <pt x="243" y="768" on="0"/>
        <pt x="243" y="549" on="1"/>
        <pt x="243" y="112" on="0"/>
        <pt x="658" y="112" on="0"/>
      </contour>
    </TTGlyph>
    <TTGlyph name="ogonek" xMin="37" yMin="-457" xMax="339" yMax="0">
      <contour>
        <pt x="322" y="-426" on="1"/>
        <pt x="275" y="-457" on="0"/>
        <pt x="112" y="-457" on="0"/>
        <pt x="58" y="-415" on="1"/>
        <pt x="37" y="-361" on="0"/>
        <pt x="37" y="-285" on="1"/>
        <pt x="84" y="-241" on="1"/>
        <pt x="136" y="-203" on="0"/>
        <pt x="136" y="-159" on="1"/>
        <pt x="136" y="-127" on="0"/>
        <pt x="98" y="-109" on="1"/>
        <pt x="137" y="-44" on="0"/>
        <pt x="179" y="0" on="1"/>
        <pt x="285" y="0" on="1"/>
        <pt x="191" y="-100" on="0"/>
        <pt x="185" y="-199" on="1"/>
        <pt x="220" y="-279" on="0"/>
        <pt x="298" y="-314" on="1"/>
        <pt x="339" y="-327" on="1"/>
        <pt x="339" y="-380" on="0"/>
      </contour>
    </TTGlyph>
    <TTGlyph name="ograve" xMin="87" yMin="-20" xMax="816" yMax="1569">
      <contour>
        <pt x="190" y="1569" on="1"/>
        <pt x="379" y="1569" on="1"/>
        <pt x="408" y="1502" on="0"/>
        <pt x="515" y="1325" on="0"/>
        <pt x="564" y="1264" on="1"/>
        <pt x="564" y="1241" on="1"/>
        <pt x="470" y="1241" on="1"/>
        <pt x="402" y="1297" on="0"/>
        <pt x="312" y="1393" on="1"/>
        <pt x="223" y="1490" on="0"/>
        <pt x="190" y="1551" on="1"/>
      </contour>
      <contour>
        <pt x="87" y="822" on="0"/>
        <pt x="276" y="1115" on="0"/>
        <pt x="622" y="1115" on="0"/>
        <pt x="816" y="814" on="0"/>
        <pt x="816" y="276" on="0"/>
        <pt x="624" y="-20" on="0"/>
        <pt x="279" y="-20" on="0"/>
        <pt x="87" y="277" on="0"/>
      </contour>
      <contour>
        <pt x="451" y="980" on="1"/>
        <pt x="342" y="980" on="0"/>
        <pt x="243" y="768" on="0"/>
        <pt x="243" y="332" on="0"/>
        <pt x="344" y="115" on="0"/>
        <pt x="451" y="115" on="1"/>
        <pt x="659" y="115" on="0"/>
        <pt x="659" y="980" on="0"/>
      </contour>
    </TTGlyph>
    <TTGlyph name="one" xMin="133" yMin="0" xMax="584" yMax="1462">
      <contour>
        <pt x="584" y="0" on="1"/>
        <pt x="431" y="0" on="1"/>
        <pt x="431" y="1003" on="1"/>
        <pt x="431" y="1121" on="0"/>
        <pt x="441" y="1299" on="1"/>
        <pt x="409" y="1256" on="0"/>
        <pt x="352" y="1202" on="1"/>
        <pt x="257" y="1112" on="0"/>
        <pt x="217" y="1072" on="1"/>
        <pt x="133" y="1169" on="1"/>
        <pt x="450" y="1462" on="1"/>
        <pt x="584" y="1462" on="1"/>
      </contour>
    </TTGlyph>
    <TTGlyph name="onehalf" xMin="54" yMin="0" xMax="1394" yMax="1462">
      <contour>
        <pt x="408" y="586" on="1"/>
        <pt x="286" y="586" on="1"/>
        <pt x="286" y="1067" on="1"/>
        <pt x="286" y="1244" on="0"/>
        <pt x="293" y="1332" on="1"/>
        <pt x="261" y="1300" on="0"/>
        <pt x="201" y="1252" on="0"/>
        <pt x="117" y="1189" on="1"/>
        <pt x="54" y="1271" on="1"/>
        <pt x="303" y="1462" on="1"/>
        <pt x="408" y="1462" on="1"/>
      </contour>
      <contour>
        <pt x="389" y="0" on="1"/>
        <pt x="260" y="0" on="1"/>
        <pt x="1019" y="1462" on="1"/>
        <pt x="1148" y="1462" on="1"/>
      </contour>
      <contour>
        <pt x="891" y="1" on="1"/>
        <pt x="891" y="105" on="1"/>
        <pt x="952" y="179" on="0"/>
        <pt x="1186" y="459" on="0"/>
        <pt x="1249" y="575" on="0"/>
        <pt x="1249" y="654" on="1"/>
        <pt x="1249" y="710" on="0"/>
        <pt x="1181" y="781" on="0"/>
        <pt x="1125" y="781" on="1"/>
        <pt x="1042" y="781" on="0"/>
        <pt x="962" y="697" on="1"/>
        <pt x="914" y="755" on="0"/>
        <pt x="891" y="784" on="1"/>
        <pt x="996" y="898" on="0"/>
        <pt x="1134" y="898" on="1"/>
        <pt x="1248" y="898" on="0"/>
        <pt x="1377" y="771" on="0"/>
        <pt x="1377" y="660" on="1"/>
        <pt x="1377" y="553" on="0"/>
        <pt x="1320" y="466" on="1"/>
        <pt x="1289" y="417" on="0"/>
        <pt x="1170" y="273" on="0"/>
        <pt x="1137" y="233" on="0"/>
        <pt x="1054" y="135" on="0"/>
        <pt x="1039" y="117" on="1"/>
        <pt x="1394" y="117" on="1"/>
        <pt x="1394" y="1" on="1"/>
      </contour>
    </TTGlyph>
    <TTGlyph name="onequarter" xMin="54" yMin="0" xMax="1362" yMax="1462">
      <contour>
        <pt x="408" y="586" on="1"/>
        <pt x="285" y="586" on="1"/>
        <pt x="285" y="1067" on="1"/>
        <pt x="291" y="1312" on="0"/>
        <pt x="292" y="1332" on="1"/>
        <pt x="292" y="1332" on="0"/>
        <pt x="268" y="1308" on="1"/>
        <pt x="249" y="1289" on="0"/>
        <pt x="137" y="1205" on="0"/>
        <pt x="117" y="1189" on="1"/>
        <pt x="54" y="1271" on="1"/>
        <pt x="302" y="1462" on="1"/>
        <pt x="408" y="1462" on="1"/>
      </contour>
      <contour>
        <pt x="404" y="0" on="1"/>
        <pt x="276" y="0" on="1"/>
        <pt x="1035" y="1462" on="1"/>
        <pt x="1164" y="1462" on="1"/>
      </contour>
      <contour>
        <pt x="798" y="285" on="1"/>
        <pt x="1141" y="883" on="1"/>
        <pt x="1258" y="883" on="1"/>
        <pt x="1258" y="301" on="1"/>
        <pt x="1362" y="301" on="1"/>
        <pt x="1362" y="193" on="1"/>
        <pt x="1258" y="193" on="1"/>
        <pt x="1258" y="1" on="1"/>
        <pt x="1136" y="1" on="1"/>
        <pt x="1136" y="193" on="1"/>
        <pt x="798" y="193" on="1"/>
      </contour>
      <contour>
        <pt x="1136" y="301" on="1"/>
        <pt x="1136" y="566" on="1"/>
        <pt x="1138" y="680" on="0"/>
        <pt x="1140" y="721" on="1"/>
        <pt x="1089" y="603" on="0"/>
        <pt x="918" y="301" on="1"/>
      </contour>
    </TTGlyph>
    <TTGlyph name="onesuperior" xMin="76" yMin="586" xMax="430" yMax="1462">
      <contour>
        <pt x="430" y="586" on="1"/>
        <pt x="308" y="586" on="1"/>
        <pt x="308" y="1067" on="1"/>
        <pt x="308" y="1244" on="0"/>
        <pt x="315" y="1332" on="1"/>
        <pt x="283" y="1300" on="0"/>
        <pt x="223" y="1252" on="0"/>
        <pt x="139" y="1189" on="1"/>
        <pt x="76" y="1271" on="1"/>
        <pt x="325" y="1462" on="1"/>
        <pt x="430" y="1462" on="1"/>
      </contour>
    </TTGlyph>
    <TTGlyph name="ordfeminine" xMin="57" yMin="789" xMax="503" yMax="1479">
      <contour>
        <pt x="393" y="1250" on="1"/>
        <pt x="393" y="1320" on="0"/>
        <pt x="343" y="1383" on="0"/>
        <pt x="224" y="1383" on="0"/>
        <pt x="145" y="1338" on="1"/>
        <pt x="115" y="1407" on="0"/>
        <pt x="108" y="1423" on="1"/>
        <pt x="205" y="1479" on="0"/>
        <pt x="409" y="1479" on="0"/>
        <pt x="503" y="1368" on="0"/>
        <pt x="503" y="1253" on="1"/>
        <pt x="503" y="801" on="1"/>
        <pt x="426" y="801" on="1"/>
        <pt x="414" y="861" on="0"/>
        <pt x="407" y="892" on="1"/>
        <pt x="363" y="840" on="0"/>
        <pt x="278" y="789" on="0"/>
        <pt x="224" y="789" on="1"/>
        <pt x="148" y="789" on="0"/>
        <pt x="57" y="892" on="0"/>
        <pt x="57" y="1081" on="0"/>
        <pt x="176" y="1184" on="0"/>
        <pt x="304" y="1193" on="1"/>
        <pt x="393" y="1199" on="1"/>
      </contour>
      <contour>
        <pt x="171" y="984" on="1"/>
        <pt x="171" y="882" on="0"/>
        <pt x="256" y="882" on="1"/>
        <pt x="321" y="882" on="0"/>
        <pt x="393" y="978" on="0"/>
        <pt x="393" y="1063" on="1"/>
        <pt x="393" y="1120" on="1"/>
        <pt x="327" y="1113" on="1"/>
        <pt x="243" y="1104" on="0"/>
        <pt x="171" y="1047" on="0"/>
      </contour>
    </TTGlyph>
    <TTGlyph name="ordmasculine" xMin="67" yMin="789" xMax="574" yMax="1479">
      <contour>
        <pt x="67" y="1298" on="0"/>
        <pt x="200" y="1479" on="0"/>
        <pt x="440" y="1479" on="0"/>
        <pt x="574" y="1301" on="0"/>
        <pt x="574" y="968" on="0"/>
        <pt x="442" y="789" on="0"/>
        <pt x="197" y="789" on="0"/>
        <pt x="67" y="969" on="0"/>
      </contour>
      <contour>
        <pt x="320" y="1378" on="1"/>
        <pt x="184" y="1378" on="0"/>
        <pt x="184" y="1135" on="1"/>
        <pt x="184" y="1007" on="0"/>
        <pt x="249" y="889" on="0"/>
        <pt x="393" y="889" on="0"/>
        <pt x="457" y="1006" on="0"/>
        <pt x="457" y="1262" on="0"/>
        <pt x="391" y="1378" on="0"/>
      </contour>
    </TTGlyph>
    <TTGlyph name="oslash" xMin="84" yMin="-127" xMax="819" yMax="1190">
      <contour>
        <pt x="271" y="38" on="1"/>
        <pt x="263" y="23" on="0"/>
        <pt x="188" y="-127" on="1"/>
        <pt x="84" y="-74" on="1"/>
        <pt x="169" y="93" on="0"/>
        <pt x="185" y="126" on="1"/>
        <pt x="87" y="277" on="0"/>
        <pt x="87" y="823" on="0"/>
        <pt x="275" y="1115" on="0"/>
        <pt x="453" y="1115" on="1"/>
        <pt x="563" y="1115" on="0"/>
        <pt x="643" y="1044" on="1"/>
        <pt x="716" y="1190" on="1"/>
        <pt x="733" y="1181" on="0"/>
        <pt x="819" y="1138" on="1"/>
        <pt x="727" y="951" on="1"/>
        <pt x="816" y="802" on="0"/>
        <pt x="816" y="275" on="0"/>
        <pt x="625" y="-20" on="0"/>
        <pt x="449" y="-20" on="1"/>
        <pt x="343" y="-20" on="0"/>
      </contour>
      <contour>
        <pt x="451" y="980" on="1"/>
        <pt x="342" y="980" on="0"/>
        <pt x="240" y="766" on="0"/>
        <pt x="240" y="549" on="1"/>
        <pt x="240" y="416" on="0"/>
        <pt x="266" y="292" on="1"/>
        <pt x="406" y="569" on="0"/>
        <pt x="579" y="917" on="1"/>
        <pt x="530" y="980" on="0"/>
      </contour>
      <contour>
        <pt x="451" y="115" on="1"/>
        <pt x="556" y="115" on="0"/>
        <pt x="663" y="335" on="0"/>
        <pt x="663" y="549" on="1"/>
        <pt x="662" y="687" on="0"/>
        <pt x="640" y="778" on="1"/>
        <pt x="334" y="164" on="1"/>
        <pt x="376" y="115" on="0"/>
      </contour>
    </TTGlyph>
    <TTGlyph name="otilde" xMin="87" yMin="-20" xMax="816" yMax="1483">
      <contour>
        <pt x="578" y="1242" on="1"/>
        <pt x="544" y="1242" on="0"/>
        <pt x="468" y="1280" on="0"/>
        <pt x="441" y="1302" on="1"/>
        <pt x="368" y="1363" on="0"/>
        <pt x="331" y="1363" on="1"/>
        <pt x="268" y="1363" on="0"/>
        <pt x="249" y="1240" on="1"/>
        <pt x="153" y="1240" on="1"/>
        <pt x="165" y="1357" on="0"/>
        <pt x="258" y="1481" on="0"/>
        <pt x="336" y="1481" on="1"/>
        <pt x="379" y="1481" on="0"/>
        <pt x="473" y="1421" on="0"/>
        <pt x="555" y="1361" on="0"/>
        <pt x="617" y="1361" on="0"/>
        <pt x="651" y="1421" on="0"/>
        <pt x="662" y="1483" on="1"/>
        <pt x="758" y="1483" on="1"/>
        <pt x="748" y="1366" on="0"/>
        <pt x="654" y="1242" on="0"/>
      </contour>
      <contour>
        <pt x="87" y="822" on="0"/>
        <pt x="276" y="1115" on="0"/>
        <pt x="622" y="1115" on="0"/>
        <pt x="816" y="814" on="0"/>
        <pt x="816" y="276" on="0"/>
        <pt x="624" y="-20" on="0"/>
        <pt x="279" y="-20" on="0"/>
        <pt x="87" y="277" on="0"/>
      </contour>
      <contour>
        <pt x="451" y="980" on="1"/>
        <pt x="342" y="980" on="0"/>
        <pt x="243" y="768" on="0"/>
        <pt x="243" y="332" on="0"/>
        <pt x="344" y="115" on="0"/>
        <pt x="451" y="115" on="1"/>
        <pt x="659" y="115" on="0"/>
        <pt x="659" y="980" on="0"/>
      </contour>
    </TTGlyph>
    <TTGlyph name="overscore" xMin="-7" yMin="1556" xMax="909" yMax="1673">
      <contour>
        <pt x="909" y="1556" on="1"/>
        <pt x="-7" y="1556" on="1"/>
        <pt x="-7" y="1673" on="1"/>
        <pt x="909" y="1673" on="1"/>
      </contour>
    </TTGlyph>
    <TTGlyph name="p" xMin="134" yMin="-492" xMax="846" yMax="1112">
      <contour>
        <pt x="536" y="1112" on="1"/>
        <pt x="687" y="1112" on="0"/>
        <pt x="846" y="819" on="0"/>
        <pt x="846" y="278" on="0"/>
        <pt x="683" y="-20" on="0"/>
        <pt x="532" y="-20" on="1"/>
        <pt x="453" y="-20" on="0"/>
        <pt x="326" y="63" on="0"/>
        <pt x="287" y="142" on="1"/>
        <pt x="276" y="142" on="1"/>
        <pt x="285" y="39" on="0"/>
        <pt x="286" y="8" on="1"/>
        <pt x="286" y="-492" on="1"/>
        <pt x="134" y="-492" on="1"/>
        <pt x="134" y="1094" on="1"/>
        <pt x="254" y="1094" on="1"/>
        <pt x="276" y="946" on="1"/>
        <pt x="286" y="946" on="1"/>
        <pt x="367" y="1112" on="0"/>
      </contour>
      <contour>
        <pt x="285" y="554" on="1"/>
        <pt x="285" y="327" on="0"/>
        <pt x="387" y="113" on="0"/>
        <pt x="594" y="113" on="0"/>
        <pt x="690" y="328" on="0"/>
        <pt x="690" y="769" on="0"/>
        <pt x="597" y="980" on="0"/>
        <pt x="386" y="980" on="0"/>
        <pt x="286" y="791" on="0"/>
        <pt x="285" y="586" on="1"/>
      </contour>
    </TTGlyph>
    <TTGlyph name="paragraph" xMin="121" yMin="-260" xMax="827" yMax="1556">
      <contour>
        <pt x="827" y="-260" on="1"/>
        <pt x="714" y="-260" on="1"/>
        <pt x="714" y="1428" on="1"/>
        <pt x="563" y="1428" on="1"/>
        <pt x="563" y="-260" on="1"/>
        <pt x="449" y="-260" on="1"/>
        <pt x="449" y="559" on="1"/>
        <pt x="414" y="541" on="0"/>
        <pt x="368" y="541" on="1"/>
        <pt x="241" y="541" on="0"/>
        <pt x="121" y="787" on="0"/>
        <pt x="121" y="1301" on="0"/>
        <pt x="261" y="1556" on="0"/>
        <pt x="409" y="1556" on="1"/>
        <pt x="827" y="1556" on="1"/>
      </contour>
    </TTGlyph>
    <TTGlyph name="parenleft" xMin="94" yMin="-324" xMax="523" yMax="1462">
      <contour>
        <pt x="388" y="1267" on="0"/>
        <pt x="247" y="803" on="0"/>
        <pt x="247" y="322" on="0"/>
        <pt x="393" y="-148" on="0"/>
        <pt x="521" y="-324" on="1"/>
        <pt x="392" y="-324" on="1"/>
        <pt x="249" y="-157" on="0"/>
        <pt x="94" y="302" on="0"/>
        <pt x="94" y="819" on="0"/>
        <pt x="250" y="1290" on="0"/>
        <pt x="392" y="1462" on="1"/>
        <pt x="523" y="1462" on="1"/>
      </contour>
    </TTGlyph>
    <TTGlyph name="parenright" xMin="74" yMin="-324" xMax="504" yMax="1462">
      <contour>
        <pt x="348" y="1290" on="0"/>
        <pt x="504" y="818" on="0"/>
        <pt x="504" y="303" on="0"/>
        <pt x="349" y="-156" on="0"/>
        <pt x="205" y="-324" on="1"/>
        <pt x="76" y="-324" on="1"/>
        <pt x="206" y="-142" on="0"/>
        <pt x="350" y="325" on="0"/>
        <pt x="350" y="805" on="0"/>
        <pt x="210" y="1266" on="0"/>
        <pt x="74" y="1462" on="1"/>
        <pt x="205" y="1462" on="1"/>
      </contour>
    </TTGlyph>
    <TTGlyph name="pedageshhb" xMin="81" yMin="-20" xMax="815" yMax="1310">
      <contour>
        <pt x="249" y="443" on="0"/>
        <pt x="81" y="656" on="0"/>
        <pt x="81" y="1063" on="0"/>
        <pt x="283" y="1310" on="0"/>
        <pt x="440" y="1310" on="1"/>
        <pt x="566" y="1310" on="0"/>
        <pt x="656" y="1219" on="1"/>
        <pt x="757" y="1118" on="0"/>
        <pt x="794" y="905" on="1"/>
        <pt x="815" y="790" on="0"/>
        <pt x="815" y="500" on="0"/>
        <pt x="772" y="270" on="0"/>
        <pt x="699" y="121" on="0"/>
        <pt x="648" y="72" on="1"/>
        <pt x="555" y="-20" on="0"/>
        <pt x="428" y="-20" on="1"/>
        <pt x="310" y="-20" on="0"/>
        <pt x="210" y="-2" on="1"/>
        <pt x="178" y="3" on="1"/>
        <pt x="178" y="136" on="1"/>
        <pt x="311" y="112" on="0"/>
        <pt x="428" y="112" on="1"/>
        <pt x="659" y="112" on="0"/>
        <pt x="659" y="645" on="1"/>
        <pt x="659" y="954" on="0"/>
        <pt x="594" y="1072" on="1"/>
        <pt x="563" y="1129" on="0"/>
        <pt x="489" y="1178" on="0"/>
        <pt x="384" y="1178" on="0"/>
        <pt x="297" y="1110" on="0"/>
        <pt x="274" y="1058" on="1"/>
        <pt x="229" y="955" on="0"/>
        <pt x="229" y="857" on="1"/>
        <pt x="229" y="714" on="0"/>
        <pt x="318" y="562" on="0"/>
        <pt x="421" y="558" on="1"/>
        <pt x="443" y="556" on="1"/>
        <pt x="416" y="436" on="1"/>
        <pt x="395" y="438" on="1"/>
      </contour>
      <contour>
        <pt x="452" y="960" on="1"/>
        <pt x="525" y="960" on="0"/>
        <pt x="525" y="787" on="0"/>
        <pt x="452" y="787" on="1"/>
        <pt x="382" y="787" on="0"/>
        <pt x="382" y="960" on="0"/>
      </contour>
    </TTGlyph>
    <TTGlyph name="percent" xMin="84" yMin="-19" xMax="1238" yMax="1483">
      <contour>
        <pt x="84" y="1250" on="0"/>
        <pt x="200" y="1483" on="0"/>
        <pt x="430" y="1483" on="0"/>
        <pt x="549" y="1251" on="0"/>
        <pt x="549" y="804" on="0"/>
        <pt x="427" y="565" on="0"/>
        <pt x="199" y="565" on="0"/>
        <pt x="84" y="800" on="0"/>
      </contour>
      <contour>
        <pt x="465" y="0" on="1"/>
        <pt x="338" y="0" on="1"/>
        <pt x="855" y="1462" on="1"/>
        <pt x="983" y="1462" on="1"/>
      </contour>
      <contour>
        <pt x="313" y="1367" on="1"/>
        <pt x="261" y="1367" on="0"/>
        <pt x="214" y="1202" on="0"/>
        <pt x="214" y="850" on="0"/>
        <pt x="261" y="685" on="0"/>
        <pt x="370" y="685" on="0"/>
        <pt x="418" y="851" on="0"/>
        <pt x="418" y="1027" on="1"/>
        <pt x="418" y="1367" on="0"/>
      </contour>
      <contour>
        <pt x="774" y="666" on="0"/>
        <pt x="891" y="898" on="0"/>
        <pt x="1120" y="898" on="0"/>
        <pt x="1238" y="667" on="0"/>
        <pt x="1238" y="218" on="0"/>
        <pt x="1116" y="-19" on="0"/>
        <pt x="890" y="-19" on="0"/>
        <pt x="774" y="216" on="0"/>
      </contour>
      <contour>
        <pt x="1003" y="781" on="1"/>
        <pt x="951" y="781" on="0"/>
        <pt x="905" y="617" on="0"/>
        <pt x="905" y="265" on="0"/>
        <pt x="952" y="100" on="0"/>
        <pt x="1060" y="100" on="0"/>
        <pt x="1108" y="265" on="0"/>
        <pt x="1108" y="441" on="1"/>
        <pt x="1108" y="781" on="0"/>
      </contour>
    </TTGlyph>
    <TTGlyph name="period" xMin="126" yMin="-20" xMax="339" yMax="231">
      <contour>
        <pt x="232" y="-20" on="1"/>
        <pt x="126" y="-20" on="0"/>
        <pt x="126" y="231" on="0"/>
        <pt x="339" y="231" on="0"/>
        <pt x="339" y="106" on="1"/>
        <pt x="339" y="43" on="0"/>
        <pt x="282" y="-20" on="0"/>
      </contour>
    </TTGlyph>
    <TTGlyph name="periodcentered" xMin="126" yMin="596" xMax="339" yMax="847">
      <contour>
        <pt x="232" y="596" on="1"/>
        <pt x="126" y="596" on="0"/>
        <pt x="126" y="847" on="0"/>
        <pt x="339" y="847" on="0"/>
        <pt x="339" y="722" on="1"/>
        <pt x="339" y="659" on="0"/>
        <pt x="282" y="596" on="0"/>
      </contour>
    </TTGlyph>
    <TTGlyph name="perthousand" xMin="83" yMin="-19" xMax="1778" yMax="1483">
      <contour>
        <pt x="83" y="1249" on="0"/>
        <pt x="199" y="1483" on="0"/>
        <pt x="429" y="1483" on="0"/>
        <pt x="548" y="1251" on="0"/>
        <pt x="548" y="804" on="0"/>
        <pt x="426" y="565" on="0"/>
        <pt x="198" y="565" on="0"/>
        <pt x="83" y="799" on="0"/>
      </contour>
      <contour>
        <pt x="855" y="1462" on="1"/>
        <pt x="983" y="1462" on="1"/>
        <pt x="871" y="1147" on="0"/>
        <pt x="466" y="0" on="1"/>
        <pt x="336" y="0" on="1"/>
      </contour>
      <contour>
        <pt x="313" y="1367" on="1"/>
        <pt x="260" y="1367" on="0"/>
        <pt x="214" y="1203" on="0"/>
        <pt x="214" y="849" on="0"/>
        <pt x="261" y="684" on="0"/>
        <pt x="368" y="684" on="0"/>
        <pt x="417" y="850" on="0"/>
        <pt x="417" y="1026" on="1"/>
        <pt x="417" y="1367" on="0"/>
      </contour>
      <contour>
        <pt x="1004" y="897" on="1"/>
        <pt x="1120" y="897" on="0"/>
        <pt x="1239" y="665" on="0"/>
        <pt x="1239" y="218" on="0"/>
        <pt x="1116" y="-19" on="0"/>
        <pt x="890" y="-19" on="0"/>
        <pt x="774" y="216" on="0"/>
        <pt x="774" y="439" on="1"/>
        <pt x="774" y="897" on="0"/>
      </contour>
      <contour>
        <pt x="1314" y="664" on="0"/>
        <pt x="1430" y="897" on="0"/>
        <pt x="1659" y="897" on="0"/>
        <pt x="1778" y="666" on="0"/>
        <pt x="1778" y="219" on="0"/>
        <pt x="1656" y="-19" on="0"/>
        <pt x="1429" y="-19" on="0"/>
        <pt x="1314" y="215" on="0"/>
      </contour>
      <contour>
        <pt x="1003" y="781" on="1"/>
        <pt x="950" y="781" on="0"/>
        <pt x="904" y="617" on="0"/>
        <pt x="904" y="264" on="0"/>
        <pt x="951" y="99" on="0"/>
        <pt x="1006" y="99" on="1"/>
        <pt x="1059" y="99" on="0"/>
        <pt x="1108" y="267" on="0"/>
        <pt x="1108" y="441" on="1"/>
        <pt x="1108" y="781" on="0"/>
      </contour>
      <contour>
        <pt x="1543" y="781" on="1"/>
        <pt x="1491" y="781" on="0"/>
        <pt x="1445" y="617" on="0"/>
        <pt x="1445" y="264" on="0"/>
        <pt x="1492" y="99" on="0"/>
        <pt x="1599" y="99" on="0"/>
        <pt x="1647" y="264" on="0"/>
        <pt x="1647" y="441" on="1"/>
        <pt x="1647" y="781" on="0"/>
      </contour>
    </TTGlyph>
</ttFont>
